<svg xmlns="http://www.w3.org/2000/svg" width="167.502" height="165.503" viewBox="0 0 167.502 165.503">
  <g id="Layer_x0020_1" transform="translate(-3.85 -6.1)">
    <g id="_2701919476048" transform="translate(3.85 6.1)">
      <path id="Path_1538" data-name="Path 1538" d="M5.341,113.6l11.909,5.6a7.713,7.713,0,0,0,3.292.737,7.81,7.81,0,0,0,5.7-2.475l4.615,3.314c1.24,1.43,2,3.953,2.815,6.623a33.315,33.315,0,0,0,2.864,7.311l-1.478,2.524a9.4,9.4,0,0,0,10.594,13.824,9.372,9.372,0,0,0,11.5,6.8.534.534,0,0,1,.079-.022,9.365,9.365,0,0,0,9.089,7.1h0a9.495,9.495,0,0,0,5.714-1.915,9.341,9.341,0,0,0,8.145,4.765h.009a9.5,9.5,0,0,0,5.983-2.127l7.607,4.518a10.051,10.051,0,0,0,5.158,1.421,10.394,10.394,0,0,0,2.555-.322,10.153,10.153,0,0,0,7.655-9.734,10.15,10.15,0,0,0,13.1-9.716,10.357,10.357,0,0,0-.141-1.69,10.151,10.151,0,0,0,9.31-12.258,10.3,10.3,0,0,0,1.315-.247,10.147,10.147,0,0,0,7.333-12.372,10.27,10.27,0,0,0-.569-1.637,31.854,31.854,0,0,0,10.612-5.118,7.728,7.728,0,0,0,7.775.684l11.909-5.6a2.7,2.7,0,0,0-1.134-5.154,2.663,2.663,0,0,0-1.165.265l-11.909,5.6a2.377,2.377,0,0,1-3.146-1.134L133.992,73.958a2.328,2.328,0,0,1-.225-1.006,2.37,2.37,0,0,1,1.35-2.14l11.913-5.6a2.7,2.7,0,0,0-1.165-5.14,2.643,2.643,0,0,0-1.134.252l-11.913,5.6a7.776,7.776,0,0,0-4.452,7.029v.062a41.006,41.006,0,0,1-9.932,2.475c-3.433.335-8.07-.265-12.981-.9-8.9-1.152-18.1-2.347-24.255,1.284l-3.384,1.99c-5.661-4.086-11.013-3.446-16.652-2.767a42.075,42.075,0,0,1-11.891.229c-.887-.132-1.787-.313-2.718-.543a7.681,7.681,0,0,0,.216-1.822,7.786,7.786,0,0,0-4.456-7.038L30.4,60.315A2.7,2.7,0,0,0,28.1,65.2l11.909,5.6a2.374,2.374,0,0,1,1.355,2.14,2.328,2.328,0,0,1-.225,1.006L22.7,113.161a2.366,2.366,0,0,1-2.14,1.359,2.308,2.308,0,0,1-1-.225l-11.913-5.6a2.7,2.7,0,0,0-3.795,2.466,2.708,2.708,0,0,0,1.5,2.422h0Zm35.815,31.848a4.023,4.023,0,0,1-1.438-5.485l2.281-3.9a2.106,2.106,0,0,0,.11-.19l4.364-7.457a4.008,4.008,0,0,1,6.923,4.042l-6.76,11.556a4.02,4.02,0,0,1-5.489,1.434h0Zm11.587,6.769a4,4,0,0,1-1.434-5.476l6.76-11.556a4,4,0,1,1,6.91,4.051l-6.764,11.552a4.014,4.014,0,0,1-5.471,1.43h0Zm11.578,6.777a4.023,4.023,0,0,1-1.438-5.485l6.76-11.547A4.007,4.007,0,0,1,76.566,146l-3.384,5.785-1.085,1.84c-.049.084-.1.172-.146.26l-2.144,3.667a4.029,4.029,0,0,1-5.489,1.438h0ZM78.2,161.847a4.014,4.014,0,0,1-1.513-5.352l1.147-1.964,3.406-5.78a4,4,0,0,1,7.333,1.024,3.935,3.935,0,0,1-.415,3.014L83.683,160.4a4.035,4.035,0,0,1-5.489,1.447h0Zm5.74-81.315c4.562-2.687,13.2-1.566,20.818-.578,5.224.675,10.153,1.319,14.19.922A45.39,45.39,0,0,0,130,78.176l16.917,35.974a28.839,28.839,0,0,1-11.432,4.933c-.031-.018-.057-.035-.084-.053L119.507,109.6a2.721,2.721,0,0,0-1.381-.379c-.066,0-.132,0-.2.009-11.265.834-23.16-.269-33.838-13.881a2.7,2.7,0,0,0-2.127-1.032,2.794,2.794,0,0,0-.931.163L74.58,96.84a2.673,2.673,0,0,0-1.244.935l-4.377,5.943c-2.453,3.247-5.8,4.311-8.948,2.846a3.308,3.308,0,0,1-1.3-4.9L66.174,91l12.769-7.514,0,0,4.995-2.939Zm-22.132-.066c4.3-.521,7.505-.9,10.7.525l-9.575,5.635a2.642,2.642,0,0,0-.843.781l-7.8,11.137a8.716,8.716,0,0,0,3.442,12.915C63.2,114,69.3,112.235,73.3,106.944l3.914-5.312,3.878-1.421c11.684,13.85,24.855,15.214,36.393,14.464l15.17,9a4.773,4.773,0,0,1-4.876,8.207L115.5,124.607a2.7,2.7,0,1,0-2.753,4.646l11.062,6.557a.859.859,0,0,0,.106.066,4.772,4.772,0,0,1-4.871,8.207l-12.209-7.245a2.7,2.7,0,1,0-2.758,4.646l10.413,6.182a.155.155,0,0,0,.035.022,4.772,4.772,0,0,1-4.871,8.207l-5.454-3.239-.009,0-5.017-2.978a2.7,2.7,0,1,0-2.758,4.646l5.021,2.978a4.848,4.848,0,0,1,1.663,6.544,4.8,4.8,0,0,1-6.539,1.677L89.45,161.3l3.4-5.78a9.393,9.393,0,0,0-10.594-13.824.862.862,0,0,0-.026-.1,9.386,9.386,0,0,0-9.085-7.024,9.231,9.231,0,0,0-2.48.335c-.009-.031-.013-.057-.022-.088a9.383,9.383,0,0,0-11.552-6.694,9.405,9.405,0,0,0-17.243-2.444l-1.955,3.331c-.371-1.028-.7-2.114-1.024-3.186-.988-3.256-2.012-6.623-4.223-8.948l-.176-.185L28.912,112.7,44.391,79.791a34.344,34.344,0,0,0,4.108.874,47.259,47.259,0,0,0,13.33-.207h0ZM86.546,65.843a2.738,2.738,0,0,0,2.047,0c12.509-5.11,25.874-20.65,25.874-48.933h0a2.7,2.7,0,0,0-2.674-2.7c-9.019-.1-16.387-2.555-22.529-7.51a2.7,2.7,0,0,0-3.4,0c-6.138,4.955-13.506,7.413-22.525,7.51a2.7,2.7,0,0,0-2.674,2.7h0c0,28.283,13.369,43.819,25.878,48.933h0ZM87.57,12.2a40.35,40.35,0,0,0,21.453,7.316c-.732,23.174-11.252,36.172-21.453,40.88-10.2-4.708-20.72-17.707-21.453-40.88A40.387,40.387,0,0,0,87.57,12.2ZM83.656,43.543l-4.576-4.4a2.7,2.7,0,0,1,3.746-3.892l2.577,2.48,6.786-7.439a2.7,2.7,0,0,1,4,3.645L87.53,43.424a2.689,2.689,0,0,1-1.906.878h-.093a2.708,2.708,0,0,1-1.871-.75h0Z" transform="translate(-3.85 -6.1)" fill="#009b4c"/>
    </g>
  </g>
</svg>
