<svg xmlns="http://www.w3.org/2000/svg" width="149.585" height="165.503" viewBox="0 0 149.585 165.503">
  <g id="Layer_x0020_1" transform="translate(-20.09 0.01)">
    <g id="_2701606990608" transform="translate(20.09 -0.01)">
      <path id="Path_1539" data-name="Path 1539" d="M152.839,84.284h-2.776c4.645-3.382,7.092-9.836,7.092-16.021a14.544,14.544,0,0,0-29.088,0c0,6.185,2.451,12.639,7.1,16.021h-2.78a17.676,17.676,0,0,0-3.492.344,23.792,23.792,0,0,0-19.09-9.321h-5.559a20.143,20.143,0,0,0,5.971-6.165,31.884,31.884,0,0,0,4.637-16.7,19.965,19.965,0,1,0-39.929,0A32.633,32.633,0,0,0,79.4,68.9a20.245,20.245,0,0,0,6.046,6.411H79.96a23.774,23.774,0,0,0-19.082,9.325,17.775,17.775,0,0,0-3.5-.344H54.607c4.645-3.382,7.092-9.836,7.092-16.021a14.54,14.54,0,0,0-29.08,0c0,6.185,2.447,12.639,7.092,16.021H36.927c-9.285,0-16.837,7.1-16.837,15.823v17.9a2.724,2.724,0,0,0,5.449,0v-17.9c0-5.722,5.108-10.374,11.388-10.374H57.382c.218,0,.432.016.649.024a20.538,20.538,0,0,0-1.374,7.385V118a2.724,2.724,0,1,0,5.449,0V97.145a15.233,15.233,0,0,1,2.142-7.777,2.735,2.735,0,0,0,.214-.341,18.2,18.2,0,0,1,15.5-8.268H109.8a18.2,18.2,0,0,1,15.518,8.28,2.237,2.237,0,0,0,.2.325,15.212,15.212,0,0,1,2.146,7.781V118a2.724,2.724,0,1,0,5.449,0V97.145a20.522,20.522,0,0,0-1.374-7.385c.214-.012.424-.024.641-.024h20.456c6.28,0,11.388,4.653,11.388,10.374v17.9a2.724,2.724,0,0,0,5.449,0v-17.9c0-8.727-7.551-15.823-16.837-15.823h0ZM142.615,59.171a9.1,9.1,0,0,1,9.091,9.091c0,5.385-2.819,12.972-9.091,12.972s-9.1-7.587-9.1-12.972a9.106,9.106,0,0,1,9.1-9.091ZM80.372,52.44a14.516,14.516,0,1,1,29.032,0c0,7.8-3.94,20.183-14.516,20.183-4.5,0-8.149-2.217-10.846-6.585a26.951,26.951,0,0,1-3.671-13.6Zm-33.21,6.731a9.1,9.1,0,0,1,9.091,9.091c0,5.385-2.819,12.972-9.091,12.972s-9.091-7.587-9.091-12.972a9.1,9.1,0,0,1,9.091-9.091ZM37.719,32.836,36.665,40.1a2.723,2.723,0,0,0,3.9,2.835l6.6-3.243,6.589,3.243a2.738,2.738,0,0,0,1.2.281,2.724,2.724,0,0,0,2.7-3.112L56.6,32.836l5.12-5.274a2.725,2.725,0,0,0-1.493-4.581l-7.238-1.247-3.421-6.5a2.72,2.72,0,0,0-2.407-1.453h0a2.73,2.73,0,0,0-2.411,1.453l-3.429,6.5L34.08,22.98a2.723,2.723,0,0,0-1.489,4.581l5.128,5.274h0Zm5.852-5.963a2.728,2.728,0,0,0,1.948-1.414l1.643-3.112L48.8,25.455a2.728,2.728,0,0,0,1.948,1.418l3.477.6L51.768,30a2.72,2.72,0,0,0-.74,2.285l.5,3.481L48.37,34.214a2.726,2.726,0,0,0-2.4,0l-3.16,1.552.5-3.477A2.719,2.719,0,0,0,42.565,30l-2.459-2.53,3.469-.6h0Zm41.874-7.828-1.053,7.262a2.726,2.726,0,0,0,2.7,3.116,2.681,2.681,0,0,0,1.2-.281l6.6-3.243,6.589,3.243a2.727,2.727,0,0,0,3.9-2.835l-1.045-7.266,5.12-5.266a2.723,2.723,0,0,0-1.489-4.581l-7.238-1.247L97.3,1.447A2.731,2.731,0,0,0,94.892-.01h0a2.73,2.73,0,0,0-2.411,1.453l-3.429,6.5L81.81,9.188a2.726,2.726,0,0,0-1.489,4.585l5.124,5.262h0ZM91.3,13.089a2.728,2.728,0,0,0,1.948-1.414l1.643-3.112,1.635,3.108a2.728,2.728,0,0,0,1.948,1.418l3.469.6L99.49,16.209a2.727,2.727,0,0,0-.744,2.289l.5,3.481-3.156-1.552a2.738,2.738,0,0,0-1.2-.281,2.656,2.656,0,0,0-1.2.281l-3.16,1.552.5-3.477a2.727,2.727,0,0,0-.744-2.293l-2.455-2.518,3.465-.6h0Zm41.874,18.737L132.117,39.1a2.726,2.726,0,0,0,2.7,3.116,2.681,2.681,0,0,0,1.2-.281l6.6-3.243,6.589,3.243a2.727,2.727,0,0,0,3.9-2.835l-1.045-7.274,5.12-5.266a2.723,2.723,0,0,0-1.489-4.581l-7.238-1.247-3.421-6.5a2.72,2.72,0,0,0-2.407-1.453h0a2.73,2.73,0,0,0-2.411,1.453l-3.429,6.5-7.242,1.247a2.726,2.726,0,0,0-1.489,4.585l5.124,5.262h0Zm5.852-5.955a2.728,2.728,0,0,0,1.948-1.414l1.643-3.112,1.635,3.108a2.728,2.728,0,0,0,1.948,1.418l3.469.6-2.451,2.522a2.723,2.723,0,0,0-.744,2.285l.5,3.488-3.156-1.552a2.726,2.726,0,0,0-2.4,0l-3.164,1.552.5-3.488a2.727,2.727,0,0,0-.744-2.293l-2.455-2.518,3.465-.6h0Zm-44.135,90.8a16.472,16.472,0,1,0,16.472,16.472A16.49,16.49,0,0,0,94.888,116.674Zm0,27.492a11.024,11.024,0,1,1,11.024-11.024A11.037,11.037,0,0,1,94.888,144.166Zm30.767-17.308-4.977-2.293-1.485-3.591,1.893-5.14a2.726,2.726,0,0,0-.63-2.867l-3.663-3.663v-8.66a2.724,2.724,0,0,0-5.449,0v6.621l-4.284,1.576-3.6-1.493-2.3-4.969a2.725,2.725,0,0,0-2.475-1.584H91.071A2.729,2.729,0,0,0,88.6,102.38l-2.3,4.969-3.591,1.489-4.292-1.58v-6.617a2.724,2.724,0,1,0-5.449,0v8.668l-3.651,3.651a2.718,2.718,0,0,0-.63,2.867l1.889,5.14-1.489,3.591-4.969,2.3a2.72,2.72,0,0,0-1.584,2.475v7.626a2.729,2.729,0,0,0,1.584,2.475l4.969,2.3,1.489,3.591-1.889,5.14a2.726,2.726,0,0,0,.63,2.867L74.7,158.71a2.718,2.718,0,0,0,2.867.63l5.14-1.889L86.3,158.94l2.3,4.969a2.725,2.725,0,0,0,2.475,1.584H98.69a2.729,2.729,0,0,0,2.475-1.584l2.3-4.969,3.6-1.493,5.14,1.893a2.726,2.726,0,0,0,2.867-.63l5.385-5.385a2.718,2.718,0,0,0,.63-2.867l-1.893-5.14,1.485-3.591,4.977-2.293a2.72,2.72,0,0,0,1.584-2.475v-7.626a2.729,2.729,0,0,0-1.584-2.475h0Zm-3.865,8.355-4.364,2.012a2.722,2.722,0,0,0-1.378,1.433l-2.3,5.559a2.713,2.713,0,0,0-.04,1.98l1.659,4.506-2.922,2.922-4.506-1.659a2.724,2.724,0,0,0-1.984.04l-5.571,2.309a2.708,2.708,0,0,0-1.429,1.374l-2.012,4.356h-4.13l-2.012-4.356a2.708,2.708,0,0,0-1.429-1.374l-5.559-2.309a2.724,2.724,0,0,0-1.984-.04l-4.506,1.659L74.405,150.7l1.659-4.506a2.724,2.724,0,0,0-.04-1.984l-2.309-5.559a2.722,2.722,0,0,0-1.374-1.429l-4.356-2.012v-4.142l4.356-2.012a2.722,2.722,0,0,0,1.374-1.429l2.309-5.559a2.724,2.724,0,0,0,.04-1.984l-1.659-4.506,2.922-2.922,4.506,1.659a2.724,2.724,0,0,0,1.984-.04l5.559-2.308a2.722,2.722,0,0,0,1.429-1.374l2.012-4.356h4.13l2.012,4.356a2.736,2.736,0,0,0,1.429,1.374l5.571,2.308a2.724,2.724,0,0,0,1.984.04l4.506-1.659,2.922,2.922-1.659,4.506a2.713,2.713,0,0,0,.04,1.98l2.3,5.559a2.722,2.722,0,0,0,1.378,1.433l4.364,2.012v4.138h0Zm-20.5-7.365a2.728,2.728,0,0,1,.182,3.849l-5.975,6.565a2.723,2.723,0,0,1-1.924.887h-.091a2.741,2.741,0,0,1-1.889-.76l-3.168-3.041a2.725,2.725,0,0,1,3.774-3.932l1.148,1.1,4.09-4.494a2.728,2.728,0,0,1,3.849-.182h0Z" transform="translate(-20.09 0.01)" fill="#009b4c"/>
    </g>
  </g>
</svg>
