<svg id="Layer_x0020_1" xmlns="http://www.w3.org/2000/svg" xmlns:xlink="http://www.w3.org/1999/xlink" width="236" height="73.767" viewBox="0 0 236 73.767">
  <defs>
    <linearGradient id="linear-gradient" x1="0.524" y1="0.935" x2="0.524" y2="-0.172" gradientUnits="objectBoundingBox">
      <stop offset="0" stop-color="#e62129"/>
      <stop offset="0.329" stop-color="#e62129"/>
      <stop offset="0.529" stop-color="#e62129"/>
      <stop offset="1" stop-color="#f8b739"/>
    </linearGradient>
    <linearGradient id="linear-gradient-2" x1="0.486" x2="0.503" y2="1.297" gradientUnits="objectBoundingBox">
      <stop offset="0" stop-color="#009b4c"/>
      <stop offset="1" stop-color="#63973d"/>
    </linearGradient>
    <linearGradient id="linear-gradient-3" x1="0.507" y1="0.001" x2="0.451" y2="1.121" gradientUnits="objectBoundingBox">
      <stop offset="0" stop-color="#6b9f3c"/>
      <stop offset="1" stop-color="#cfe17c"/>
    </linearGradient>
    <linearGradient id="linear-gradient-4" x1="-0.285" y1="0.963" x2="-0.308" y2="-0.247" gradientUnits="objectBoundingBox">
      <stop offset="0" stop-color="#e62129"/>
      <stop offset="0.651" stop-color="#f28815"/>
      <stop offset="1" stop-color="#fff000"/>
    </linearGradient>
    <linearGradient id="linear-gradient-5" x1="1.546" y1="0.963" x2="1.523" y2="-0.247" xlink:href="#linear-gradient-4"/>
  </defs>
  <g id="_2338310672864">
    <g id="Group_1" data-name="Group 1" transform="translate(73.36 13.855)">
      <path id="Path_1" data-name="Path 1" d="M2412.348,460.866h.524a1.189,1.189,0,0,0,1.047-.456l3.181-4.617a1.364,1.364,0,0,1,.6-.514,2.174,2.174,0,0,1,.818-.136h2.852l-4.19,5.719a2.808,2.808,0,0,1-.466.514,3.145,3.145,0,0,1-.494.343,2.513,2.513,0,0,1,.676.372,2.481,2.481,0,0,1,.555.637l4.268,6.557h-2.929a2.534,2.534,0,0,1-.479-.039,1.232,1.232,0,0,1-.346-.117,1,1,0,0,1-.252-.191,1.951,1.951,0,0,1-.2-.255l-3.2-4.917a.961.961,0,0,0-.44-.385,1.917,1.917,0,0,0-.724-.11h-.795v6.014h-3.279V455.144h3.279v5.722Zm18.448-2.848a1.23,1.23,0,0,1-.3.349.711.711,0,0,1-.414.113,1,1,0,0,1-.479-.139c-.172-.094-.366-.2-.582-.317a4.84,4.84,0,0,0-.744-.314,2.974,2.974,0,0,0-.95-.142,2.039,2.039,0,0,0-1.371.395,1.335,1.335,0,0,0-.452,1.061.993.993,0,0,0,.271.711,2.352,2.352,0,0,0,.714.485,7.563,7.563,0,0,0,1.009.372c.378.113.763.24,1.157.379a10.359,10.359,0,0,1,1.16.492,3.86,3.86,0,0,1,1.009.718,3.354,3.354,0,0,1,.711,1.063,3.786,3.786,0,0,1,.272,1.509,4.92,4.92,0,0,1-.339,1.833,4.3,4.3,0,0,1-.983,1.491,4.573,4.573,0,0,1-1.591,1,5.971,5.971,0,0,1-2.15.365,7.12,7.12,0,0,1-1.342-.132,8.267,8.267,0,0,1-1.326-.378,7.669,7.669,0,0,1-1.2-.579,5.165,5.165,0,0,1-.98-.744l.97-1.559a.8.8,0,0,1,.3-.284.858.858,0,0,1,.417-.106,1.11,1.11,0,0,1,.588.184q.3.185.669.407a5.447,5.447,0,0,0,.857.407,3.217,3.217,0,0,0,1.145.184,2.178,2.178,0,0,0,1.387-.395,1.493,1.493,0,0,0,.494-1.244,1.18,1.18,0,0,0-.271-.809,2.1,2.1,0,0,0-.711-.514,6.65,6.65,0,0,0-1.006-.359c-.375-.1-.76-.217-1.154-.343a7.911,7.911,0,0,1-1.154-.469,3.63,3.63,0,0,1-1-.727,3.407,3.407,0,0,1-.714-1.125,4.462,4.462,0,0,1-.272-1.664,3.941,3.941,0,0,1,.32-1.552,4,4,0,0,1,.941-1.351,4.62,4.62,0,0,1,1.522-.944,5.616,5.616,0,0,1,2.066-.355,7.8,7.8,0,0,1,1.268.1,6.578,6.578,0,0,1,2.2.783,4.783,4.783,0,0,1,.857.633l-.815,1.51Zm5.916,6.534v4.724h-3.278V455.124h4.985a8.222,8.222,0,0,1,2.567.356,4.93,4.93,0,0,1,1.765.977,3.781,3.781,0,0,1,1.021,1.468,4.976,4.976,0,0,1,.33,1.827,5.371,5.371,0,0,1-.339,1.943,3.886,3.886,0,0,1-1.038,1.517,4.886,4.886,0,0,1-1.769.986,8.126,8.126,0,0,1-2.537.355h-1.707Zm0-2.483h1.707a2.08,2.08,0,0,0,2.406-2.318,2.562,2.562,0,0,0-.146-.882,1.792,1.792,0,0,0-.44-.685,1.967,1.967,0,0,0-.747-.44,3.31,3.31,0,0,0-1.073-.155h-1.707Zm12.376,2.483v4.724h-3.278V455.124h4.985a8.222,8.222,0,0,1,2.567.356,4.926,4.926,0,0,1,1.765.977,3.779,3.779,0,0,1,1.022,1.468,4.976,4.976,0,0,1,.33,1.827,5.371,5.371,0,0,1-.339,1.943,3.885,3.885,0,0,1-1.038,1.517,4.886,4.886,0,0,1-1.769.986,8.127,8.127,0,0,1-2.538.355h-1.707Zm0-2.483h1.707a2.08,2.08,0,0,0,2.406-2.318,2.562,2.562,0,0,0-.146-.882,1.792,1.792,0,0,0-.44-.685,1.967,1.967,0,0,0-.747-.44,3.311,3.311,0,0,0-1.073-.155h-1.707Zm16.974-4.051a1.23,1.23,0,0,1-.3.349.709.709,0,0,1-.414.113,1,1,0,0,1-.478-.139c-.172-.094-.366-.2-.582-.317a4.844,4.844,0,0,0-.744-.314,2.973,2.973,0,0,0-.95-.142,2.039,2.039,0,0,0-1.371.395,1.335,1.335,0,0,0-.453,1.061.993.993,0,0,0,.272.711,2.352,2.352,0,0,0,.714.485,7.58,7.58,0,0,0,1.009.372c.378.113.763.24,1.157.379a10.385,10.385,0,0,1,1.161.492,3.864,3.864,0,0,1,1.009.718,3.354,3.354,0,0,1,.711,1.063,3.79,3.79,0,0,1,.271,1.509,4.925,4.925,0,0,1-.339,1.833,4.3,4.3,0,0,1-.983,1.491,4.574,4.574,0,0,1-1.591,1,5.973,5.973,0,0,1-2.15.365,7.124,7.124,0,0,1-1.342-.132,8.272,8.272,0,0,1-1.325-.378,7.67,7.67,0,0,1-1.2-.579,5.176,5.176,0,0,1-.979-.744l.97-1.559a.8.8,0,0,1,.3-.284.857.857,0,0,1,.417-.106,1.109,1.109,0,0,1,.588.184q.3.185.669.407a5.47,5.47,0,0,0,.857.407,3.218,3.218,0,0,0,1.145.184,2.178,2.178,0,0,0,1.387-.395,1.492,1.492,0,0,0,.494-1.244,1.18,1.18,0,0,0-.271-.808,2.1,2.1,0,0,0-.711-.514,6.628,6.628,0,0,0-1.005-.359c-.375-.1-.76-.217-1.154-.343a7.928,7.928,0,0,1-1.154-.469,3.632,3.632,0,0,1-1-.727,3.407,3.407,0,0,1-.715-1.125,4.468,4.468,0,0,1-.271-1.664,3.937,3.937,0,0,1,.32-1.552,4,4,0,0,1,.941-1.351,4.619,4.619,0,0,1,1.522-.944,5.619,5.619,0,0,1,2.066-.355,7.8,7.8,0,0,1,1.267.1,6.575,6.575,0,0,1,2.2.783,4.8,4.8,0,0,1,.857.633l-.815,1.51Zm6.382,11.267V455.145h5.2a9.9,9.9,0,0,1,2.493.271,4.829,4.829,0,0,1,1.678.77,2.924,2.924,0,0,1,.948,1.209,4.1,4.1,0,0,1,.294,1.587,3.147,3.147,0,0,1-.136.922,2.7,2.7,0,0,1-.427.83,3.131,3.131,0,0,1-.747.708,4.8,4.8,0,0,1-1.1.55,3.893,3.893,0,0,1,2.066,1.1,2.829,2.829,0,0,1,.669,1.946,4.021,4.021,0,0,1-.349,1.675,3.827,3.827,0,0,1-1.021,1.351,4.911,4.911,0,0,1-1.666.9,7.246,7.246,0,0,1-2.26.323h-5.645Zm3.278-5.994V466.8h2.309a2.915,2.915,0,0,0,1.063-.165,1.7,1.7,0,0,0,.644-.424,1.434,1.434,0,0,0,.32-.592,2.621,2.621,0,0,0,.088-.666,2.25,2.25,0,0,0-.1-.7,1.131,1.131,0,0,0-.349-.521,1.723,1.723,0,0,0-.656-.33,3.825,3.825,0,0,0-1.028-.117h-2.289Zm0-2.192h1.707a5.592,5.592,0,0,0,.979-.078,2.05,2.05,0,0,0,.744-.271,1.251,1.251,0,0,0,.465-.534,2,2,0,0,0,.158-.854,2.41,2.41,0,0,0-.126-.841,1.2,1.2,0,0,0-.387-.537,1.632,1.632,0,0,0-.663-.291,4.6,4.6,0,0,0-.957-.087h-1.92Zm16.673,1.717c.13.246.256.5.375.769s.233.537.343.815c.11-.284.227-.563.35-.831s.249-.53.378-.782l3.628-7.158a1.177,1.177,0,0,1,.2-.284.652.652,0,0,1,.227-.152.8.8,0,0,1,.288-.048h2.875v14.141h-2.89v-8.138q0-.591.058-1.28l-3.744,7.272a1.233,1.233,0,0,1-.469.514,1.312,1.312,0,0,1-.676.174h-.446a1.3,1.3,0,0,1-.673-.174,1.237,1.237,0,0,1-.472-.514l-3.763-7.281c.026.227.045.453.058.676s.019.427.019.614v8.138h-2.89V455.145h2.877a.782.782,0,0,1,.284.048.669.669,0,0,1,.23.152,1.176,1.176,0,0,1,.2.284Zm21.252-7.672v2.6h-3.977v11.542h-3.278V457.744h-3.977v-2.6Z" transform="translate(-2409.069 -454.99)" fill="url(#linear-gradient)"/>
      <path id="Path_2" data-name="Path 2" d="M2423.427,1118.907h-2.542a1.175,1.175,0,0,1-.7-.2,1.031,1.031,0,0,1-.385-.508l-.833-2.464h-5.374l-.834,2.464a1.13,1.13,0,0,1-1.067.708h-2.561l5.47-14.141h3.356l5.47,14.141Zm-9.079-5.406h3.86l-1.3-3.812c-.084-.243-.181-.527-.294-.857s-.226-.682-.336-1.064c-.1.388-.21.747-.32,1.08s-.214.617-.311.86l-1.3,3.792Zm18.1-5.852a1.236,1.236,0,0,1-.3.349.711.711,0,0,1-.414.113,1,1,0,0,1-.478-.139c-.172-.094-.366-.2-.582-.317a4.873,4.873,0,0,0-.744-.314,2.982,2.982,0,0,0-.95-.142,2.04,2.04,0,0,0-1.371.395,1.335,1.335,0,0,0-.452,1.061.993.993,0,0,0,.272.711,2.35,2.35,0,0,0,.714.485,7.581,7.581,0,0,0,1.009.371c.378.113.763.239,1.157.379a10.274,10.274,0,0,1,1.16.492,3.858,3.858,0,0,1,1.009.718,3.354,3.354,0,0,1,.711,1.063,3.786,3.786,0,0,1,.272,1.51,4.917,4.917,0,0,1-.339,1.833,4.3,4.3,0,0,1-.983,1.491,4.574,4.574,0,0,1-1.591,1,5.972,5.972,0,0,1-2.15.365,7.122,7.122,0,0,1-1.342-.133,8.263,8.263,0,0,1-1.325-.378,7.673,7.673,0,0,1-1.2-.579,5.166,5.166,0,0,1-.979-.744l.97-1.558a.8.8,0,0,1,.3-.284.857.857,0,0,1,.417-.106,1.109,1.109,0,0,1,.588.184q.3.184.669.407a5.444,5.444,0,0,0,.857.407,3.217,3.217,0,0,0,1.145.184,2.177,2.177,0,0,0,1.387-.395,1.493,1.493,0,0,0,.495-1.245,1.181,1.181,0,0,0-.271-.808,2.1,2.1,0,0,0-.711-.514,6.621,6.621,0,0,0-1.005-.358c-.375-.1-.76-.217-1.154-.343a7.929,7.929,0,0,1-1.154-.469,3.622,3.622,0,0,1-1-.728,3.4,3.4,0,0,1-.714-1.125,4.468,4.468,0,0,1-.271-1.665,3.942,3.942,0,0,1,.32-1.552,4.008,4.008,0,0,1,.941-1.351,4.611,4.611,0,0,1,1.522-.944,5.617,5.617,0,0,1,2.066-.355,7.793,7.793,0,0,1,1.267.1,6.571,6.571,0,0,1,2.2.783,4.771,4.771,0,0,1,.857.633l-.815,1.51Zm15.791,11.258H2445.7a1.173,1.173,0,0,1-.7-.2,1.028,1.028,0,0,1-.385-.508l-.833-2.464H2438.4l-.834,2.464a1.13,1.13,0,0,1-1.067.708h-2.561l5.47-14.141h3.356l5.471,14.141Zm-9.079-5.406h3.86l-1.3-3.812c-.084-.243-.181-.527-.294-.857s-.226-.682-.336-1.064c-.1.388-.21.747-.32,1.08s-.214.617-.311.86l-1.3,3.792Zm15.694-8.726a2.81,2.81,0,0,1,.359.019.917.917,0,0,1,.262.071.875.875,0,0,1,.223.152,2.659,2.659,0,0,1,.243.262l6.711,8.487c-.026-.272-.045-.537-.058-.792s-.019-.5-.019-.721v-7.478h2.89v14.141h-1.707a1.565,1.565,0,0,1-.64-.117,1.357,1.357,0,0,1-.5-.427l-6.663-8.419c.019.245.035.485.049.721s.019.459.019.666v7.575h-2.89v-14.141h1.727Zm18.817,11.542a3.021,3.021,0,0,0,1.18-.22,2.364,2.364,0,0,0,.876-.624,2.774,2.774,0,0,0,.55-1,4.337,4.337,0,0,0,.187-1.332v-8.37h3.278v8.377a6.535,6.535,0,0,1-.42,2.386,5.368,5.368,0,0,1-1.209,1.876,5.449,5.449,0,0,1-1.911,1.222,7.59,7.59,0,0,1-5.073,0,5.454,5.454,0,0,1-1.911-1.222,5.3,5.3,0,0,1-1.2-1.876,6.592,6.592,0,0,1-.417-2.386v-8.377h3.278v8.361a4.333,4.333,0,0,0,.191,1.332,2.8,2.8,0,0,0,.547,1,2.354,2.354,0,0,0,.879.63,3,3,0,0,0,1.177.22Zm16.082-8.668a1.236,1.236,0,0,1-.3.349.709.709,0,0,1-.414.113,1,1,0,0,1-.478-.139c-.172-.094-.366-.2-.582-.317a4.873,4.873,0,0,0-.744-.314,2.98,2.98,0,0,0-.95-.142,2.039,2.039,0,0,0-1.371.395,1.335,1.335,0,0,0-.453,1.061.993.993,0,0,0,.272.711,2.354,2.354,0,0,0,.714.485,7.581,7.581,0,0,0,1.009.371c.379.113.763.239,1.157.379a10.3,10.3,0,0,1,1.161.492,3.857,3.857,0,0,1,1.009.718,3.354,3.354,0,0,1,.711,1.063,3.786,3.786,0,0,1,.272,1.51,4.917,4.917,0,0,1-.339,1.833,4.3,4.3,0,0,1-.983,1.491,4.574,4.574,0,0,1-1.591,1,5.972,5.972,0,0,1-2.15.365,7.12,7.12,0,0,1-1.342-.133,8.273,8.273,0,0,1-1.326-.378,7.68,7.68,0,0,1-1.2-.579,5.184,5.184,0,0,1-.98-.744l.97-1.558a.8.8,0,0,1,.3-.284.857.857,0,0,1,.417-.106,1.11,1.11,0,0,1,.588.184q.3.184.669.407a5.451,5.451,0,0,0,.857.407,3.218,3.218,0,0,0,1.145.184,2.175,2.175,0,0,0,1.387-.395,1.492,1.492,0,0,0,.495-1.245,1.181,1.181,0,0,0-.271-.808,2.1,2.1,0,0,0-.711-.514,6.612,6.612,0,0,0-1.005-.358c-.375-.1-.76-.217-1.154-.343a7.929,7.929,0,0,1-1.154-.469,3.623,3.623,0,0,1-1-.728,3.407,3.407,0,0,1-.714-1.125,4.468,4.468,0,0,1-.272-1.665,3.947,3.947,0,0,1,.32-1.552,4,4,0,0,1,.941-1.351,4.61,4.61,0,0,1,1.522-.944,5.615,5.615,0,0,1,2.065-.355,7.8,7.8,0,0,1,1.268.1,6.576,6.576,0,0,1,2.2.783,4.771,4.771,0,0,1,.857.633l-.815,1.51Zm15.791,11.258H2503a1.175,1.175,0,0,1-.7-.2,1.028,1.028,0,0,1-.385-.508l-.833-2.464h-5.374l-.834,2.464a1.13,1.13,0,0,1-1.067.708h-2.561l5.47-14.141h3.356l5.47,14.141Zm-9.079-5.406h3.86l-1.3-3.812c-.084-.243-.181-.527-.294-.857s-.226-.682-.336-1.064c-.1.388-.211.747-.32,1.08s-.214.617-.311.86l-1.3,3.792Zm11.949-8.726a2.814,2.814,0,0,1,.359.019.913.913,0,0,1,.261.071.88.88,0,0,1,.223.152,2.659,2.659,0,0,1,.243.262l6.711,8.487c-.026-.272-.045-.537-.058-.792s-.019-.5-.019-.721v-7.478h2.89v14.141h-1.707a1.564,1.564,0,0,1-.64-.117,1.357,1.357,0,0,1-.5-.427l-6.663-8.419c.019.245.035.485.048.721s.019.459.019.666v7.575h-2.89v-14.141h1.727Zm23.2,0v2.6h-3.977v11.542h-3.278v-11.542h-3.977v-2.6Zm12.958,14.132h-2.542a1.174,1.174,0,0,1-.7-.2,1.028,1.028,0,0,1-.385-.508l-.833-2.464h-5.374l-.834,2.464a1.13,1.13,0,0,1-1.067.708h-2.561l5.47-14.141h3.356l5.47,14.141Zm-9.079-5.406h3.86l-1.3-3.812c-.084-.243-.181-.527-.294-.857s-.226-.682-.336-1.064c-.1.388-.21.747-.32,1.08s-.214.617-.311.86l-1.3,3.792Zm13.5.178v5.228h-3.279v-14.152h4.6a9.429,9.429,0,0,1,2.615.317,4.908,4.908,0,0,1,1.766.879,3.3,3.3,0,0,1,.992,1.332,4.411,4.411,0,0,1,.311,1.672,4.5,4.5,0,0,1-.185,1.3,3.935,3.935,0,0,1-.546,1.132,4.256,4.256,0,0,1-.893.928,4.65,4.65,0,0,1-1.219.673,3.058,3.058,0,0,1,.617.407,2.416,2.416,0,0,1,.5.592l3.007,4.917h-2.969a1.259,1.259,0,0,1-1.183-.621l-2.347-4.1a.987.987,0,0,0-.362-.388,1.228,1.228,0,0,0-.588-.116Zm0-2.27h1.319a3.4,3.4,0,0,0,1.141-.171,2.045,2.045,0,0,0,.769-.469,1.781,1.781,0,0,0,.437-.7,2.682,2.682,0,0,0,.136-.866,1.818,1.818,0,0,0-.6-1.455,2.827,2.827,0,0,0-1.878-.523h-1.319v4.19Zm22.775,7.5h-2.542a1.174,1.174,0,0,1-.7-.2,1.028,1.028,0,0,1-.385-.508l-.833-2.464h-5.374l-.834,2.464a1.129,1.129,0,0,1-1.067.708h-2.561l5.471-14.141h3.356l5.471,14.141Zm-9.079-5.406h3.86l-1.3-3.812c-.084-.243-.181-.527-.294-.857s-.226-.682-.336-1.064c-.1.388-.21.747-.32,1.08s-.214.617-.311.86l-1.3,3.792Z" transform="translate(-2409.128 -1084.838)" fill="#009b4c"/>
      <path id="Path_3" data-name="Path 3" d="M2410.364,1750.608c-.482,1.109-1.041,1.252-1.2,1.3-.026.008-.042.068-.042.068h1.667s.026-.059,0-.068c-.127-.051-.8-.135-.33-1.244l1.7-3.935.592,5.246h.152l3.842-5.119-.829,4c-.22,1.041-.66,1-.821,1.049-.026.008-.043.068-.043.068h2.048s.017-.059-.008-.068c-.136-.051-.626-.008-.406-1.083l.753-3.68c.178-.847.558-1.033.744-1.033.034,0,.051-.059.051-.059h-1.023l-3.757,4.992-.567-4.992h-1.134s-.008.059.017.059c.153,0,.491.1.254.626l.026-.034-1.684,3.9Zm12.252.584c-.161.516.051.837.423.837a1.7,1.7,0,0,0,1.108-.677v-.059s-.008-.051-.051,0a1.518,1.518,0,0,1-.744.542c-.144,0-.169-.22-.017-.745l.8-2.5a1.878,1.878,0,0,1,1.354-.7c1.278,0,.677,1.616.4,2.5l-.254.813c-.169.516.042.837.414.837a1.735,1.735,0,0,0,1.117-.677v-.059s-.008-.051-.05,0a1.565,1.565,0,0,1-.753.542c-.144,0-.169-.22-.017-.736l.211-.651c.389-1.219.947-2.784-.922-2.784a2.147,2.147,0,0,0-1.43.719l.118-.355c.093-.3-.043-.44-.339-.355l-.981.288s-.026.059,0,.068a1.336,1.336,0,0,1,.279-.051c.178,0,.322.119.136.7l-.33,1.049c-.871.973-2.148,2.191-3.079,2.191-.736,0-1.083-.66-1.109-1.456,3.477-.55,3.731-2.784,1.92-2.784a2.911,2.911,0,0,0-2.623,2.2c-.364,1.143-.026,2.225,1.4,2.225,1.294,0,2.487-1.117,3.427-2.183l-.406,1.27Zm-3.714-.838c0-1.159.652-2.521,1.7-2.521C2422.142,1747.832,2420.856,1750.184,2418.9,1750.353Zm10.449-2.326c.093-.3-.042-.44-.347-.355l-.981.288s-.017.059.008.068a1.165,1.165,0,0,1,.27-.051c.177,0,.322.119.153.677l-.2.626c-.389,1.219-.956,2.784.922,2.784a2.123,2.123,0,0,0,1.4-.685c-.068.406.135.652.457.652a1.7,1.7,0,0,0,1.117-.677v-.059s-.009-.051-.051,0a1.519,1.519,0,0,1-.745.542c-.152,0-.169-.228-.008-.77l.982-3.037c.093-.3-.043-.44-.347-.355l-.982.288s-.017.059.008.068a1.244,1.244,0,0,1,.279-.051c.177,0,.313.118.135.7l-.8,2.513a1.808,1.808,0,0,1-1.294.651c-1.278,0-.669-1.616-.4-2.5Zm6.524,3.164c-.161.516.051.838.414.838a1.364,1.364,0,0,0,.914-.5v-.059s0-.051-.051,0c-.55.533-.846.559-.542-.431l.186-.592a5.026,5.026,0,0,0,.389-2.031,1.732,1.732,0,0,1,1.27-.533c1.277,0,.626,1.616.355,2.5l-.262.813c-.161.516.051.837.414.837a1.364,1.364,0,0,0,.914-.5v-.059s0-.051-.051,0c-.55.533-.846.559-.541-.431l.186-.592c.389-1.219.947-2.784-.745-2.784a2.314,2.314,0,0,0-1.565.651c-.1-.39-.424-.651-1.117-.651a2.029,2.029,0,0,0-1.439.719l.118-.355c.093-.3-.043-.44-.339-.355l-.981.288s-.026.059,0,.068a1.336,1.336,0,0,1,.279-.051c.178,0,.322.118.136.7l-.8,2.513c-.161.516.051.837.414.837a1.7,1.7,0,0,0,1.117-.677v-.059s-.008-.051-.051,0a1.517,1.517,0,0,1-.744.542c-.144,0-.169-.22-.017-.745l.8-2.513a1.7,1.7,0,0,1,1.243-.694c1.278,0,.626,1.616.355,2.5l-.262.813Zm4.713.787.837-.56c.136.406.5.687,1.235.687a2.937,2.937,0,0,0,2.64-2.229c.347-1.112.135-2.23-1.219-2.23a2.212,2.212,0,0,0-1.7.865l.559-1.75c.389-1.131,1.049-1.823,1.667-1.823a1.031,1.031,0,0,1,.838.523.3.3,0,0,0,.254.151c.406,0,.787-.911-.517-.911-.99,0-2.428.481-3.249,3.038l-.956,3h.008l-.4,1.238Zm2.183,0c-.837,0-1.066-.942-.88-1.925l.288-.908a1.9,1.9,0,0,1,1.557-1.3c1.675,0,.736,4.129-.965,4.129Zm4.78-3.951c.094-.3-.042-.44-.347-.355l-.981.288s-.017.059.008.068a1.167,1.167,0,0,1,.271-.051c.178,0,.322.119.153.677l-.2.626c-.389,1.219-.957,2.784.922,2.784a2.123,2.123,0,0,0,1.4-.685c-.068.406.135.652.457.652a1.7,1.7,0,0,0,1.117-.677v-.059s-.008-.051-.051,0a1.518,1.518,0,0,1-.745.542c-.152,0-.169-.228-.008-.77l.982-3.037c.093-.3-.042-.44-.347-.355l-.982.288s-.017.059.008.068a1.249,1.249,0,0,1,.279-.051c.178,0,.313.118.135.7l-.8,2.513a1.808,1.808,0,0,1-1.294.651c-1.278,0-.669-1.616-.4-2.5Zm3.563,3.164c-.169.516.043.838.415.838a1.737,1.737,0,0,0,1.117-.677l-.008-.059s0-.051-.042,0a1.563,1.563,0,0,1-.752.542c-.153,0-.169-.246.017-.847l.762-2.395a1.915,1.915,0,0,1,1.362-.711c1.278,0,.677,1.616.406,2.5l-.262.813c-.161.516.05.837.415.837a1.7,1.7,0,0,0,1.117-.677v-.059s-.009-.051-.051,0a1.516,1.516,0,0,1-.745.542c-.152,0-.177-.237,0-.8l.186-.592c.389-1.219.947-2.784-.922-2.784a2.132,2.132,0,0,0-1.439.736l.49-1.54c.381-1.193,1.058-1.921,1.692-1.921a1.02,1.02,0,0,1,.837.525.3.3,0,0,0,.254.153c.406,0,.795-.914-.508-.914-.99,0-2.436.482-3.249,3.046l-1.092,3.444Zm5.254,0c-.169.516.042.838.415.838a1.737,1.737,0,0,0,1.117-.677l-.008-.059s0-.051-.043,0a1.561,1.561,0,0,1-.752.542c-.153,0-.169-.246.017-.847l.237-.736,1.058-.72c.837.153-.6,2.53,1.185,2.53a1.463,1.463,0,0,0,1-.711l-.008-.143s-.025-.017-.042.033a1.106,1.106,0,0,1-.694.618c-.964,0,.33-2.124-1.285-2.437l1.65-1.126c.592-.406.355-.778-.085-.778a1.141,1.141,0,0,0-.812.389v.059s0,.033.051,0a.653.653,0,0,1,.347-.144c.3,0,.195.525-.694,1.143l-1.616,1.125,1.031-3.232c.381-1.193,1.058-1.921,1.693-1.921a1.031,1.031,0,0,1,.837.525.3.3,0,0,0,.254.153c.406,0,.8-.914-.508-.914-.99,0-2.437.482-3.249,3.046l-1.092,3.444Zm9.579-3.537a.127.127,0,0,0-.127.085.9.9,0,0,1-.694.465c-.161-.339-.525-.559-1.185-.559a2.934,2.934,0,0,0-2.632,2.23c-.355,1.111-.144,2.229,1.219,2.229a2.18,2.18,0,0,0,1.557-.7c-.051.389.144.626.465.626a1.737,1.737,0,0,0,1.117-.677v-.061s-.008-.051-.051,0a1.559,1.559,0,0,1-.753.543c-.144,0-.169-.22-.008-.746l1.092-3.434Zm-2.115.119c.685,0,.964.628.948,1.39l-.609,1.908a1.635,1.635,0,0,1-1.3.823C2461.19,1751.894,2462.138,1747.773,2463.83,1747.773Zm2.64,3.419c-.161.516.051.838.414.838a1.7,1.7,0,0,0,1.117-.677v-.059s-.008-.051-.051,0a1.518,1.518,0,0,1-.744.542c-.144,0-.169-.22-.017-.745l.8-2.5a1.88,1.88,0,0,1,1.354-.7c1.278,0,.668,1.616.4,2.5l-.254.813c-.169.516.042.837.415.837a1.735,1.735,0,0,0,1.117-.677v-.059s-.008-.051-.05,0a1.566,1.566,0,0,1-.753.542c-.145,0-.169-.22-.017-.736l.211-.651c.39-1.219.948-2.784-.922-2.784a2.13,2.13,0,0,0-1.43.719l.119-.355c.093-.3-.043-.44-.339-.355l-.981.288s-.026.059,0,.068a1.333,1.333,0,0,1,.279-.051c.177,0,.322.118.136.7l-.8,2.513Zm3.951,1.675h.118l1.743-1.574h-.677l-1.185,1.574Zm9.553-6.811h-.135l-3.808,4.772c-.787.982-1.15,1.033-1.311,1.083-.026.008-.042.068-.042.068h1.658s.017-.059-.008-.068c-.127-.051-.837-.237-.161-1.083l.863-1.074h2.818l.177,1.074c.186,1.168-.27,1.033-.423,1.083-.034.008-.051.068-.051.068h1.827s.008-.059-.008-.068c-.127-.051-.44.043-.626-1.083Zm-2.834,3.563,2.242-2.809.449,2.809h-2.691Zm7.759,1.574c-.161.516.051.837.415.837a1.363,1.363,0,0,0,.913-.5v-.059s0-.051-.051,0c-.55.533-.846.559-.541-.431l.186-.592a5.035,5.035,0,0,0,.389-2.031,1.731,1.731,0,0,1,1.27-.533c1.277,0,.626,1.616.355,2.5l-.262.812c-.161.516.051.838.415.838a1.364,1.364,0,0,0,.914-.5v-.059s0-.051-.051,0c-.55.533-.846.559-.542-.431l.186-.592c.389-1.219.948-2.784-.745-2.784a2.315,2.315,0,0,0-1.565.651c-.1-.389-.423-.651-1.117-.651a2.029,2.029,0,0,0-1.439.719l.118-.355c.094-.3-.042-.44-.339-.355l-.981.288s-.025.059,0,.068a1.339,1.339,0,0,1,.279-.051c.177,0,.322.119.136.7l-.8,2.513c-.161.516.051.838.415.838a1.7,1.7,0,0,0,1.117-.677v-.059s-.008-.051-.051,0a1.517,1.517,0,0,1-.744.542c-.144,0-.169-.22-.017-.745l.8-2.513a1.7,1.7,0,0,1,1.244-.694c1.278,0,.626,1.616.355,2.5l-.262.813Zm9.578-3.537a.126.126,0,0,0-.127.085.9.9,0,0,1-.694.465c-.161-.339-.525-.559-1.185-.559a2.934,2.934,0,0,0-2.632,2.23c-.355,1.111-.144,2.229,1.219,2.229a2.178,2.178,0,0,0,1.556-.7c-.051.39.144.626.465.626a1.737,1.737,0,0,0,1.117-.677v-.061s-.008-.051-.051,0a1.558,1.558,0,0,1-.753.543c-.143,0-.169-.22-.008-.746Zm-2.115.118c.685,0,.964.628.948,1.391l-.609,1.908a1.636,1.636,0,0,1-1.3.823c-1.683,0-.736-4.121.957-4.121Zm2.64,3.419c-.161.516.051.837.415.837a1.7,1.7,0,0,0,1.117-.677v-.059s-.008-.051-.051,0a1.515,1.515,0,0,1-.744.542c-.144,0-.169-.22-.017-.745l.8-2.5a1.878,1.878,0,0,1,1.354-.7c1.278,0,.668,1.616.4,2.5l-.254.813c-.169.516.042.837.414.837a1.735,1.735,0,0,0,1.117-.677v-.059s-.009-.051-.05,0a1.566,1.566,0,0,1-.753.542c-.144,0-.169-.22-.017-.736l.211-.651c.389-1.219.948-2.784-.922-2.784a2.129,2.129,0,0,0-1.43.719l.118-.355c.093-.3-.043-.44-.339-.355l-.981.288s-.026.059,0,.068a1.336,1.336,0,0,1,.279-.051c.178,0,.322.119.136.7l-.8,2.513Zm9.917-3.537a.126.126,0,0,0-.127.085.9.9,0,0,1-.694.465c-.161-.339-.525-.559-1.185-.559a2.933,2.933,0,0,0-2.632,2.23c-.355,1.111-.144,2.229,1.219,2.229a2.178,2.178,0,0,0,1.556-.7c-.051.39.144.626.465.626a1.736,1.736,0,0,0,1.117-.677v-.061s-.008-.051-.051,0a1.556,1.556,0,0,1-.753.543c-.143,0-.169-.22-.009-.746l1.092-3.434Zm-2.115.118c.685,0,.965.628.948,1.391l-.609,1.908a1.635,1.635,0,0,1-1.295.823c-1.684,0-.736-4.121.956-4.121Zm2.639,3.419c-.169.516.042.837.414.837a1.736,1.736,0,0,0,1.117-.677l-.008-.059s0-.051-.043,0a1.562,1.562,0,0,1-.752.542c-.153,0-.169-.246.017-.847l.761-2.395a1.914,1.914,0,0,1,1.362-.711c1.278,0,.677,1.616.406,2.5l-.262.812c-.161.516.05.838.415.838a1.7,1.7,0,0,0,1.117-.677v-.059s-.009-.051-.051,0a1.517,1.517,0,0,1-.745.542c-.153,0-.178-.237,0-.8l.186-.592c.389-1.219.948-2.784-.922-2.784a2.132,2.132,0,0,0-1.439.736l.49-1.54c.381-1.193,1.058-1.921,1.693-1.921a1.021,1.021,0,0,1,.837.525.3.3,0,0,0,.254.153c.406,0,.8-.914-.508-.914-.99,0-2.437.482-3.249,3.046l-1.092,3.444Zm10.711,1.988c1.345-.838,1.38-1.7,1-2.572.61-.61,1.125-1.312,1.05-1.87a.224.224,0,0,0-.237-.212.564.564,0,0,0-.516.584c.026.465.279.592-.355,1.38-.364-.762-1.007-1.523-1.336-2.276.795-.39,1.54-.668,1.743-1.311.212-.66-.229-.982-.8-.982a1.728,1.728,0,0,0-1.625,1.142,2.005,2.005,0,0,0,.143,1.278c-1,.541-2.1,1.092-2.411,2.15-.33,1.091.516,1.641,1.523,1.641a3.31,3.31,0,0,0,2.1-.83,1.949,1.949,0,0,1-.3,1.828l.017.05Zm-.457-5.1a1.7,1.7,0,0,1-.076-1.219,1.179,1.179,0,0,1,.99-.812c.3,0,.516.245.33.813A2.454,2.454,0,0,1,2515.7,1748.078Zm.711,3.1a3.247,3.247,0,0,1-2.031.83c-.7,0-1.074-.669-.787-1.566a3.381,3.381,0,0,1,1.675-1.972c.33.838.888,1.8,1.143,2.707Zm7.666-1.4a2.906,2.906,0,0,0,2.834-1.87c.3-.931-.153-1.862-1.65-1.862h-1.844l-1.54,4.823c-.338,1.033-.795.982-.956,1.033-.034.008-.051.068-.051.068h2.048s.017-.059-.008-.068c-.127-.051-.626,0-.279-1.083l.33-1.04h1.117Zm-1.32-3.732s-.017.059.008.068c.127.051.626,0,.279,1.083l.373-1.151h-.66Zm2.225.136c2.242,0,1.143,3.46-1.1,3.46H2523l.787-2.479c.364-1.117.542-.964.711-.981h.482Zm2.031,5c-.161.516.051.838.415.838a1.7,1.7,0,0,0,1.117-.677v-.059s-.009-.051-.051,0a1.518,1.518,0,0,1-.744.542c-.144,0-.169-.22-.017-.745l.677-2.124c.49-.567.846-.72,1.15-.72a1.693,1.693,0,0,1,.508.1c.44.136.846-.6.474-.753a.641.641,0,0,0-.22-.042,3.021,3.021,0,0,0-1.844,1.21l.245-.736c.094-.3-.043-.44-.339-.355l-.981.288s-.025.059,0,.068a1.336,1.336,0,0,1,.279-.051c.177,0,.322.119.136.7l-.8,2.513Zm3.436-1.316c-.364,1.145-.026,2.229,1.4,2.229a3.055,3.055,0,0,0,2.809-2.229c.364-1.145.025-2.23-1.4-2.23A3.057,3.057,0,0,0,2530.444,1749.875Zm2.411-2.052c1.811,0,1.227,4.1-.6,4.1S2531.028,1747.823,2532.856,1747.823Zm5.517-2.149c-.914,0-1.447.837-1.726,1.726l-.11.347h-.643l-.042.135h.643l-1.421,4.485c-.38,1.193-1.066,1.92-1.7,1.92a1.032,1.032,0,0,1-.838-.525.3.3,0,0,0-.254-.152c-.406,0-.787.914.516.914.99,0,2.429-.482,3.241-3.046l1.142-3.6h1.185l.042-.135h-1.185l.084-.271c.076-.245.4-1.658,1.024-1.658.693,0,.287.5.491.871a.344.344,0,0,0,.3.177.323.323,0,0,0,.313-.389.97.97,0,0,0-1.058-.8Zm-.076,4.2c-.364,1.142-.026,2.225,1.4,2.225a2.266,2.266,0,0,0,2.081-1.26l-.093-.059a2,2,0,0,1-1.582,1.134c-.736,0-1.083-.66-1.109-1.456,3.477-.55,3.731-2.784,1.929-2.784a2.92,2.92,0,0,0-2.632,2.2Zm.7.474c0-1.159.652-2.521,1.7-2.521C2542.24,1747.832,2540.953,1750.184,2539,1750.353Zm3.833.7a.352.352,0,0,0-.313-.186.359.359,0,0,0-.38.431,1.319,1.319,0,0,0,1.4.771,2.227,2.227,0,0,0,2.26-1.27c.516-1.616-2.784-.939-2.352-2.217.2-.6.99-.753,1.4-.753.889,0,.576.483.771.855a.369.369,0,0,0,.33.195.362.362,0,0,0,.364-.457,1.2,1.2,0,0,0-1.244-.762,2.1,2.1,0,0,0-2.107,1.193c-.541,1.718,2.666,1.15,2.335,2.2a1.572,1.572,0,0,1-1.591.871c-.668,0-.66-.5-.863-.871Zm5.238-4.535c-.11.355.093.541.347.541a.758.758,0,0,0,.694-.541c.118-.355-.085-.533-.347-.533A.756.756,0,0,0,2548.07,1746.52Zm.423,1.506c.093-.3-.043-.44-.339-.355l-.981.288s-.026.059,0,.068a1.239,1.239,0,0,1,.279-.051c.169,0,.314.11.153.652l-.821,2.564c-.161.516.051.837.414.837a1.7,1.7,0,0,0,1.117-.677v-.059s-.008-.051-.051,0a1.515,1.515,0,0,1-.744.542c-.144,0-.169-.22-.017-.745l.635-1.988Zm.618,1.849c-.364,1.145-.026,2.229,1.4,2.229a3.055,3.055,0,0,0,2.809-2.229c.364-1.145.025-2.23-1.4-2.23A3.057,3.057,0,0,0,2549.111,1749.875Zm2.411-2.052c1.811,0,1.227,4.1-.6,4.1S2549.695,1747.823,2551.522,1747.823Zm2.5,3.368c-.161.516.051.838.415.838a1.7,1.7,0,0,0,1.117-.677v-.059s-.008-.051-.051,0a1.515,1.515,0,0,1-.744.542c-.144,0-.169-.22-.017-.745l.8-2.5a1.878,1.878,0,0,1,1.354-.7c1.278,0,.668,1.616.4,2.5l-.254.812c-.169.516.042.838.414.838a1.735,1.735,0,0,0,1.117-.677v-.059s-.008-.051-.05,0a1.567,1.567,0,0,1-.753.542c-.144,0-.169-.22-.017-.736l.211-.651c.389-1.219.948-2.784-.922-2.784a2.128,2.128,0,0,0-1.43.719l.118-.355c.093-.3-.043-.44-.339-.355l-.981.288s-.026.059,0,.068a1.336,1.336,0,0,1,.279-.051c.178,0,.322.118.136.7l-.8,2.513Zm9.917-3.537a.127.127,0,0,0-.127.085.9.9,0,0,1-.694.465c-.161-.339-.525-.559-1.185-.559a2.933,2.933,0,0,0-2.632,2.23c-.355,1.111-.144,2.229,1.219,2.229a2.178,2.178,0,0,0,1.556-.7c-.051.389.144.626.465.626a1.736,1.736,0,0,0,1.117-.677v-.061s-.008-.051-.051,0a1.559,1.559,0,0,1-.753.543c-.143,0-.169-.22-.008-.746l1.092-3.434Zm-2.115.119c.685,0,.965.628.948,1.39l-.609,1.908a1.635,1.635,0,0,1-1.295.823C2559.188,1751.894,2560.136,1747.773,2561.828,1747.773Zm2.639,3.419c-.169.516.042.838.414.838a1.7,1.7,0,0,0,1.108-.677v-.059s-.008-.051-.051,0a1.516,1.516,0,0,1-.744.542c-.153,0-.169-.246.017-.846l1.32-4.129c.381-1.193,1.058-1.921,1.692-1.921a1.031,1.031,0,0,1,.837.525.3.3,0,0,0,.254.153c.406,0,.787-.914-.517-.914-.99,0-2.428.482-3.24,3.046l-1.092,3.444Z" transform="translate(-2409.119 -1705.427)" fill="#332c2b"/>
    </g>
    <g id="Group_4" data-name="Group 4">
      <g id="Group_2" data-name="Group 2" transform="translate(8.677 12.121)">
        <path id="Path_4" data-name="Path 4" d="M421.876,632.682l-12.658-3.372a24.423,24.423,0,0,0-2.868,3.961H421.8a2.341,2.341,0,0,1,.077-.59Z" transform="translate(-402.653 -622.268)" fill="#cfe17c" fill-rule="evenodd"/>
        <path id="Path_5" data-name="Path 5" d="M602.76,472l9.8,5.647a2.347,2.347,0,0,1,.417-.509l-7.111-7.1A21.055,21.055,0,0,0,602.76,472Z" transform="translate(-593.082 -467.838)" fill="#cfe17c" fill-rule="evenodd"/>
        <path id="Path_6" data-name="Path 6" d="M804.23,406.172l4.619,8a2.314,2.314,0,0,1,.6-.205l-2.273-8.494A19.166,19.166,0,0,0,804.23,406.172Z" transform="translate(-788.417 -405.244)" fill="#cfe17c" fill-rule="evenodd"/>
        <path id="Path_7" data-name="Path 7" d="M1002.109,398.266l-2.266,8.466a2.45,2.45,0,0,0-.6-.1v-8.6A19.045,19.045,0,0,1,1002.109,398.266Z" transform="translate(-977.489 -398.04)" fill="#cfe17c" fill-rule="evenodd"/>
        <path id="Path_8" data-name="Path 8" d="M1038.66,436.5l4.619-8q.82.264,1.62.6c.481.2.95.425,1.407.66l-7.112,7.1A2.343,2.343,0,0,0,1038.66,436.5Z" transform="translate(-1015.708 -427.572)" fill="#cfe17c" fill-rule="evenodd"/>
        <path id="Path_9" data-name="Path 9" d="M1069.86,540.2l9.8-5.648a22.214,22.214,0,0,1,3.113,2.885l-12.659,3.372A2.313,2.313,0,0,0,1069.86,540.2Z" transform="translate(-1045.958 -530.393)" fill="#cfe17c" fill-rule="evenodd"/>
        <path id="Path_10" data-name="Path 10" d="M678.37,873.239l9.04-33.779a2.468,2.468,0,0,0,.612.085v32.019c-.2.068-.4.147-.608.238l-1.3.172a25.7,25.7,0,0,0-3.041,1.044l-.027.007-.027.008a12.443,12.443,0,0,1-2.623.6,3.3,3.3,0,0,1-1.345-.14C678.823,873.412,678.595,873.328,678.37,873.239Z" transform="translate(-666.39 -826.018)" fill="#cfe17c" fill-rule="evenodd"/>
        <path id="Path_11" data-name="Path 11" d="M330.5,819.034,314.7,846.4a26.657,26.657,0,0,1-3.832-8.659l19.109-19.086a2.333,2.333,0,0,0,.292.229,2.5,2.5,0,0,0,.234.155Z" transform="translate(-310.081 -805.842)" fill="#cfe17c" fill-rule="evenodd"/>
        <path id="Path_12" data-name="Path 12" d="M304.432,782.5,284.95,793.721a28.6,28.6,0,0,1,1.285-7.053l17.938-4.778A2.316,2.316,0,0,0,304.432,782.5Z" transform="translate(-284.95 -770.201)" fill="#cfe17c" fill-rule="evenodd"/>
        <path id="Path_13" data-name="Path 13" d="M1078.34,763.12l17.938,4.778a27.077,27.077,0,0,0-2.355-5.368h-15.506a2.334,2.334,0,0,1-.077.59Z" transform="translate(-1054.18 -751.431)" fill="#cfe17c" fill-rule="evenodd"/>
        <path id="Path_14" data-name="Path 14" d="M1076.068,813.151l-19.482-11.221a2.339,2.339,0,0,1-.417.509l19.107,19.085a28.653,28.653,0,0,0,.833-6.849q0-.761-.042-1.524Z" transform="translate(-1032.685 -789.631)" fill="#cfe17c" fill-rule="evenodd"/>
        <path id="Path_15" data-name="Path 15" d="M1035.613,858.166,1019.8,830.79c-.037.019-.075.037-.113.053a2.472,2.472,0,0,1-.48.2l9.062,33.861c.085.006.169.012.253.015l.568-.364A22.833,22.833,0,0,0,1035.613,858.166Z" transform="translate(-996.851 -817.612)" fill="#cfe17c" fill-rule="evenodd"/>
      </g>
      <path id="Path_16" data-name="Path 16" d="M141.625,280.365a4.316,4.316,0,0,1-1.783-.2,12.323,12.323,0,0,1-2.453-1.119l-.006,0c-6.565-4.58-10.95-12.85-10.95-22.294,0-14.409,10.2-26.087,22.783-26.087S172,242.342,172,256.751c0,9.784-4.705,18.312-11.664,22.774l0,.006a2.054,2.054,0,0,1-1.111.523,9.779,9.779,0,0,1-2.755-.5c-2.7-.866-4.724-2.414-7.681-1.016a3.79,3.79,0,0,0-1.671,1.655,2.167,2.167,0,0,1-1.04.917c-.379.151-.8.142-1.123.459.657,1.5,2.176,1.968,3.725.465,2.723-2.643,6.522,1.843,8.894,4.575.887,1.023,2.444.962,3.651.713a8.733,8.733,0,0,0,1.286-.454,10.279,10.279,0,0,0,2.228-1.774c7.271-6.028,11.11-22.019,11.11-28.343,0-16.845-11.926-30.5-26.636-30.5s-26.637,13.655-26.637,30.5c0,11.32,5.176,23.945,13.176,29.208.1.056.3-.021.561-.167-.257.147-.467.227-.565.175a12.693,12.693,0,0,0,3.18,1.171,4.146,4.146,0,0,0,2.412.417c.7-.14,1.5-.363,3.223-2.031a1.432,1.432,0,0,1,2.491.46c1.257-.13,1.473-.331,2.158.792,1.939.024,1-.325,2.233.79.6.118,1.386-.278,1.964.567.565.826-.291.2,1.11,1.8.538.61,2.451,3.572,2.854.528a20.584,20.584,0,0,1-3.066-3.661c.7.179,3.013,2.947,3.19,3.4a1.269,1.269,0,0,0,1.381-.177c.3-1.115-.484-1.643-1.024-2.243-1.59-1.773-5.064-6.227-7.616-5.931-1,.118-1.237.948-2.008,1.374-1.774.974-4.172-.382-3.839-2.256,1.274-.652,1.415-.325,1.81-.678a10.2,10.2,0,0,0,1.19-1.585c-.973.129-1.778.731-2.913,1.018a13.48,13.48,0,0,1-2.855.644Z" transform="translate(-118.847 -219.36)" fill-rule="evenodd" fill="url(#linear-gradient-2)"/>
      <path id="Path_17" data-name="Path 17" d="M25.765,453.1c-.36.4-.608.682-.993,1.063-.407.4-2.193,1.961-.761,2.5.775.291,1.12-.36,1.455-.7,1.19-1.219,2.553-2.1,1.995-3.249a1.087,1.087,0,0,0-.268-.249,1.417,1.417,0,0,0-.757.037,1.746,1.746,0,0,0-.291.234l-.34.323,0,0,0,0-.034.039ZM17.291,402.91a26.1,26.1,0,0,1,25.624-.441,19.988,19.988,0,0,0-25.624.441Zm31.629,46.62c7.585-6.18,12.061-13.548,12.061-24.128A30.424,30.424,0,0,0,50.028,402a34.293,34.293,0,0,1,7.586,21.522c0,7.142-3.533,19.295-8.694,26.012ZM10.158,402.685a30.488,30.488,0,0,0,3.228,47.959c-6.8-6.666-10.261-18.124-10.261-27.126A34.4,34.4,0,0,1,10.158,402.685Zm19.663,52.436c-.458.475-2.123,2.083-2.366,2.494-.415.7-.092,1.492.687,1.452.595-.03.982-.722,1.375-1.091l2.366-2.441a1.4,1.4,0,0,0,.075-.979c-.147-.152-.291-.311-.433-.441-.1,0-.207,0-.319,0a3.4,3.4,0,0,0-1.385,1ZM25.992,458.2c.524-.023,3.718-3.475,3.72-3.476a1.022,1.022,0,0,0,.107-.911,2.114,2.114,0,0,0-.328-.435.811.811,0,0,0-.4-.134h0a3.169,3.169,0,0,0-.323.045c-.449.158-.781.674-1.055.962-.463.483-2.143,2.022-2.409,2.449-.426.685-.106,1.536.691,1.5Zm6.194-2.386a27.975,27.975,0,0,0-2.231,2.33c-.408.622-.2,1.4.543,1.47.672.066.959-.494,1.313-.881l2.249-2.284a1.24,1.24,0,0,0,.04-1.152l-.037-.053a.726.726,0,0,0-.624-.3,2.439,2.439,0,0,0-1.253.872Zm1.282,2.266c-.393.138-.411.22-.752.558s-.441.287-.407.812c.505.283.308.263.967.191l.15-.131.07-.049c.192-.125.022-.047.182-.061.135-.819.2-.779-.211-1.319Zm.289-.438c.191.246.239.4.488.7.185.215.272.363.461.577a.854.854,0,0,0,1.566-.554c-.408-.429-.764-.931-1.055-1.261-.155-.176-.329-.359-.488-.553A6.825,6.825,0,0,0,33.758,457.641Z" transform="translate(0 -385.919)" fill-rule="evenodd" fill="url(#linear-gradient-3)"/>
      <path id="Path_18" data-name="Path 18" d="M1411.456,142.46l.62,1.919,2.017,0-1.634,1.182.627,1.917-1.63-1.189-1.63,1.189.627-1.917-1.634-1.182,2.017,0Z" transform="translate(-1365.919 -138.122)" fill="#e62129" fill-rule="evenodd"/>
      <path id="Path_19" data-name="Path 19" d="M1651.575,370.64l.424,1.314,1.381,0-1.119.809.429,1.313-1.116-.814-1.115.814.429-1.313-1.119-.809,1.381,0Z" transform="translate(-1599.532 -359.353)" fill="#e62129" fill-rule="evenodd"/>
      <g id="Group_3" data-name="Group 3" transform="translate(21.417)">
        <path id="Path_20" data-name="Path 20" d="M1086.732,0l.743,2.3,2.418,0-1.959,1.418.752,2.3-1.954-1.425-1.954,1.425.752-2.3L1083.57,2.3l2.419,0Z" transform="translate(-1071.991)" fill-rule="evenodd" fill="url(#linear-gradient-4)"/>
        <path id="Path_21" data-name="Path 21" d="M706.482,0l-.743,2.3-2.419,0,1.96,1.418-.752,2.3,1.954-1.425,1.954,1.425-.752-2.3L709.643,2.3l-2.418,0Z" transform="translate(-703.32)" fill-rule="evenodd" fill="url(#linear-gradient-5)"/>
      </g>
      <path id="Path_22" data-name="Path 22" d="M429.236,142.46l-.62,1.919-2.017,0,1.634,1.182-.627,1.917,1.63-1.189,1.629,1.189-.627-1.917,1.634-1.182-2.017,0Z" transform="translate(-413.609 -138.122)" fill="#e62129" fill-rule="evenodd"/>
      <path id="Path_23" data-name="Path 23" d="M253.815,370.64l-.424,1.314-1.381,0,1.119.81-.429,1.312,1.115-.814,1.116.814-.429-1.312,1.119-.81-1.381,0Z" transform="translate(-244.336 -359.353)" fill="#e62129" fill-rule="evenodd"/>
    </g>
  </g>
</svg>
