<svg xmlns="http://www.w3.org/2000/svg" width="148.025" height="165.503" viewBox="0 0 148.025 165.503">
  <g id="Layer_x0020_1" transform="translate(-65.475 -47.145)">
    <g id="_2701365298592" transform="translate(65.475 47.145)">
      <g id="Group_16549" data-name="Group 16549">
        <path id="Path_1536" data-name="Path 1536" d="M177.228,87.293a11.629,11.629,0,0,0-8.886-7.973A16.529,16.529,0,0,0,150.7,84.47L131.372,110a16.555,16.555,0,0,0-15.215-10.8h-9.485c0-1.08,0-2.362,0-3.834.015-1.532.059-3.186.059-4.743a190.737,190.737,0,0,0-1.218-21.46c2.789-6.53,9.682-25.982-1.576-37.244-10.423-11.793-47.815-14.68-59.961-24A3.149,3.149,0,0,0,41.86,7.09a3.059,3.059,0,0,0-3.054,2.872c-1.193,26.021,4.915,44.579,18.146,55.16C70.3,75.6,86.778,75.987,99.99,73.547c.579,6.864.579,18.161.6,25.653H71.5a34.69,34.69,0,0,0-29.477,17.007l-11.95,19.388a3.039,3.039,0,0,0,5.175,3.186L47.2,119.393a28.682,28.682,0,0,1,24.3-14.12h44.648a11.028,11.028,0,0,1,10.438,11.012q0,.258-.015.516c0,.1.01.2.01.3a5.407,5.407,0,0,1-5.047,5.4H82.963a3.039,3.039,0,0,0,0,6.078h38.565a11.337,11.337,0,0,0,10.948-9.991L155.42,88.28A10.408,10.408,0,0,1,166.5,85.114l1.571.5a5.061,5.061,0,0,1,2.278,8.12l-36.984,48a23.885,23.885,0,0,1-13.443,8.1l-39.542,4.88a35.139,35.139,0,0,0-10.57,4.34l-13.7,7.87a3.058,3.058,0,0,0,1.517,5.675h0a3,3,0,0,0,1.507-.4l13.875-7.978a23.627,23.627,0,0,1,8.341-3.51l39.542-4.88a30.152,30.152,0,0,0,17.218-10.3l36.984-48a11.081,11.081,0,0,0,2.126-10.237Zm-75.22-26.345A54.63,54.63,0,0,0,81.982,43.377a3.116,3.116,0,0,0-1.493-.388,3.042,3.042,0,0,0-1.527,5.671c12.3,7.026,17.572,13.732,19.683,18.946-6.378,1.2-24.617,3.407-37.927-7.256-10.7-8.577-16.064-23.576-15.976-44.633,13.482,7.011,44.712,10.565,54.885,20.507,6.412,6.412,4.644,17.336,2.386,24.725h0Z" transform="translate(-29.65 -7.09)" fill="#009b4c"/>
        <path id="Path_1537" data-name="Path 1537" d="M199.64,95.846c11.695-.982,30.562-7.821,29-42.939a3.04,3.04,0,0,0-5.165-2.028c-3.029,2.921-14.788,5.415-21.141,7.3a3.038,3.038,0,0,0,.835,5.96,2.981,2.981,0,0,0,.835-.118,173.87,173.87,0,0,0,18.632-5.636c-.363,19.231-8.346,30.052-23.272,31.4a3.039,3.039,0,0,0,.28,6.058Z" transform="translate(-114.665 -28.938)" fill="#009b4c"/>
      </g>
    </g>
  </g>
</svg>
