<svg id="图层_x0020_1" xmlns="http://www.w3.org/2000/svg" width="54.746" height="54.746" viewBox="0 0 54.746 54.746">
  <circle id="Ellipse_15" data-name="Ellipse 15" cx="27.373" cy="27.373" r="27.373" transform="translate(0 0)" fill="#48b02c"/>
  <path id="Path_1540" data-name="Path 1540" d="M8.082,14.545l7.362-7.362.789.789c.03.034.062.067.094.1l9.3,9.3a2.752,2.752,0,0,0,3.871,0h0a2.761,2.761,0,0,0,0-3.871l-2.726-2.726q-.045-.05-.093-.1L17.445,1.442l-.064-.067h0A2.683,2.683,0,0,0,16.6.834h0L16.54.807h0l-.011,0c-.037-.016-.075-.031-.113-.045h0a2.751,2.751,0,0,0-2.908.619h0l-.03.031L10.749,4.136l-.073.07-9.3,9.3a2.752,2.752,0,0,0,0,3.871h0a2.743,2.743,0,0,0,3.871,0l2.764-2.764.07-.068Zm0,12.128,7.362-7.362.789.789c.03.034.062.067.094.1l9.3,9.3a2.752,2.752,0,0,0,3.871,0h0a2.761,2.761,0,0,0,0-3.871L26.771,22.9q-.045-.05-.093-.1l-9.233-9.233-.064-.067h0a2.677,2.677,0,0,0-.779-.541h0l-.061-.027h0l-.011,0c-.037-.016-.075-.031-.113-.045h0a2.751,2.751,0,0,0-2.908.619h0l-.03.031-2.729,2.729-.073.07-9.3,9.3a2.752,2.752,0,0,0,0,3.871h0a2.743,2.743,0,0,0,3.871,0l2.764-2.764.07-.068ZM16.529.8,16.416.757" transform="translate(11.938 11.931)" fill="#fff" fill-rule="evenodd"/>
</svg>
