<?xml version="1.0" encoding="UTF-8"?>
<!DOCTYPE svg PUBLIC "-//W3C//DTD SVG 1.1//EN" "http://www.w3.org/Graphics/SVG/1.1/DTD/svg11.dtd">
<!-- Creator: CorelDRAW -->
<svg xmlns="http://www.w3.org/2000/svg" xml:space="preserve" width="200.383mm" height="62.6343mm" version="1.1" style="shape-rendering:geometricPrecision; text-rendering:geometricPrecision; image-rendering:optimizeQuality; fill-rule:evenodd; clip-rule:evenodd"
viewBox="0 0 7750.01 2422.45"
 xmlns:xlink="http://www.w3.org/1999/xlink"
 xmlns:xodm="http://www.corel.com/coreldraw/odm/2003">
 <defs>
  <style type="text/css">
   <![CDATA[
    .fil6 {fill:#E62129}
    .fil3 {fill:#CFE17C}
    .fil2 {fill:#332C2B;fill-rule:nonzero}
    .fil1 {fill:#009B4C;fill-rule:nonzero}
    .fil7 {fill:url(#id0)}
    .fil4 {fill:url(#id1)}
    .fil5 {fill:url(#id2)}
    .fil8 {fill:url(#id3)}
    .fil0 {fill:url(#id4);fill-rule:nonzero}
   ]]>
  </style>
  <linearGradient id="id0" gradientUnits="userSpaceOnUse" x1="1024.35" y1="190.21" x2="1019.64" y2="-48.87">
   <stop offset="0" style="stop-opacity:1; stop-color:#E62129"/>
   <stop offset="0.65098" style="stop-opacity:1; stop-color:#F28815"/>
   <stop offset="1" style="stop-opacity:1; stop-color:#FFF000"/>
  </linearGradient>
  <linearGradient id="id1" gradientUnits="userSpaceOnUse" x1="973.36" y1="226.61" x2="1002" y2="3018.61">
   <stop offset="0" style="stop-opacity:1; stop-color:#009B4C"/>
   <stop offset="1" style="stop-opacity:1; stop-color:#63973D"/>
  </linearGradient>
  <linearGradient id="id2" gradientUnits="userSpaceOnUse" x1="1014.72" y1="399.59" x2="902.51" y2="2667.74">
   <stop offset="0" style="stop-opacity:1; stop-color:#6B9F3C"/>
   <stop offset="1" style="stop-opacity:1; stop-color:#CFE17C"/>
  </linearGradient>
  <linearGradient id="id3" gradientUnits="userSpaceOnUse" xlink:href="#id0" x1="1024.35" y1="190.21" x2="1019.64" y2="-48.87">
  </linearGradient>
  <linearGradient id="id4" gradientUnits="userSpaceOnUse" x1="4209.94" y1="898.72" x2="4209.35" y2="373.55">
   <stop offset="0" style="stop-opacity:1; stop-color:#E62129"/>
   <stop offset="0.329412" style="stop-opacity:1; stop-color:#E62129"/>
   <stop offset="0.529412" style="stop-opacity:1; stop-color:#E62129"/>
   <stop offset="1" style="stop-opacity:1; stop-color:#F8B739"/>
  </linearGradient>
 </defs>
 <g id="Layer_x0020_1">
  <metadata id="CorelCorpID_0Corel-Layer"/>
  <g id="_2338310672864">
   <g>
    <path class="fil0" d="M2516.75 647.96l17.21 0c15.92,0 27.38,-4.99 34.39,-14.97l104.47 -151.61c5.73,-8.29 12.33,-13.91 19.64,-16.87 7.33,-2.98 16.26,-4.46 26.87,-4.46l93.65 0 -137.6 187.8c-4.9,6.81 -10,12.43 -15.3,16.89 -5.31,4.46 -10.72,8.18 -16.24,11.25 8.08,2.98 15.5,7.02 22.2,12.22 6.68,5.2 12.72,12.22 18.24,20.91l140.15 215.32 -96.19 0c-6.17,0 -11.37,-0.42 -15.73,-1.27 -4.35,-0.84 -8.16,-2.13 -11.35,-3.83 -3.19,-1.69 -5.94,-3.83 -8.29,-6.26 -2.32,-2.45 -4.56,-5.22 -6.68,-8.39l-105.11 -161.48c-3.83,-5.96 -8.61,-10.21 -14.46,-12.64 -5.83,-2.45 -13.78,-3.61 -23.78,-3.61l-26.11 0 0 197.48 -107.66 0 0 -464.39 107.66 0 0 187.91zm605.82 -93.52c-3.19,5.1 -6.47,8.9 -9.98,11.46 -3.51,2.45 -8.08,3.72 -13.59,3.72 -4.88,0 -10.08,-1.5 -15.71,-4.57 -5.64,-3.09 -12.01,-6.59 -19.11,-10.4 -7.12,-3.83 -15.3,-7.23 -24.44,-10.31 -9.13,-3.07 -19.54,-4.67 -31.2,-4.67 -20.19,0 -35.15,4.35 -45.03,12.96 -9.87,8.61 -14.86,20.17 -14.86,34.84 0,9.34 2.98,17.08 8.92,23.36 5.94,6.15 13.8,11.46 23.46,15.92 9.66,4.46 20.7,8.5 33.13,12.2 12.43,3.72 25.05,7.87 38.01,12.43 12.96,4.57 25.68,9.98 38.11,16.15 12.43,6.15 23.47,14.02 33.13,23.57 9.66,9.56 17.42,21.23 23.36,34.92 5.94,13.7 8.92,30.25 8.92,49.57 0,21.46 -3.72,41.52 -11.14,60.21 -7.44,18.68 -18.16,35.05 -32.28,48.96 -14.12,13.91 -31.54,24.84 -52.24,32.81 -20.72,7.95 -44.29,11.99 -70.61,11.99 -14.44,0 -29.09,-1.48 -44.08,-4.35 -14.97,-2.96 -29.51,-7.1 -43.53,-12.41 -14.02,-5.33 -27.19,-11.69 -39.49,-19.02 -12.33,-7.31 -23.04,-15.5 -32.17,-24.42l31.86 -51.18c2.32,-3.81 5.62,-7 9.87,-9.34 4.25,-2.32 8.82,-3.49 13.7,-3.49 6.36,0 12.83,2.01 19.32,6.05 6.47,4.04 13.8,8.5 21.96,13.38 8.18,4.88 17.52,9.34 28.14,13.38 10.63,4.04 23.15,6.05 37.59,6.05 19.55,0 34.73,-4.35 45.56,-12.96 10.82,-8.61 16.24,-22.18 16.24,-40.86 0,-10.95 -2.96,-19.77 -8.9,-26.55 -5.96,-6.79 -13.7,-12.43 -23.36,-16.89 -9.66,-4.46 -20.72,-8.37 -33.02,-11.78 -12.32,-3.4 -24.97,-7.12 -37.9,-11.27 -12.96,-4.12 -25.6,-9.22 -37.9,-15.39 -12.33,-6.05 -23.25,-14.02 -32.91,-23.89 -9.66,-9.87 -17.52,-22.2 -23.46,-36.95 -5.96,-14.75 -8.92,-33.02 -8.92,-54.66 0,-17.42 3.49,-34.42 10.51,-50.97 7,-16.58 17.31,-31.44 30.91,-44.37 13.57,-12.96 30.25,-23.25 49.99,-31.01 19.74,-7.76 42.37,-11.67 67.84,-11.67 14.23,0 28.14,1.16 41.62,3.38 13.49,2.24 26.23,5.52 38.32,9.98 12.11,4.35 23.47,9.66 33.99,15.73 10.51,6.15 19.85,13.05 28.14,20.8l-26.76 49.59zm194.29 214.57l0 155.12 -107.66 0 0 -464.73 163.72 0c32.7,0 60.84,3.93 84.31,11.69 23.46,7.76 42.78,18.48 57.96,32.07 15.18,13.59 26.34,29.62 33.55,48.2 7.23,18.48 10.83,38.54 10.83,59.99 0,23.15 -3.7,44.48 -11.14,63.8 -7.44,19.43 -18.79,36 -34.08,49.81 -15.28,13.8 -34.63,24.63 -58.09,32.38 -23.46,7.74 -51.26,11.67 -83.33,11.67l-56.06 0zm0 -81.53l56.06 0c28.03,0 48.2,-6.7 60.52,-20.06 12.3,-13.38 18.48,-32.07 18.48,-56.06 0,-10.63 -1.61,-20.29 -4.78,-28.98 -3.19,-8.71 -7.97,-16.26 -14.46,-22.51 -6.47,-6.28 -14.65,-11.06 -24.52,-14.44 -9.87,-3.4 -21.65,-5.1 -35.24,-5.1l-56.06 0 0 147.15zm406.43 81.53l0 155.12 -107.66 0 0 -464.73 163.72 0c32.7,0 60.84,3.93 84.31,11.69 23.46,7.76 42.79,18.48 57.96,32.07 15.18,13.59 26.34,29.62 33.55,48.2 7.23,18.48 10.83,38.54 10.83,59.99 0,23.15 -3.7,44.48 -11.14,63.8 -7.44,19.43 -18.79,36 -34.08,49.81 -15.28,13.8 -34.62,24.63 -58.09,32.38 -23.46,7.74 -51.26,11.67 -83.33,11.67l-56.06 0zm0 -81.53l56.06 0c28.03,0 48.2,-6.7 60.52,-20.06 12.3,-13.38 18.48,-32.07 18.48,-56.06 0,-10.63 -1.61,-20.29 -4.78,-28.98 -3.19,-8.71 -7.97,-16.26 -14.46,-22.51 -6.47,-6.28 -14.65,-11.06 -24.52,-14.44 -9.87,-3.4 -21.65,-5.1 -35.24,-5.1l-56.06 0 0 147.15zm557.41 -133.03c-3.19,5.1 -6.47,8.9 -9.98,11.46 -3.51,2.45 -8.08,3.72 -13.59,3.72 -4.88,0 -10.09,-1.5 -15.71,-4.57 -5.65,-3.09 -12.01,-6.59 -19.11,-10.4 -7.12,-3.83 -15.31,-7.23 -24.44,-10.31 -9.13,-3.07 -19.53,-4.67 -31.2,-4.67 -20.19,0 -35.16,4.35 -45.03,12.96 -9.87,8.61 -14.86,20.17 -14.86,34.84 0,9.34 2.98,17.08 8.92,23.36 5.94,6.15 13.8,11.46 23.46,15.92 9.66,4.46 20.7,8.5 33.12,12.2 12.43,3.72 25.05,7.87 38.01,12.43 12.96,4.57 25.68,9.98 38.12,16.15 12.43,6.15 23.46,14.02 33.13,23.57 9.66,9.56 17.42,21.23 23.36,34.92 5.94,13.7 8.92,30.25 8.92,49.57 0,21.46 -3.72,41.52 -11.14,60.21 -7.44,18.68 -18.16,35.05 -32.28,48.96 -14.12,13.91 -31.54,24.84 -52.24,32.81 -20.71,7.95 -44.29,11.99 -70.61,11.99 -14.44,0 -29.08,-1.48 -44.08,-4.35 -14.96,-2.96 -29.51,-7.1 -43.53,-12.41 -14.02,-5.33 -27.19,-11.69 -39.49,-19.02 -12.32,-7.31 -23.04,-15.5 -32.17,-24.42l31.86 -51.18c2.32,-3.81 5.62,-7 9.87,-9.34 4.25,-2.32 8.81,-3.49 13.7,-3.49 6.36,0 12.83,2.01 19.32,6.05 6.47,4.04 13.8,8.5 21.96,13.38 8.18,4.88 17.52,9.34 28.14,13.38 10.63,4.04 23.15,6.05 37.59,6.05 19.55,0 34.73,-4.35 45.56,-12.96 10.83,-8.61 16.24,-22.18 16.24,-40.86 0,-10.95 -2.96,-19.77 -8.9,-26.55 -5.96,-6.79 -13.7,-12.43 -23.36,-16.89 -9.66,-4.46 -20.71,-8.37 -33.02,-11.78 -12.32,-3.4 -24.97,-7.12 -37.9,-11.27 -12.96,-4.12 -25.6,-9.22 -37.9,-15.39 -12.32,-6.05 -23.25,-14.02 -32.91,-23.89 -9.66,-9.87 -17.52,-22.2 -23.46,-36.95 -5.96,-14.75 -8.92,-33.02 -8.92,-54.66 0,-17.42 3.49,-34.42 10.51,-50.97 7,-16.58 17.31,-31.44 30.91,-44.37 13.57,-12.96 30.25,-23.25 49.99,-31.01 19.74,-7.76 42.37,-11.67 67.84,-11.67 14.23,0 28.14,1.16 41.62,3.38 13.49,2.24 26.23,5.52 38.33,9.98 12.11,4.35 23.46,9.66 33.99,15.73 10.5,6.15 19.85,13.05 28.14,20.8l-26.76 49.59zm209.58 370.01l0 -464.39 170.72 0c32.07,0 59.36,2.96 81.87,8.9 22.49,6.07 40.86,14.46 55.09,25.28 14.23,10.93 24.65,24.1 31.12,39.7 6.47,15.62 9.66,32.91 9.66,52.13 0,10.4 -1.48,20.51 -4.46,30.27 -2.98,9.66 -7.65,18.79 -14.02,27.27 -6.36,8.61 -14.55,16.36 -24.52,23.26 -9.98,6.91 -21.99,12.96 -36,18.05 30.59,7.44 53.19,19.43 67.86,36.11 14.65,16.55 21.96,37.9 21.96,63.9 0,19.77 -3.83,38.13 -11.46,55.01 -7.65,16.99 -18.79,31.75 -33.55,44.37 -14.75,12.53 -33.02,22.41 -54.69,29.53 -21.65,7.1 -46.4,10.61 -74.22,10.61l-185.37 0zm107.66 -196.85l0 115.32 75.81 0c14.23,0 25.9,-1.82 34.92,-5.41 9.03,-3.61 16.04,-8.28 21.14,-13.91 5.09,-5.75 8.6,-12.22 10.5,-19.43 1.9,-7.23 2.88,-14.57 2.88,-21.88 0,-8.5 -1.08,-16.15 -3.3,-22.94 -2.22,-6.78 -6.05,-12.53 -11.46,-17.1 -5.43,-4.67 -12.64,-8.27 -21.56,-10.83 -8.92,-2.54 -20.17,-3.83 -33.76,-3.83l-75.17 0zm0 -71.98l56.06 0c11.88,0 22.62,-0.85 32.17,-2.56 9.56,-1.69 17.72,-4.67 24.42,-8.9 6.68,-4.25 11.78,-10.1 15.28,-17.52 3.51,-7.44 5.2,-16.79 5.2,-28.03 0,-11.04 -1.38,-20.27 -4.15,-27.61 -2.75,-7.31 -7,-13.17 -12.72,-17.63 -5.75,-4.46 -12.96,-7.63 -21.77,-9.56 -8.81,-1.9 -19.32,-2.85 -31.43,-2.85l-63.06 0 0 114.66zm547.54 56.38c4.25,8.08 8.39,16.55 12.32,25.26 3.93,8.71 7.65,17.63 11.25,26.76 3.62,-9.34 7.44,-18.48 11.48,-27.29 4.04,-8.81 8.18,-17.4 12.41,-25.68l119.14 -235.07c2.12,-4.03 4.35,-7.12 6.57,-9.34 2.24,-2.22 4.67,-3.93 7.44,-4.99 2.75,-1.06 5.94,-1.59 9.45,-1.59 3.49,0 7.53,0 12.2,0l82.19 0 0 464.39 -94.91 0 0 -267.24c0,-12.94 0.63,-26.95 1.9,-42.05l-122.95 238.79c-3.83,7.44 -8.92,13.06 -15.39,16.89 -6.49,3.81 -13.91,5.73 -22.2,5.73l-14.65 0c-8.29,0 -15.6,-1.92 -22.09,-5.73 -6.47,-3.83 -11.67,-9.45 -15.49,-16.89l-123.58 -239.11c0.84,7.44 1.48,14.88 1.9,22.2 0.43,7.34 0.63,14.02 0.63,20.17l0 267.24 -94.91 0 0 -464.39 82.19 0c4.67,0 8.79,0 12.3,0 3.51,0 6.59,0.53 9.34,1.59 2.77,1.06 5.31,2.77 7.55,4.99 2.22,2.22 4.35,5.31 6.47,9.34l119.44 236.02zm697.9 -251.94l0 85.36 -130.6 0 0 379.03 -107.66 0 0 -379.03 -130.6 0 0 -85.36 368.86 0z"/>
    <path class="fil1" d="M2878.62 1573.79l-83.46 0c-9.34,0 -16.99,-2.24 -23.04,-6.57 -6.05,-4.35 -10.29,-9.89 -12.64,-16.68l-27.37 -80.9 -176.47 0 -27.39 80.9c-2.12,5.94 -6.26,11.25 -12.41,16.03 -6.17,4.78 -13.7,7.23 -22.62,7.23l-84.09 0 179.64 -464.39 110.22 0 179.64 464.39zm-298.15 -177.53l126.77 0 -42.68 -125.17c-2.75,-7.97 -5.94,-17.31 -9.66,-28.14 -3.72,-10.72 -7.42,-22.41 -11.04,-34.94 -3.4,12.75 -6.91,24.54 -10.5,35.47 -3.62,10.82 -7.02,20.27 -10.21,28.24l-42.68 124.53zm594.36 -192.16c-3.19,5.09 -6.47,8.9 -9.98,11.46 -3.51,2.45 -8.08,3.72 -13.59,3.72 -4.88,0 -10.08,-1.5 -15.71,-4.57 -5.64,-3.09 -12.01,-6.59 -19.11,-10.4 -7.12,-3.83 -15.3,-7.23 -24.44,-10.32 -9.13,-3.06 -19.54,-4.67 -31.2,-4.67 -20.19,0 -35.15,4.35 -45.03,12.96 -9.87,8.61 -14.86,20.17 -14.86,34.84 0,9.34 2.98,17.08 8.92,23.36 5.94,6.15 13.8,11.46 23.46,15.92 9.66,4.46 20.7,8.5 33.13,12.2 12.43,3.72 25.05,7.86 38.01,12.43 12.96,4.56 25.68,9.98 38.11,16.15 12.43,6.15 23.46,14.01 33.13,23.57 9.66,9.56 17.42,21.23 23.36,34.92 5.94,13.7 8.92,30.25 8.92,49.57 0,21.46 -3.72,41.52 -11.14,60.2 -7.44,18.69 -18.16,35.05 -32.28,48.96 -14.12,13.91 -31.54,24.84 -52.24,32.81 -20.72,7.95 -44.29,11.99 -70.61,11.99 -14.44,0 -29.09,-1.48 -44.08,-4.35 -14.97,-2.96 -29.51,-7.1 -43.53,-12.41 -14.02,-5.33 -27.19,-11.69 -39.49,-19.02 -12.33,-7.32 -23.04,-15.5 -32.17,-24.42l31.86 -51.18c2.32,-3.81 5.62,-7 9.87,-9.34 4.25,-2.32 8.82,-3.49 13.7,-3.49 6.36,0 12.83,2.01 19.32,6.05 6.47,4.04 13.8,8.5 21.96,13.38 8.18,4.88 17.52,9.34 28.14,13.38 10.63,4.04 23.15,6.05 37.59,6.05 19.55,0 34.73,-4.35 45.56,-12.96 10.82,-8.61 16.24,-22.18 16.24,-40.87 0,-10.95 -2.96,-19.76 -8.9,-26.55 -5.96,-6.78 -13.7,-12.43 -23.36,-16.89 -9.66,-4.46 -20.72,-8.37 -33.02,-11.77 -12.32,-3.4 -24.97,-7.12 -37.9,-11.27 -12.96,-4.12 -25.6,-9.22 -37.9,-15.39 -12.33,-6.05 -23.25,-14.01 -32.91,-23.89 -9.66,-9.87 -17.53,-22.2 -23.46,-36.95 -5.96,-14.75 -8.92,-33.02 -8.92,-54.67 0,-17.42 3.49,-34.41 10.51,-50.97 7,-16.57 17.31,-31.43 30.91,-44.37 13.57,-12.96 30.25,-23.26 49.99,-31.01 19.74,-7.76 42.37,-11.67 67.84,-11.67 14.23,0 28.14,1.16 41.62,3.38 13.49,2.24 26.23,5.52 38.32,9.98 12.11,4.35 23.46,9.66 33.99,15.73 10.51,6.15 19.85,13.04 28.14,20.8l-26.76 49.59zm518.55 369.69l-83.46 0c-9.34,0 -17,-2.24 -23.04,-6.57 -6.05,-4.35 -10.3,-9.89 -12.64,-16.68l-27.37 -80.9 -176.47 0 -27.4 80.9c-2.12,5.94 -6.26,11.25 -12.41,16.03 -6.17,4.78 -13.7,7.23 -22.62,7.23l-84.09 0 179.65 -464.39 110.22 0 179.65 464.39zm-298.15 -177.53l126.77 0 -42.68 -125.17c-2.75,-7.97 -5.94,-17.31 -9.66,-28.14 -3.72,-10.72 -7.42,-22.41 -11.03,-34.94 -3.4,12.75 -6.91,24.54 -10.51,35.47 -3.61,10.82 -7.02,20.27 -10.21,28.24l-42.68 124.53zm515.36 -286.55c4.67,0 8.6,0.21 11.79,0.63 3.17,0.43 6.05,1.16 8.59,2.33 2.56,1.16 4.99,2.87 7.33,4.99 2.32,2.13 4.99,4.99 7.97,8.6l220.4 278.7c-0.85,-8.92 -1.48,-17.63 -1.9,-26 -0.42,-8.39 -0.63,-16.26 -0.63,-23.68l0 -245.58 94.92 0 0 464.39 -56.06 0c-8.28,0 -15.28,-1.27 -21.01,-3.83 -5.75,-2.54 -11.27,-7.21 -16.57,-14.02l-218.81 -276.46c0.63,8.06 1.16,15.92 1.59,23.68 0.42,7.74 0.63,15.07 0.63,21.86l0 248.77 -94.92 0 0 -464.39 56.7 0zm617.93 379.03c14.44,0 27.4,-2.45 38.75,-7.23 11.37,-4.78 20.93,-11.56 28.77,-20.49 7.86,-8.92 13.91,-19.85 18.05,-32.7 4.14,-12.85 6.15,-27.4 6.15,-43.74l0 -274.88 107.66 0 0 275.09c0,28.45 -4.56,54.56 -13.8,78.34 -9.24,23.8 -22.49,44.39 -39.7,61.6 -17.21,17.19 -38.11,30.57 -62.74,40.12 -24.65,9.56 -52.34,14.33 -83.14,14.33 -31.01,0 -58.81,-4.78 -83.46,-14.33 -24.63,-9.55 -45.53,-22.93 -62.74,-40.12 -17.21,-17.21 -30.36,-37.8 -39.49,-61.6 -9.14,-23.78 -13.7,-49.89 -13.7,-78.34l0 -275.09 107.66 0 0 274.56c0,16.34 2.12,30.89 6.26,43.74 4.14,12.85 10.08,23.78 17.95,32.81 7.84,9.03 17.5,15.92 28.88,20.7 11.35,4.78 24.2,7.23 38.64,7.23zm528.11 -284.64c-3.19,5.09 -6.47,8.9 -9.98,11.46 -3.51,2.45 -8.07,3.72 -13.59,3.72 -4.88,0 -10.08,-1.5 -15.71,-4.57 -5.64,-3.09 -12.01,-6.59 -19.11,-10.4 -7.12,-3.83 -15.3,-7.23 -24.44,-10.32 -9.13,-3.06 -19.53,-4.67 -31.2,-4.67 -20.19,0 -35.16,4.35 -45.03,12.96 -9.87,8.61 -14.86,20.17 -14.86,34.84 0,9.34 2.98,17.08 8.92,23.36 5.94,6.15 13.8,11.46 23.46,15.92 9.66,4.46 20.7,8.5 33.13,12.2 12.43,3.72 25.05,7.86 38.01,12.43 12.96,4.56 25.68,9.98 38.12,16.15 12.43,6.15 23.46,14.01 33.13,23.57 9.66,9.56 17.42,21.23 23.36,34.92 5.94,13.7 8.92,30.25 8.92,49.57 0,21.46 -3.72,41.52 -11.14,60.2 -7.44,18.69 -18.16,35.05 -32.28,48.96 -14.12,13.91 -31.54,24.84 -52.24,32.81 -20.72,7.95 -44.29,11.99 -70.61,11.99 -14.44,0 -29.09,-1.48 -44.08,-4.35 -14.97,-2.96 -29.51,-7.1 -43.53,-12.41 -14.02,-5.33 -27.19,-11.69 -39.49,-19.02 -12.32,-7.32 -23.04,-15.5 -32.17,-24.42l31.85 -51.18c2.33,-3.81 5.62,-7 9.87,-9.34 4.25,-2.32 8.81,-3.49 13.7,-3.49 6.36,0 12.83,2.01 19.32,6.05 6.47,4.04 13.8,8.5 21.96,13.38 8.18,4.88 17.52,9.34 28.14,13.38 10.63,4.04 23.15,6.05 37.59,6.05 19.55,0 34.73,-4.35 45.55,-12.96 10.83,-8.61 16.24,-22.18 16.24,-40.87 0,-10.95 -2.96,-19.76 -8.9,-26.55 -5.96,-6.78 -13.7,-12.43 -23.36,-16.89 -9.66,-4.46 -20.71,-8.37 -33.02,-11.77 -12.33,-3.4 -24.97,-7.12 -37.9,-11.27 -12.96,-4.12 -25.6,-9.22 -37.9,-15.39 -12.33,-6.05 -23.26,-14.01 -32.92,-23.89 -9.66,-9.87 -17.52,-22.2 -23.46,-36.95 -5.96,-14.75 -8.92,-33.02 -8.92,-54.67 0,-17.42 3.49,-34.41 10.5,-50.97 7,-16.57 17.32,-31.43 30.91,-44.37 13.57,-12.96 30.25,-23.26 50,-31.01 19.74,-7.76 42.36,-11.67 67.83,-11.67 14.23,0 28.14,1.16 41.63,3.38 13.49,2.24 26.23,5.52 38.32,9.98 12.11,4.35 23.46,9.66 33.99,15.73 10.51,6.15 19.85,13.04 28.14,20.8l-26.76 49.59zm518.55 369.69l-83.46 0c-9.34,0 -16.99,-2.24 -23.04,-6.57 -6.05,-4.35 -10.3,-9.89 -12.64,-16.68l-27.37 -80.9 -176.47 0 -27.39 80.9c-2.12,5.94 -6.26,11.25 -12.41,16.03 -6.17,4.78 -13.7,7.23 -22.62,7.23l-84.09 0 179.64 -464.39 110.22 0 179.64 464.39zm-298.15 -177.53l126.77 0 -42.68 -125.17c-2.75,-7.97 -5.94,-17.31 -9.66,-28.14 -3.72,-10.72 -7.42,-22.41 -11.03,-34.94 -3.4,12.75 -6.92,24.54 -10.51,35.47 -3.62,10.82 -7.02,20.27 -10.21,28.24l-42.68 124.53zm392.41 -286.55c4.67,0 8.61,0.21 11.8,0.63 3.17,0.43 6.05,1.16 8.58,2.33 2.56,1.16 4.99,2.87 7.34,4.99 2.32,2.13 4.99,4.99 7.97,8.6l220.4 278.7c-0.85,-8.92 -1.48,-17.63 -1.9,-26 -0.43,-8.39 -0.63,-16.26 -0.63,-23.68l0 -245.58 94.91 0 0 464.39 -56.06 0c-8.29,0 -15.28,-1.27 -21.01,-3.83 -5.75,-2.54 -11.27,-7.21 -16.57,-14.02l-218.82 -276.46c0.63,8.06 1.16,15.92 1.59,23.68 0.43,7.74 0.63,15.07 0.63,21.86l0 248.77 -94.91 0 0 -464.39 56.7 0zm761.91 0l0 85.36 -130.6 0 0 379.03 -107.66 0 0 -379.03 -130.6 0 0 -85.36 368.86 0zm425.54 464.08l-83.46 0c-9.34,0 -16.99,-2.24 -23.04,-6.57 -6.05,-4.35 -10.3,-9.89 -12.64,-16.68l-27.37 -80.9 -176.47 0 -27.4 80.9c-2.12,5.94 -6.26,11.25 -12.41,16.03 -6.17,4.78 -13.7,7.23 -22.62,7.23l-84.09 0 179.65 -464.39 110.22 0 179.64 464.39zm-298.15 -177.53l126.77 0 -42.68 -125.17c-2.75,-7.97 -5.94,-17.31 -9.66,-28.14 -3.72,-10.72 -7.42,-22.41 -11.03,-34.94 -3.4,12.75 -6.91,24.54 -10.51,35.47 -3.61,10.82 -7.02,20.27 -10.21,28.24l-42.68 124.53zm443.38 5.86l0 171.68 -107.66 0 0 -464.73 150.98 0c33.55,0 62.21,3.51 85.89,10.42 23.68,6.89 43,16.55 57.99,28.88 14.97,12.3 25.79,26.85 32.58,43.74 6.81,16.78 10.21,35.13 10.21,54.9 0,15.07 -2.03,29.41 -6.07,42.79 -4.01,13.38 -9.98,25.79 -17.93,37.16 -7.97,11.35 -17.74,21.54 -29.32,30.46 -11.56,9.03 -24.95,16.36 -40.02,22.09 7.21,3.61 14.02,8.05 20.27,13.38 6.26,5.31 11.69,11.77 16.36,19.43l98.74 161.48 -97.48 0c-18.05,0 -31.01,-6.81 -38.85,-20.38l-77.09 -134.74c-3.38,-5.94 -7.32,-10.19 -11.88,-12.75 -4.57,-2.54 -11.06,-3.81 -19.32,-3.81l-27.4 0zm0 -74.54l43.32 0c14.65,0 27.19,-1.93 37.48,-5.62 10.29,-3.72 18.68,-8.81 25.26,-15.41 6.6,-6.57 11.37,-14.33 14.33,-23.15 2.98,-8.79 4.46,-18.24 4.46,-28.45 0,-20.38 -6.57,-36.29 -19.85,-47.77 -13.28,-11.46 -33.86,-17.19 -61.68,-17.19l-43.32 0 0 137.6zm747.9 246.21l-83.46 0c-9.34,0 -17,-2.24 -23.04,-6.57 -6.05,-4.35 -10.3,-9.89 -12.64,-16.68l-27.37 -80.9 -176.47 0 -27.4 80.9c-2.11,5.94 -6.26,11.25 -12.41,16.03 -6.17,4.78 -13.7,7.23 -22.62,7.23l-84.09 0 179.65 -464.39 110.22 0 179.65 464.39zm-298.15 -177.53l126.77 0 -42.68 -125.17c-2.75,-7.97 -5.94,-17.31 -9.66,-28.14 -3.72,-10.72 -7.42,-22.41 -11.03,-34.94 -3.4,12.75 -6.91,24.54 -10.51,35.47 -3.61,10.82 -7.02,20.27 -10.21,28.24l-42.68 124.53z"/>
    <path class="fil2" d="M2449.96 1938.69c-15.83,36.4 -34.19,41.12 -39.45,42.79 -0.84,0.27 -1.39,2.22 -1.39,2.22l54.73 0c0,0 0.84,-1.95 0,-2.22 -4.17,-1.67 -26.38,-4.44 -10.83,-40.84l55.85 -129.21 19.45 172.27 4.99 0 126.16 -168.1 -27.23 131.43c-7.23,34.18 -21.69,32.79 -26.95,34.46 -0.85,0.27 -1.4,2.22 -1.4,2.22l67.25 0c0,0 0.55,-1.95 -0.27,-2.22 -4.46,-1.67 -20.57,-0.27 -13.34,-35.58l24.73 -120.85c5.84,-27.8 18.33,-33.91 24.44,-33.91 1.12,0 1.67,-1.95 1.67,-1.95l-33.61 0 -123.37 163.94 -18.62 -163.94 -37.23 0c0,0 -0.27,1.95 0.55,1.95 5.01,0 16.11,3.34 8.33,20.57l0.85 -1.12 -55.3 128.1zm402.35 19.18c-5.29,16.93 1.67,27.5 13.89,27.5 11.67,0 24.18,-8.9 36.4,-22.24l0 -1.95c0,0 -0.27,-1.67 -1.67,0 -9.72,11.39 -20.55,17.8 -24.44,17.8 -4.74,0 -5.56,-7.23 -0.57,-24.46l26.4 -82.25c8.05,-9.15 23.61,-23.06 44.45,-23.06 41.96,0 22.22,53.08 13.06,81.98l-8.35 26.68c-5.54,16.93 1.4,27.5 13.61,27.5 11.69,0 24.18,-8.9 36.68,-22.24l0 -1.95c0,0 -0.27,-1.67 -1.65,0 -10.02,11.39 -20.84,17.8 -24.73,17.8 -4.73,0 -5.56,-7.23 -0.55,-24.18l6.93 -21.39c12.79,-40.02 31.11,-91.41 -30.29,-91.41 -17.5,0 -36.38,11.94 -46.95,23.61l3.89 -11.67c3.06,-9.72 -1.4,-14.46 -11.12,-11.67l-32.22 9.45c0,0 -0.85,1.95 0,2.22 2.49,-0.57 6.11,-1.67 9.15,-1.67 5.84,0 10.57,3.89 4.46,23.06l-10.84 34.46c-28.62,31.94 -70.56,71.96 -101.13,71.96 -24.18,0 -35.58,-21.67 -36.4,-47.8 114.19,-18.05 122.53,-91.41 63.06,-91.41 -30.82,0 -70.56,22.51 -86.12,72.23 -11.94,37.52 -0.85,73.08 45.85,73.08 42.51,0 81.68,-36.68 112.53,-71.69l-13.34 41.69zm-121.98 -27.53c0,-38.05 21.4,-82.8 55.85,-82.8 50.57,0 8.33,77.24 -55.85,82.8zm343.14 -76.4c3.06,-9.72 -1.37,-14.46 -11.39,-11.67l-32.22 9.45c0,0 -0.57,1.95 0.27,2.22 2.22,-0.57 5.84,-1.67 8.88,-1.67 5.83,0 10.57,3.89 5.01,22.22l-6.66 20.57c-12.79,40.02 -31.41,91.41 30.27,91.41 16.96,0 35.01,-11.1 45.85,-22.49 -2.22,13.34 4.44,21.4 15.01,21.4 11.95,0 24.44,-8.9 36.68,-22.24l0 -1.95c0,0 -0.28,-1.67 -1.67,0 -9.73,11.39 -20.57,17.8 -24.46,17.8 -4.99,0 -5.56,-7.5 -0.27,-25.3l32.24 -99.74c3.04,-9.72 -1.4,-14.46 -11.39,-11.67l-32.24 9.45c0,0 -0.55,1.95 0.27,2.22 2.51,-0.57 5.83,-1.67 9.17,-1.67 5.83,0 10.27,3.89 4.44,23.06l-26.38 82.53c-8.62,9.45 -23.34,21.39 -42.51,21.39 -41.96,0 -21.96,-53.08 -13.06,-81.98l14.16 -43.34zm214.25 103.92c-5.29,16.93 1.67,27.5 13.61,27.5 8.33,0 19.17,-5.01 30,-16.41l0 -1.95c0,0 0,-1.67 -1.67,0 -18.05,17.5 -27.78,18.35 -17.78,-14.16l6.11 -19.45c7.23,-22.24 15.85,-48.35 12.79,-66.7 7.5,-7.78 21.12,-17.5 41.69,-17.5 41.94,0 20.55,53.08 11.67,81.98l-8.62 26.68c-5.28,16.93 1.67,27.5 13.61,27.5 8.35,0 19.18,-5.01 30.02,-16.41l0 -1.95c0,0 0,-1.67 -1.67,0 -18.05,17.5 -27.78,18.35 -17.78,-14.16l6.11 -19.45c12.77,-40.02 31.11,-91.41 -24.46,-91.41 -19.72,0 -40.84,10 -51.39,21.39 -3.34,-12.79 -13.91,-21.39 -36.68,-21.39 -18.9,0 -36.97,11.67 -47.25,23.61l3.89 -11.67c3.06,-9.72 -1.4,-14.46 -11.12,-11.67l-32.22 9.45c0,0 -0.85,1.95 0,2.22 2.49,-0.57 6.11,-1.67 9.15,-1.67 5.83,0 10.57,3.89 4.46,23.06l-26.4 82.53c-5.28,16.93 1.67,27.5 13.61,27.5 11.94,0 24.46,-8.9 36.68,-22.24l0 -1.95c0,0 -0.27,-1.67 -1.67,0 -9.73,11.39 -20.55,17.8 -24.44,17.8 -4.73,0 -5.56,-7.23 -0.57,-24.46l26.4 -82.53c7.78,-9.17 21.67,-22.79 40.84,-22.79 41.96,0 20.57,53.08 11.67,81.98l-8.6 26.68zm154.76 25.83l27.5 -18.39c4.46,13.34 16.4,22.56 40.57,22.56 44.45,0 75.02,-36.49 86.69,-73.21 11.39,-36.51 4.44,-73.23 -40.02,-73.23 -23.34,0 -41.94,11.94 -55.85,28.39l18.35 -57.46c12.79,-37.14 34.46,-59.85 54.73,-59.85 10.02,0 19.45,5.52 27.52,17.19 2.49,3.57 5.26,4.95 8.33,4.95 13.34,0 25.83,-29.91 -16.96,-29.91 -32.51,0 -79.74,15.79 -106.69,99.76l-31.39 98.55 0.27 0 -13.06 40.65zm71.68 0c-27.5,0 -35.01,-30.93 -28.89,-63.21l9.45 -29.83c10.84,-23.65 28.89,-42.56 51.13,-42.56 55.01,0 24.16,135.59 -31.69,135.59zm156.98 -129.75c3.07,-9.72 -1.37,-14.46 -11.39,-11.67l-32.22 9.45c0,0 -0.57,1.95 0.27,2.22 2.22,-0.57 5.84,-1.67 8.88,-1.67 5.84,0 10.57,3.89 5.01,22.22l-6.66 20.57c-12.79,40.02 -31.42,91.41 30.27,91.41 16.95,0 35.01,-11.1 45.85,-22.49 -2.22,13.34 4.44,21.4 15.01,21.4 11.94,0 24.44,-8.9 36.68,-22.24l0 -1.95c0,0 -0.27,-1.67 -1.67,0 -9.72,11.39 -20.57,17.8 -24.46,17.8 -4.99,0 -5.56,-7.5 -0.27,-25.3l32.24 -99.74c3.04,-9.72 -1.39,-14.46 -11.39,-11.67l-32.24 9.45c0,0 -0.55,1.95 0.27,2.22 2.51,-0.57 5.84,-1.67 9.17,-1.67 5.84,0 10.28,3.89 4.44,23.06l-26.38 82.53c-8.62,9.45 -23.34,21.39 -42.51,21.39 -41.96,0 -21.96,-53.08 -13.06,-81.98l14.16 -43.34zm116.99 103.92c-5.56,16.93 1.4,27.5 13.61,27.5 11.67,0 24.18,-8.9 36.68,-22.24l-0.27 -1.95c0,0 0,-1.67 -1.4,0 -10,11.39 -20.82,17.8 -24.71,17.8 -5.01,0 -5.56,-8.08 0.55,-27.8l25.01 -78.64c8.05,-8.88 23.61,-23.34 44.73,-23.34 41.96,0 22.24,53.08 13.34,81.98l-8.6 26.68c-5.29,16.93 1.65,27.5 13.61,27.5 11.94,0 24.44,-8.9 36.68,-22.24l0 -1.95c0,0 -0.3,-1.67 -1.67,0 -9.72,11.39 -20.57,17.8 -24.46,17.8 -5.01,0 -5.83,-7.78 0,-26.13l6.11 -19.45c12.79,-40.02 31.11,-91.41 -30.27,-91.41 -17.8,0 -36.68,12.22 -47.25,24.16l16.11 -50.57c12.51,-39.17 34.73,-63.08 55.57,-63.08 10,0 19.72,5.56 27.5,17.23 2.52,3.61 5.29,5.01 8.35,5.01 13.34,0 26.11,-30.02 -16.68,-30.02 -32.51,0 -80.01,15.83 -106.69,100.03l-35.85 113.1zm172.54 0c-5.56,16.93 1.39,27.5 13.61,27.5 11.67,0 24.18,-8.9 36.68,-22.24l-0.27 -1.95c0,0 0,-1.67 -1.4,0 -10,11.39 -20.82,17.8 -24.71,17.8 -5.01,0 -5.56,-8.08 0.55,-27.8l7.78 -24.16 34.73 -23.63c27.5,5.01 -19.72,83.08 38.9,83.08 5.84,0 21.67,-6.11 32.79,-23.34l-0.27 -4.71c0,0 -0.82,-0.55 -1.4,1.1 -5.56,11.39 -16.96,20.29 -22.79,20.29 -31.67,0 10.84,-69.74 -42.21,-80.01l54.18 -36.97c19.45,-13.34 11.67,-25.56 -2.79,-25.56 -8.05,0 -18.05,3.62 -26.68,12.79l0 1.95c0,0 0,1.1 1.67,0 4.73,-3.34 8.62,-4.73 11.39,-4.73 9.72,0 6.39,17.23 -22.79,37.52l-53.06 36.95 33.88 -106.14c12.52,-39.17 34.73,-63.08 55.58,-63.08 10,0 19.45,5.56 27.5,17.23 2.51,3.61 5.28,5.01 8.35,5.01 13.34,0 26.11,-30.02 -16.68,-30.02 -32.51,0 -80.01,15.83 -106.69,100.03l-35.85 113.1zm314.56 -116.16c0,0 -3.07,-0.27 -4.17,2.79 -2.24,6.93 -12.79,13.89 -22.79,15.28 -5.29,-11.12 -17.23,-18.35 -38.9,-18.35 -44.18,0 -74.75,36.44 -86.42,73.23 -11.67,36.49 -4.74,73.21 40.01,73.21 20.55,0 37.5,-9.45 51.12,-23.06 -1.67,12.79 4.73,20.57 15.28,20.57 11.67,0 24.18,-8.9 36.68,-22.24l0 -1.99c0,0 -0.27,-1.67 -1.67,0 -10,11.44 -20.85,17.84 -24.73,17.84 -4.71,0 -5.56,-7.23 -0.27,-24.5l35.85 -112.78zm-69.47 3.89c22.49,0 31.67,20.61 31.12,45.66l-20 62.66c-10.84,15.9 -25.58,27.02 -42.53,27.02 -55.28,0 -24.16,-135.34 31.41,-135.34zm86.69 112.27c-5.28,16.93 1.67,27.5 13.61,27.5 11.94,0 24.46,-8.9 36.68,-22.24l0 -1.95c0,0 -0.27,-1.67 -1.67,0 -9.73,11.39 -20.55,17.8 -24.44,17.8 -4.73,0 -5.56,-7.23 -0.57,-24.46l26.4 -82.25c8.06,-9.15 23.62,-23.06 44.46,-23.06 41.96,0 21.94,53.08 13.06,81.98l-8.35 26.68c-5.54,16.93 1.39,27.5 13.61,27.5 11.69,0 24.18,-8.9 36.68,-22.24l0 -1.95c0,0 -0.27,-1.67 -1.65,0 -10.02,11.39 -20.84,17.8 -24.73,17.8 -4.74,0 -5.56,-7.23 -0.55,-24.18l6.93 -21.39c12.79,-40.02 31.12,-91.41 -30.29,-91.41 -17.78,0 -36.38,11.94 -46.95,23.61l3.89 -11.67c3.06,-9.72 -1.4,-14.46 -11.12,-11.67l-32.22 9.45c0,0 -0.85,1.95 0,2.22 2.49,-0.57 6.11,-1.67 9.15,-1.67 5.83,0 10.57,3.89 4.46,23.06l-26.4 82.53zm129.75 55.01l3.89 0 57.24 -51.69 -22.24 0 -38.9 51.69zm313.71 -223.68l-4.44 0 -125.04 156.71c-25.84,32.24 -37.78,33.91 -43.06,35.58 -0.85,0.27 -1.4,2.22 -1.4,2.22l54.46 0c0,0 0.57,-1.95 -0.27,-2.22 -4.17,-1.67 -27.5,-7.78 -5.29,-35.58l28.35 -35.28 92.53 0 5.83 35.28c6.11,38.35 -8.88,33.91 -13.89,35.58 -1.12,0.27 -1.67,2.22 -1.67,2.22l60.01 0c0,0 0.27,-1.95 -0.27,-2.22 -4.17,-1.67 -14.44,1.4 -20.57,-35.58l-25.28 -156.71zm-93.08 116.99l73.63 -92.25 14.74 92.25 -88.36 0zm254.79 51.69c-5.29,16.93 1.67,27.5 13.61,27.5 8.33,0 19.17,-5.01 30,-16.41l0 -1.95c0,0 0,-1.67 -1.67,0 -18.05,17.5 -27.78,18.35 -17.78,-14.16l6.11 -19.45c7.23,-22.24 15.85,-48.35 12.79,-66.7 7.5,-7.78 21.12,-17.5 41.69,-17.5 41.94,0 20.55,53.08 11.67,81.98l-8.62 26.68c-5.28,16.93 1.67,27.5 13.61,27.5 8.35,0 19.18,-5.01 30.02,-16.41l0 -1.95c0,0 0,-1.67 -1.67,0 -18.05,17.5 -27.78,18.35 -17.78,-14.16l6.11 -19.45c12.77,-40.02 31.11,-91.41 -24.46,-91.41 -19.72,0 -40.84,10 -51.39,21.39 -3.34,-12.79 -13.91,-21.39 -36.68,-21.39 -18.9,0 -36.97,11.67 -47.25,23.61l3.89 -11.67c3.07,-9.72 -1.4,-14.46 -11.12,-11.67l-32.22 9.45c0,0 -0.84,1.95 0,2.22 2.49,-0.57 6.11,-1.67 9.15,-1.67 5.83,0 10.57,3.89 4.46,23.06l-26.4 82.53c-5.28,16.93 1.67,27.5 13.61,27.5 11.94,0 24.46,-8.9 36.68,-22.24l0 -1.95c0,0 -0.27,-1.67 -1.67,0 -9.73,11.39 -20.55,17.8 -24.44,17.8 -4.73,0 -5.56,-7.23 -0.57,-24.46l26.4 -82.53c7.78,-9.17 21.67,-22.79 40.84,-22.79 41.96,0 20.57,53.08 11.67,81.98l-8.6 26.68zm314.53 -116.16c0,0 -3.06,-0.27 -4.16,2.79 -2.24,6.93 -12.79,13.89 -22.79,15.28 -5.28,-11.12 -17.23,-18.35 -38.9,-18.35 -44.18,0 -74.75,36.44 -86.42,73.23 -11.67,36.49 -4.73,73.21 40.02,73.21 20.55,0 37.5,-9.45 51.11,-23.06 -1.67,12.79 4.74,20.57 15.28,20.57 11.67,0 24.18,-8.9 36.68,-22.24l0 -1.99c0,0 -0.27,-1.67 -1.67,0 -10,11.44 -20.84,17.84 -24.73,17.84 -4.71,0 -5.56,-7.23 -0.27,-24.5l35.85 -112.78zm-69.46 3.89c22.49,0 31.66,20.61 31.11,45.66l-20 62.66c-10.84,15.9 -25.58,27.02 -42.53,27.02 -55.28,0 -24.16,-135.34 31.41,-135.34zm86.69 112.27c-5.29,16.93 1.67,27.5 13.61,27.5 11.94,0 24.46,-8.9 36.68,-22.24l0 -1.95c0,0 -0.27,-1.67 -1.67,0 -9.72,11.39 -20.54,17.8 -24.44,17.8 -4.74,0 -5.56,-7.23 -0.57,-24.46l26.4 -82.25c8.05,-9.15 23.61,-23.06 44.46,-23.06 41.96,0 21.94,53.08 13.06,81.98l-8.35 26.68c-5.54,16.93 1.4,27.5 13.61,27.5 11.69,0 24.18,-8.9 36.68,-22.24l0 -1.95c0,0 -0.28,-1.67 -1.65,0 -10.02,11.39 -20.84,17.8 -24.73,17.8 -4.73,0 -5.56,-7.23 -0.55,-24.18l6.93 -21.39c12.79,-40.02 31.12,-91.41 -30.29,-91.41 -17.78,0 -36.38,11.94 -46.95,23.61l3.89 -11.67c3.06,-9.72 -1.4,-14.46 -11.12,-11.67l-32.22 9.45c0,0 -0.85,1.95 0,2.22 2.49,-0.57 6.11,-1.67 9.15,-1.67 5.84,0 10.57,3.89 4.46,23.06l-26.4 82.53zm325.65 -116.16c0,0 -3.06,-0.27 -4.16,2.79 -2.24,6.93 -12.79,13.89 -22.79,15.28 -5.29,-11.12 -17.23,-18.35 -38.9,-18.35 -44.18,0 -74.75,36.44 -86.42,73.23 -11.67,36.49 -4.73,73.21 40.02,73.21 20.55,0 37.5,-9.45 51.11,-23.06 -1.67,12.79 4.74,20.57 15.28,20.57 11.67,0 24.18,-8.9 36.68,-22.24l0 -1.99c0,0 -0.27,-1.67 -1.67,0 -10,11.44 -20.84,17.84 -24.73,17.84 -4.71,0 -5.56,-7.23 -0.28,-24.5l35.85 -112.78zm-69.46 3.89c22.49,0 31.67,20.61 31.11,45.66l-20 62.66c-10.84,15.9 -25.58,27.02 -42.53,27.02 -55.28,0 -24.16,-135.34 31.41,-135.34zm86.67 112.27c-5.56,16.93 1.39,27.5 13.61,27.5 11.67,0 24.18,-8.9 36.68,-22.24l-0.27 -1.95c0,0 0,-1.67 -1.4,0 -10,11.39 -20.82,17.8 -24.71,17.8 -5.01,0 -5.56,-8.08 0.55,-27.8l25.01 -78.64c8.05,-8.88 23.61,-23.34 44.73,-23.34 41.96,0 22.24,53.08 13.34,81.98l-8.61 26.68c-5.28,16.93 1.65,27.5 13.61,27.5 11.95,0 24.44,-8.9 36.68,-22.24l0 -1.95c0,0 -0.3,-1.67 -1.67,0 -9.72,11.39 -20.57,17.8 -24.46,17.8 -5.01,0 -5.84,-7.78 0,-26.13l6.11 -19.45c12.79,-40.02 31.12,-91.41 -30.27,-91.41 -17.8,0 -36.68,12.22 -47.25,24.16l16.11 -50.57c12.52,-39.17 34.73,-63.08 55.58,-63.08 10,0 19.72,5.56 27.5,17.23 2.51,3.61 5.28,5.01 8.35,5.01 13.34,0 26.11,-30.02 -16.68,-30.02 -32.51,0 -80.01,15.83 -106.69,100.03l-35.85 113.1zm351.76 65.28c44.18,-27.5 45.31,-55.83 32.79,-84.45 20.02,-20.02 36.95,-43.08 34.46,-61.41 -0.82,-5.01 -3.89,-6.95 -7.78,-6.95 -7.51,0 -17.78,8.05 -16.96,19.17 0.85,15.28 9.17,19.45 -11.67,45.31 -11.94,-25.01 -33.06,-50.02 -43.89,-74.75 26.11,-12.79 50.57,-21.94 57.23,-43.06 6.95,-21.69 -7.51,-32.24 -26.11,-32.24 -20.3,0 -45.58,12.79 -53.36,37.5 -3.89,11.67 -1.12,26.13 4.71,41.96 -32.79,17.78 -68.89,35.85 -79.19,70.59 -10.83,35.83 16.96,53.9 50.02,53.9 25.28,0 48.64,-10.57 68.91,-27.25 5.56,21.96 4.71,42.81 -9.72,60.04l0.55 1.65zm-15.01 -167.53c-5.26,-13.34 -7.21,-26.68 -2.49,-40.02 5.56,-16.4 21.12,-26.68 32.51,-26.68 10,0 16.96,8.06 10.84,26.68 -5.28,16.68 -21.39,28.9 -40.86,40.02zm23.36 101.95c-19.17,16.13 -42.81,27.25 -66.69,27.25 -23.06,0 -35.28,-21.96 -25.83,-51.41 10.55,-33.61 32.49,-51.69 55.01,-64.75 10.84,27.53 29.17,59.19 37.52,88.91zm251.73 -45.83c49.17,0 83.35,-30.57 93.08,-61.41 10,-30.57 -5.01,-61.14 -54.18,-61.14l-60.57 0 -50.58 158.38c-11.1,33.91 -26.11,32.24 -31.39,33.91 -1.12,0.27 -1.67,2.22 -1.67,2.22l67.25 0c0,0 0.55,-1.95 -0.27,-2.22 -4.17,-1.67 -20.57,0 -9.17,-35.58l10.84 -34.16 36.68 0zm-43.36 -122.55c0,0 -0.55,1.95 0.27,2.22 4.18,1.67 20.57,0 9.17,35.58l12.24 -37.8 -21.69 0zm73.08 4.46c73.63,0 37.52,113.62 -36.13,113.62l-28.9 0 25.85 -81.41c11.94,-36.68 17.78,-31.66 23.34,-32.21l15.83 0zm66.69 164.21c-5.28,16.93 1.67,27.5 13.61,27.5 11.95,0 24.46,-8.9 36.68,-22.24l0 -1.95c0,0 -0.28,-1.67 -1.67,0 -9.73,11.39 -20.55,17.8 -24.44,17.8 -4.73,0 -5.56,-7.23 -0.57,-24.46l22.24 -69.74c16.11,-18.63 27.78,-23.63 37.77,-23.63 5.84,0 11.39,1.67 16.68,3.34 14.44,4.46 27.78,-19.72 15.56,-24.73 -2.22,-0.82 -4.71,-1.37 -7.23,-1.37 -17.23,0 -43.06,18.05 -60.56,39.72l8.05 -24.16c3.07,-9.72 -1.4,-14.46 -11.12,-11.67l-32.22 9.45c0,0 -0.84,1.95 0,2.22 2.49,-0.57 6.11,-1.67 9.15,-1.67 5.83,0 10.57,3.89 4.46,23.06l-26.4 82.53zm112.82 -43.21c-11.94,37.6 -0.84,73.21 46.13,73.21 46.4,0 80.01,-35.33 92.25,-73.21 11.95,-37.61 0.83,-73.23 -45.85,-73.23 -46.4,0 -80.59,35.35 -92.53,73.23zm79.19 -67.39c59.46,0 40.29,134.49 -19.72,134.49 -60.31,0 -40.29,-134.49 19.72,-134.49zm181.17 -70.56c-30,0 -47.5,27.5 -56.68,56.68l-3.61 11.39 -21.12 0 -1.4 4.44 21.12 0 -46.68 147.28c-12.49,39.17 -35.01,63.06 -55.85,63.06 -10,0 -19.45,-5.56 -27.5,-17.23 -2.49,-3.6 -5.29,-4.99 -8.33,-4.99 -13.34,0 -25.85,30 16.93,30 32.51,0 79.76,-15.83 106.44,-100.01l37.5 -118.11 38.9 0 1.4 -4.44 -38.9 0 2.77 -8.9c2.49,-8.06 13.06,-54.46 33.63,-54.46 22.76,0 9.43,16.4 16.11,28.62 2.22,3.89 6.11,5.83 9.72,5.83 5.56,0 10.84,-4.17 10.27,-12.79 -0.82,-11.39 -11.94,-26.38 -34.73,-26.38zm-2.49 138.08c-11.94,37.52 -0.85,73.08 46.13,73.08 33.61,0 54.18,-16.96 68.34,-41.39l-3.04 -1.95c-4.73,10.55 -24.73,37.23 -51.96,37.23 -24.18,0 -35.58,-21.67 -36.4,-47.8 114.19,-18.05 122.53,-91.41 63.36,-91.41 -31.11,0 -70.58,22.51 -86.42,72.23zm23.06 15.56c0,-38.05 21.4,-82.8 55.85,-82.8 50.57,0 8.33,77.24 -55.85,82.8zm125.86 23.06c-2.22,-4.16 -6.38,-6.11 -10.27,-6.11 -7.23,0 -14.74,5.83 -12.49,14.16 4.17,16.96 25.56,26.13 45.83,25.31 30.57,0 64.47,-11.67 74.2,-41.69 16.93,-53.08 -91.43,-30.84 -77.24,-72.8 6.66,-19.72 32.51,-24.73 45.83,-24.73 29.2,0 18.9,15.85 25.31,28.07 2.49,4.44 6.66,6.39 10.82,6.39 6.96,0 14.19,-5.83 11.95,-14.99 -4.17,-17.23 -23.34,-25.01 -40.84,-25.01 -22.49,0 -58.9,7.48 -69.19,39.17 -17.78,56.4 87.54,37.77 76.69,72.23 -6.11,19.18 -28.9,28.62 -52.24,28.62 -21.94,0 -21.67,-16.38 -28.35,-28.62zm172.02 -148.93c-3.62,11.67 3.04,17.78 11.39,17.78 8.6,0 19.17,-6.11 22.79,-17.78 3.89,-11.67 -2.79,-17.5 -11.39,-17.5 -8.62,0 -18.9,5.84 -22.79,17.5zm13.89 49.47c3.06,-9.72 -1.4,-14.46 -11.12,-11.67l-32.22 9.45c0,0 -0.85,1.95 0,2.22 2.49,-0.57 5.83,-1.67 9.15,-1.67 5.56,0 10.3,3.62 5.01,21.4l-26.95 84.2c-5.28,16.93 1.67,27.5 13.61,27.5 11.94,0 24.46,-8.9 36.68,-22.24l0 -1.95c0,0 -0.27,-1.67 -1.67,0 -9.72,11.39 -20.54,17.8 -24.44,17.8 -4.74,0 -5.56,-7.23 -0.57,-24.46l20.85 -65.3 11.67 -35.28zm20.29 60.71c-11.94,37.6 -0.85,73.21 46.13,73.21 46.4,0 80.01,-35.33 92.25,-73.21 11.94,-37.61 0.82,-73.23 -45.85,-73.23 -46.4,0 -80.59,35.35 -92.53,73.23zm79.19 -67.39c59.46,0 40.29,134.49 -19.72,134.49 -60.31,0 -40.29,-134.49 19.72,-134.49zm82.25 110.6c-5.28,16.93 1.67,27.5 13.61,27.5 11.94,0 24.46,-8.9 36.68,-22.24l0 -1.95c0,0 -0.27,-1.67 -1.67,0 -9.72,11.39 -20.54,17.8 -24.44,17.8 -4.73,0 -5.56,-7.23 -0.57,-24.46l26.4 -82.25c8.06,-9.15 23.61,-23.06 44.46,-23.06 41.96,0 21.94,53.08 13.06,81.98l-8.35 26.68c-5.54,16.93 1.39,27.5 13.61,27.5 11.69,0 24.18,-8.9 36.68,-22.24l0 -1.95c0,0 -0.27,-1.67 -1.65,0 -10.02,11.39 -20.84,17.8 -24.73,17.8 -4.73,0 -5.56,-7.23 -0.55,-24.18l6.93 -21.39c12.79,-40.02 31.12,-91.41 -30.29,-91.41 -17.78,0 -36.38,11.94 -46.95,23.61l3.89 -11.67c3.06,-9.72 -1.4,-14.46 -11.12,-11.67l-32.22 9.45c0,0 -0.85,1.95 0,2.22 2.49,-0.57 6.11,-1.67 9.15,-1.67 5.83,0 10.57,3.89 4.46,23.06l-26.4 82.53zm325.66 -116.16c0,0 -3.07,-0.27 -4.17,2.79 -2.24,6.93 -12.79,13.89 -22.79,15.28 -5.29,-11.12 -17.23,-18.35 -38.9,-18.35 -44.18,0 -74.75,36.44 -86.42,73.23 -11.67,36.49 -4.73,73.21 40.02,73.21 20.55,0 37.5,-9.45 51.11,-23.06 -1.67,12.79 4.74,20.57 15.28,20.57 11.67,0 24.18,-8.9 36.68,-22.24l0 -1.99c0,0 -0.27,-1.67 -1.67,0 -10,11.44 -20.85,17.84 -24.73,17.84 -4.71,0 -5.56,-7.23 -0.27,-24.5l35.85 -112.78zm-69.47 3.89c22.49,0 31.67,20.61 31.12,45.66l-20 62.66c-10.84,15.9 -25.58,27.02 -42.53,27.02 -55.28,0 -24.16,-135.34 31.41,-135.34zm86.67 112.27c-5.56,16.93 1.39,27.5 13.61,27.5 11.67,0 24.18,-8.9 36.4,-22.24l0 -1.95c0,0 -0.27,-1.67 -1.67,0 -9.72,11.39 -20.55,17.8 -24.44,17.8 -5.01,0 -5.56,-8.08 0.55,-27.8l43.33 -135.59c12.52,-39.17 34.73,-63.08 55.58,-63.08 10,0 19.45,5.56 27.5,17.23 2.51,3.61 5.28,5.01 8.35,5.01 13.34,0 25.83,-30.02 -16.96,-30.02 -32.51,0 -79.74,15.83 -106.41,100.03l-35.85 113.1z"/>
   </g>
   <g>
    <g>
     <path class="fil3" d="M916.21 740.04l-415.67 -110.73c-35.65,39.93 -67.09,83.64 -94.19,130.09l507.35 0c0.02,-6.69 0.89,-13.18 2.52,-19.37z"/>
     <path class="fil3" d="M602.76 534.57l321.95 185.44c3.76,-6.2 8.37,-11.83 13.68,-16.72l-233.53 -233.26c-36.24,18.68 -70.3,40.32 -102.1,64.53z"/>
     <path class="fil3" d="M804.23 428.52l151.68 262.63c6.19,-3.11 12.85,-5.4 19.85,-6.74l-74.65 -278.94c-32.82,5.1 -65.18,12.81 -96.88,23.05z"/>
     <path class="fil3" d="M1093.46 405.46l-74.4 278.02c-6.32,-1.84 -12.96,-2.92 -19.82,-3.15l0 -282.29c31.71,0.1 63.17,2.59 94.22,7.42z"/>
     <path class="fil3" d="M1038.66 691.15l151.68 -262.65c17.96,5.79 35.7,12.41 53.19,19.82 15.78,6.68 31.18,13.95 46.2,21.69l-233.55 233.28c-5.22,-4.82 -11.12,-8.91 -17.52,-12.14z"/>
     <path class="fil3" d="M1069.86 720.01l321.98 -185.46c37.18,28.3 71.28,60.1 102.22,94.75l-415.71 110.74c-1.88,-7.14 -4.76,-13.87 -8.49,-20.03z"/>
     <path class="fil3" d="M678.37 1948.73l296.87 -1109.27c6.41,1.73 13.14,2.7 20.08,2.79l0 1051.47c-6.51,2.24 -13.14,4.82 -19.96,7.82l-42.65 5.64c-36.99,4.9 -65.14,25.49 -99.86,34.27l-0.88 0.23 -0.88 0.27c-27.45,8.46 -57.4,17.52 -86.14,19.72 -14.81,1.13 -30.04,0.37 -44.16,-4.59 -7.55,-2.65 -15.04,-5.41 -22.42,-8.35z"/>
     <path class="fil3" d="M955.63 831.26l-518.93 898.52c-58.62,-85.71 -100.77,-182.77 -125.83,-284.35l627.51 -626.78c2.98,2.75 6.19,5.27 9.58,7.52 2.45,1.83 5.02,3.53 7.67,5.08z"/>
     <path class="fil3" d="M924.71 801.92l-639.76 368.5c4.27,-78.36 18.48,-156.6 42.21,-231.61l589.06 -156.92c1.88,7.14 4.76,13.87 8.49,20.03z"/>
     <path class="fil3" d="M1078.35 781.89l589.06 156.92c-19.46,-61.5 -45.31,-120.83 -77.33,-176.28l-509.22 0c-0.02,6.69 -0.89,13.18 -2.52,19.36z"/>
     <path class="fil3" d="M1709.61 1170.43l-639.76 -368.5c-3.76,6.21 -8.37,11.84 -13.68,16.73l627.46 626.73c18.14,-73.52 27.36,-149.36 27.36,-224.92 0,-16.67 -0.48,-33.36 -1.39,-50.04z"/>
     <path class="fil3" d="M1557.87 1729.8l-519.21 -899.01c-1.22,0.61 -2.46,1.2 -3.7,1.74 -4.97,2.69 -10.24,4.87 -15.75,6.49l297.59 1111.98c2.78,0.21 5.55,0.38 8.32,0.48l18.64 -11.95c86.19,-55.26 157.76,-127.23 214.11,-209.73z"/>
    </g>
    <path class="fil4" d="M748.01 2003.36c-20.38,1.57 -40.08,0.05 -58.55,-6.47 -34.31,-12.02 -58.69,-23.36 -80.55,-36.76l-0.19 -0.12c-215.6,-150.39 -359.59,-421.99 -359.59,-732.13 0,-473.17 335,-856.69 748.17,-856.69 413.22,0 748.13,383.52 748.13,856.69 0,321.31 -154.51,601.35 -383.03,747.88l0.14 0.19c-12.65,9.33 -25.27,17.5 -36.47,17.16 -33.3,-0.94 -62.96,-7.61 -90.46,-16.45 -88.55,-28.45 -155.12,-79.27 -252.25,-33.35 -32.04,15.12 -42.74,36.23 -54.86,54.36 -8.27,12.38 -17.23,23.39 -34.14,30.12 -12.46,4.95 -26.42,4.65 -36.89,15.08 21.57,49.24 71.47,64.63 122.31,15.27 89.42,-86.78 214.17,60.51 292.06,150.24 29.13,33.59 80.26,31.58 119.88,23.41 14.42,-3.83 28.52,-8.85 42.24,-14.91 28.91,-12.77 47.18,-36.71 73.18,-58.25 238.77,-197.94 364.85,-723.09 364.85,-930.75 0,-553.19 -391.63,-1001.63 -874.69,-1001.63 -483.06,0 -874.72,448.43 -874.72,1001.63 0,371.73 169.97,786.34 432.7,959.17 3.15,1.84 9.99,-0.7 18.42,-5.5 -8.45,4.82 -15.34,7.46 -18.56,5.74 32.13,16.36 67,30.75 104.42,38.46 29.8,13.16 57.07,18.12 79.22,13.69 22.83,-4.61 49.36,-11.92 105.83,-66.69 31.84,-30.95 63.42,-19.39 81.79,15.12 41.29,-4.26 48.37,-10.88 70.86,26 63.66,0.78 32.71,-10.66 73.33,25.93 19.75,3.88 45.53,-9.14 64.48,18.61 18.56,27.14 -9.57,6.71 36.45,58.98 17.67,20.04 80.48,117.31 93.71,17.33 -21.37,-16.74 -96.37,-104.95 -100.69,-120.22 22.92,5.89 98.96,96.79 104.76,111.79 17.08,4.31 27.55,8.29 45.36,-5.82 9.74,-36.61 -15.9,-53.97 -33.63,-73.67 -52.2,-58.23 -166.29,-204.5 -250.09,-194.76 -32.98,3.88 -40.61,31.14 -65.94,45.12 -58.26,31.99 -136.99,-12.53 -126.08,-74.1 41.85,-21.42 46.48,-10.66 59.44,-22.25 7.46,-6.59 17.67,-20.58 39.09,-52.05 -31.94,4.22 -58.4,24.01 -95.67,33.44 -31.67,9.77 -63.47,18.85 -93.76,21.16z"/>
    <path class="fil5" d="M846.1 2206.05c-11.83,13.25 -19.95,22.39 -32.62,34.92 -13.35,13.25 -72,64.41 -24.98,82.1 25.44,9.57 36.78,-11.83 47.78,-23.12 39.09,-40.03 83.85,-68.85 65.51,-106.7 -2.79,-3.52 -5.72,-6.25 -8.8,-8.19 -11.27,-1.79 -18.9,-1.16 -24.86,1.21 -3.08,1.91 -6.28,4.48 -9.57,7.68l-11.15 10.61 -0.12 0.15 -0.07 0.05 -1.11 1.28zm-278.27 -1648.07c127.18,-74.76 275.29,-117.73 433.46,-117.73 147.73,0 286.73,37.42 408.01,103.26 -112.88,-90.12 -252.26,-145.47 -411.98,-145.47 -168.08,0 -313.6,61.29 -429.49,159.94zm1038.66 1530.97c249.09,-202.95 396.07,-444.92 396.07,-792.33 0,-308.85 -139.87,-584.99 -359.67,-768.65 158.9,192.53 249.12,450.39 249.12,706.76 0,234.53 -116.03,633.62 -285.51,854.21zm-1272.92 -1538.36c-204.7,183.32 -333.57,449.62 -333.57,746.04 0,344.74 174.31,648.77 439.56,828.89 -223.28,-218.92 -336.96,-595.16 -336.96,-890.78 0,-246.45 83.34,-494.28 230.97,-684.15zm645.72 1721.95c-15.03,15.61 -69.72,68.41 -77.69,81.91 -13.64,22.88 -3.03,48.98 22.56,47.69 19.53,-0.99 32.25,-23.72 45.17,-35.84l77.69 -80.16c4.1,-6.74 5.81,-21.01 2.47,-32.16 -4.82,-4.99 -9.57,-10.2 -14.23,-14.49 -3.23,-0.1 -6.79,-0.03 -10.49,0.12 -10.91,2.86 -25.74,12.5 -45.49,32.93zm-125.72 101.1c17.2,-0.77 122.11,-114.11 122.16,-114.16 6.03,-8.77 6.98,-20.28 3.52,-29.93 -4.29,-6.88 -7.59,-11.41 -10.76,-14.3 -3.64,-2.45 -8.05,-4.05 -13.09,-4.41l-0.12 0c-2.98,0.17 -6.42,0.77 -10.62,1.48 -14.73,5.19 -25.66,22.12 -34.65,31.58 -15.22,15.87 -70.37,66.4 -79.12,80.41 -14,22.49 -3.49,50.43 22.68,49.34zm203.39 -78.37c-19.6,21.42 -59.13,54.91 -73.28,76.53 -13.4,20.43 -6.54,45.9 17.84,48.27 22.08,2.16 31.48,-16.21 43.11,-28.93l73.86 -75c6.37,-8.65 7.25,-26.05 1.31,-37.83l-1.21 -1.74c-5.14,-7.51 -12.38,-9.57 -20.48,-9.94 -10.28,1.6 -23.87,9.79 -41.15,28.64zm42.11 74.4c-12.91,4.53 -13.5,7.22 -24.69,18.32 -11.44,11.34 -14.49,9.43 -13.35,26.68 16.6,9.28 10.11,8.63 31.77,6.28l4.92 -4.31c0.44,-0.29 1.87,-1.33 2.31,-1.62 6.32,-4.12 0.73,-1.53 5.98,-2.01 4.44,-26.88 6.64,-25.59 -6.93,-43.33zm9.5 -14.37c6.28,8.09 7.85,13.26 16.04,22.83 6.06,7.07 8.94,11.92 15.15,18.95 23.46,26.56 51.52,7.61 51.42,-18.2 -13.4,-14.08 -25.08,-30.56 -34.65,-41.41 -5.09,-5.79 -10.81,-11.8 -16.04,-18.15 -13.08,11.99 -24.38,25.06 -31.92,35.98z"/>
    <polygon class="fil6" points="1495.4,142.46 1515.75,205.49 1581.97,205.36 1528.32,244.18 1548.91,307.13 1495.4,268.1 1441.89,307.13 1462.48,244.18 1408.82,205.36 1475.05,205.49 "/>
    <polygon class="fil6" points="1709.05,370.64 1722.98,413.79 1768.33,413.71 1731.59,440.29 1745.69,483.4 1709.05,456.67 1672.42,483.4 1686.51,440.29 1649.77,413.71 1695.12,413.79 "/>
    <g>
     <polygon class="fil7" points="1187.4,0 1211.79,75.58 1291.21,75.43 1226.87,121.99 1251.56,197.48 1187.4,150.67 1123.23,197.48 1147.92,121.99 1083.57,75.43 1163,75.58 "/>
     <polygon class="fil8" points="807.15,0 782.75,75.58 703.32,75.43 767.67,121.99 742.99,197.48 807.15,150.67 871.32,197.48 846.63,121.99 910.97,75.43 831.55,75.58 "/>
    </g>
    <polygon class="fil6" points="513.18,142.46 492.83,205.49 426.6,205.36 480.26,244.18 459.66,307.13 513.18,268.1 566.69,307.13 546.09,244.18 599.75,205.36 533.52,205.49 "/>
    <polygon class="fil6" points="311.29,370.64 297.36,413.8 252.01,413.71 288.75,440.3 274.66,483.4 311.29,456.68 347.93,483.4 333.84,440.3 370.58,413.71 325.23,413.8 "/>
   </g>
  </g>
 </g>
</svg>
