<?xml version="1.0" encoding="UTF-8"?>
<!DOCTYPE svg PUBLIC "-//W3C//DTD SVG 1.1//EN" "http://www.w3.org/Graphics/SVG/1.1/DTD/svg11.dtd">
<!-- Creator: CorelDRAW -->
<svg xmlns="http://www.w3.org/2000/svg" xml:space="preserve" width="51.7776mm" height="62.6343mm" version="1.1" style="shape-rendering:geometricPrecision; text-rendering:geometricPrecision; image-rendering:optimizeQuality; fill-rule:evenodd; clip-rule:evenodd"
viewBox="0 0 517.45 625.94"
 xmlns:xlink="http://www.w3.org/1999/xlink"
 xmlns:xodm="http://www.corel.com/coreldraw/odm/2003">
 <defs>
  <style type="text/css">
   <![CDATA[
    .fil3 {fill:#E62129}
    .fil0 {fill:#CFE17C}
    .fil4 {fill:url(#id0)}
    .fil1 {fill:url(#id1)}
    .fil2 {fill:url(#id2)}
    .fil5 {fill:url(#id3)}
   ]]>
  </style>
  <linearGradient id="id0" gradientUnits="userSpaceOnUse" x1="264.69" y1="49.15" x2="263.47" y2="-12.63">
   <stop offset="0" style="stop-opacity:1; stop-color:#E62129"/>
   <stop offset="0.65098" style="stop-opacity:1; stop-color:#F28815"/>
   <stop offset="1" style="stop-opacity:1; stop-color:#FFF000"/>
  </linearGradient>
  <linearGradient id="id1" gradientUnits="userSpaceOnUse" x1="251.51" y1="58.55" x2="258.91" y2="779.99">
   <stop offset="0" style="stop-opacity:1; stop-color:#009B4C"/>
   <stop offset="1" style="stop-opacity:1; stop-color:#63973D"/>
  </linearGradient>
  <linearGradient id="id2" gradientUnits="userSpaceOnUse" x1="262.2" y1="103.25" x2="233.2" y2="689.33">
   <stop offset="0" style="stop-opacity:1; stop-color:#6B9F3C"/>
   <stop offset="1" style="stop-opacity:1; stop-color:#CFE17C"/>
  </linearGradient>
  <linearGradient id="id3" gradientUnits="userSpaceOnUse" xlink:href="#id0" x1="264.69" y1="49.15" x2="263.47" y2="-12.63">
  </linearGradient>
 </defs>
 <g id="Layer_x0020_1">
  <metadata id="CorelCorpID_0Corel-Layer"/>
  <g id="_2338191034656">
   <g>
    <path class="fil0" d="M236.74 191.22l-107.41 -28.61c-9.21,10.32 -17.34,21.61 -24.34,33.62l131.1 0c0,-1.73 0.23,-3.4 0.65,-5z"/>
    <path class="fil0" d="M155.75 138.13l83.19 47.92c0.97,-1.6 2.16,-3.06 3.53,-4.32l-60.34 -60.27c-9.36,4.83 -18.16,10.42 -26.38,16.68z"/>
    <path class="fil0" d="M207.81 110.73l39.19 67.86c1.6,-0.8 3.32,-1.4 5.13,-1.74l-19.29 -72.08c-8.48,1.32 -16.84,3.31 -25.03,5.96z"/>
    <path class="fil0" d="M282.54 104.77l-19.23 71.84c-1.63,-0.48 -3.35,-0.75 -5.12,-0.81l0 -72.94c8.19,0.02 16.32,0.67 24.35,1.92z"/>
    <path class="fil0" d="M268.38 178.59l39.19 -67.87c4.64,1.5 9.23,3.21 13.74,5.12 4.08,1.73 8.06,3.6 11.94,5.61l-60.35 60.28c-1.35,-1.24 -2.87,-2.3 -4.53,-3.14z"/>
    <path class="fil0" d="M276.44 186.05l83.2 -47.92c9.61,7.31 18.42,15.53 26.41,24.48l-107.42 28.61c-0.49,-1.84 -1.23,-3.58 -2.19,-5.18z"/>
    <path class="fil0" d="M175.29 503.54l76.71 -286.63c1.66,0.45 3.39,0.7 5.19,0.72l0 271.69c-1.68,0.58 -3.4,1.25 -5.16,2.02l-11.02 1.46c-9.56,1.27 -16.83,6.59 -25.8,8.85l-0.23 0.06 -0.23 0.07c-7.09,2.19 -14.83,4.53 -22.26,5.1 -3.83,0.29 -7.76,0.1 -11.41,-1.19 -1.95,-0.69 -3.89,-1.4 -5.79,-2.16z"/>
    <path class="fil0" d="M246.93 214.79l-134.09 232.17c-15.15,-22.15 -26.04,-47.23 -32.51,-73.47l162.14 -161.95c0.77,0.71 1.6,1.36 2.48,1.94 0.63,0.47 1.3,0.91 1.98,1.31z"/>
    <path class="fil0" d="M238.94 207.21l-165.31 95.22c1.1,-20.25 4.77,-40.46 10.91,-59.85l152.21 -40.55c0.49,1.84 1.23,3.58 2.19,5.18z"/>
    <path class="fil0" d="M278.64 202.04l152.21 40.55c-5.03,-15.89 -11.71,-31.22 -19.98,-45.55l-131.58 0c-0,1.73 -0.23,3.41 -0.65,5z"/>
    <path class="fil0" d="M441.75 302.43l-165.31 -95.22c-0.97,1.6 -2.16,3.06 -3.53,4.32l162.13 161.94c4.69,-19 7.07,-38.59 7.07,-58.12 0,-4.31 -0.12,-8.62 -0.36,-12.93z"/>
    <path class="fil0" d="M402.54 446.97l-134.16 -232.3c-0.31,0.16 -0.63,0.31 -0.96,0.45 -1.28,0.69 -2.65,1.26 -4.07,1.68l76.9 287.33c0.72,0.05 1.44,0.1 2.15,0.12l4.82 -3.09c22.27,-14.28 40.76,-32.88 55.32,-54.19z"/>
   </g>
   <path class="fil1" d="M193.28 517.66c-5.27,0.41 -10.36,0.01 -15.13,-1.67 -8.87,-3.11 -15.17,-6.04 -20.81,-9.5l-0.05 -0.03c-55.71,-38.86 -92.92,-109.04 -92.92,-189.18 0,-122.27 86.56,-221.36 193.32,-221.36 106.77,0 193.31,99.1 193.31,221.36 0,83.02 -39.92,155.38 -98.97,193.25l0.04 0.05c-3.27,2.41 -6.53,4.52 -9.42,4.43 -8.6,-0.24 -16.27,-1.97 -23.37,-4.25 -22.88,-7.35 -40.08,-20.48 -65.18,-8.62 -8.28,3.91 -11.04,9.36 -14.18,14.05 -2.14,3.2 -4.45,6.04 -8.82,7.78 -3.22,1.28 -6.83,1.2 -9.53,3.9 5.57,12.72 18.47,16.7 31.6,3.94 23.11,-22.42 55.34,15.64 75.47,38.82 7.53,8.68 20.74,8.16 30.98,6.05 3.73,-0.99 7.37,-2.29 10.91,-3.85 7.47,-3.3 12.19,-9.49 18.91,-15.05 61.7,-51.15 94.28,-186.84 94.28,-240.5 0,-142.94 -101.19,-258.81 -226.02,-258.81 -124.82,0 -226.02,115.87 -226.02,258.81 0,96.05 43.92,203.19 111.81,247.84 0.81,0.48 2.58,-0.18 4.76,-1.42 -2.18,1.25 -3.96,1.93 -4.8,1.48 8.3,4.23 17.31,7.95 26.98,9.94 7.7,3.4 14.75,4.68 20.47,3.54 5.9,-1.19 12.75,-3.08 27.34,-17.23 8.23,-8 16.39,-5.01 21.13,3.91 10.67,-1.1 12.5,-2.81 18.31,6.72 16.45,0.2 8.45,-2.75 18.95,6.7 5.1,1 11.77,-2.36 16.66,4.81 4.8,7.01 -2.47,1.73 9.42,15.24 4.57,5.18 20.79,30.31 24.21,4.48 -5.52,-4.33 -24.9,-27.12 -26.02,-31.06 5.92,1.52 25.57,25.01 27.07,28.89 4.41,1.11 7.12,2.14 11.72,-1.5 2.52,-9.46 -4.11,-13.95 -8.69,-19.04 -13.49,-15.05 -42.97,-52.84 -64.62,-50.32 -8.52,1 -10.49,8.05 -17.04,11.66 -15.05,8.27 -35.4,-3.24 -32.58,-19.15 10.81,-5.54 12.01,-2.76 15.36,-5.75 1.93,-1.7 4.57,-5.32 10.1,-13.45 -8.25,1.09 -15.09,6.21 -24.72,8.64 -8.18,2.52 -16.4,4.87 -24.23,5.47z"/>
   <path class="fil2" d="M218.63 570.03c-3.06,3.42 -5.15,5.79 -8.43,9.02 -3.45,3.42 -18.6,16.64 -6.45,21.21 6.57,2.47 9.5,-3.06 12.35,-5.97 10.1,-10.34 21.67,-17.79 16.93,-27.57 -0.72,-0.91 -1.48,-1.62 -2.27,-2.12 -2.91,-0.46 -4.88,-0.3 -6.42,0.31 -0.8,0.49 -1.62,1.16 -2.47,1.99l-2.88 2.74 -0.03 0.04 -0.02 0.01 -0.29 0.33zm-71.9 -425.85c32.86,-19.32 71.13,-30.42 112,-30.42 38.17,0 74.09,9.67 105.43,26.68 -29.17,-23.29 -65.18,-37.59 -106.45,-37.59 -43.43,0 -81.03,15.84 -110.98,41.33zm268.38 395.59c64.36,-52.44 102.34,-114.96 102.34,-204.73 0,-79.81 -36.14,-151.16 -92.94,-198.61 41.06,49.75 64.37,116.38 64.37,182.62 0,60.6 -29.98,163.72 -73.78,220.72zm-328.91 -397.5c-52.89,47.37 -86.19,116.18 -86.19,192.77 0,89.08 45.04,167.64 113.58,214.18 -57.7,-56.57 -87.07,-153.79 -87.07,-230.17 0,-63.68 21.53,-127.72 59.68,-176.78zm166.85 444.94c-3.88,4.03 -18.01,17.68 -20.08,21.16 -3.52,5.91 -0.78,12.65 5.83,12.32 5.05,-0.26 8.33,-6.13 11.67,-9.26l20.08 -20.71c1.06,-1.74 1.5,-5.43 0.64,-8.31 -1.25,-1.29 -2.47,-2.64 -3.68,-3.74 -0.83,-0.02 -1.75,-0.01 -2.71,0.03 -2.82,0.74 -6.65,3.23 -11.75,8.51zm-32.49 26.12c4.45,-0.2 31.55,-29.49 31.56,-29.5 1.56,-2.27 1.8,-5.24 0.91,-7.73 -1.11,-1.78 -1.96,-2.95 -2.78,-3.69 -0.94,-0.63 -2.08,-1.05 -3.38,-1.14l-0.03 0c-0.77,0.04 -1.66,0.2 -2.74,0.38 -3.81,1.34 -6.63,5.72 -8.95,8.16 -3.93,4.1 -18.18,17.16 -20.44,20.78 -3.62,5.81 -0.9,13.03 5.86,12.75zm52.55 -20.25c-5.07,5.54 -15.28,14.19 -18.94,19.77 -3.46,5.28 -1.69,11.86 4.61,12.47 5.7,0.56 8.13,-4.19 11.14,-7.48l19.09 -19.38c1.65,-2.24 1.87,-6.73 0.34,-9.77l-0.31 -0.45c-1.33,-1.94 -3.2,-2.47 -5.29,-2.57 -2.66,0.41 -6.17,2.53 -10.63,7.4zm10.88 19.22c-3.34,1.17 -3.49,1.87 -6.38,4.73 -2.96,2.93 -3.74,2.44 -3.45,6.89 4.29,2.4 2.61,2.23 8.21,1.62l1.27 -1.11c0.11,-0.07 0.48,-0.34 0.6,-0.42 1.63,-1.06 0.19,-0.39 1.55,-0.52 1.15,-6.94 1.72,-6.61 -1.79,-11.2zm2.45 -3.71c1.62,2.09 2.03,3.43 4.15,5.9 1.57,1.83 2.31,3.08 3.91,4.9 6.06,6.86 13.31,1.97 13.29,-4.7 -3.46,-3.64 -6.48,-7.9 -8.95,-10.7 -1.32,-1.5 -2.79,-3.05 -4.15,-4.69 -3.38,3.1 -6.3,6.47 -8.25,9.3z"/>
   <polygon class="fil3" points="386.4,36.81 391.66,53.1 408.77,53.06 394.91,63.09 400.23,79.36 386.4,69.28 372.57,79.36 377.9,63.09 364.03,53.06 381.14,53.1 "/>
   <polygon class="fil3" points="441.61,95.77 445.21,106.92 456.93,106.9 447.43,113.77 451.07,124.91 441.61,118 432.14,124.91 435.78,113.77 426.29,106.9 438.01,106.92 "/>
   <g>
    <polygon class="fil4" points="306.82,0 313.12,19.53 333.64,19.49 317.02,31.52 323.4,51.03 306.82,38.93 290.24,51.03 296.61,31.52 279.99,19.49 300.51,19.53 "/>
    <polygon class="fil5" points="208.56,0 202.26,19.53 181.73,19.49 198.36,31.52 191.98,51.03 208.56,38.93 225.14,51.03 218.76,31.52 235.39,19.49 214.87,19.53 "/>
   </g>
   <polygon class="fil3" points="132.6,36.81 127.34,53.1 110.23,53.06 124.1,63.09 118.77,79.36 132.6,69.28 146.43,79.36 141.11,63.09 154.97,53.06 137.86,53.1 "/>
   <polygon class="fil3" points="80.44,95.77 76.84,106.92 65.12,106.9 74.61,113.77 70.97,124.91 80.44,118 89.9,124.91 86.26,113.77 95.76,106.9 84.04,106.92 "/>
  </g>
 </g>
</svg>
