<?xml version="1.0" encoding="UTF-8"?>
<!DOCTYPE svg PUBLIC "-//W3C//DTD SVG 1.1//EN" "http://www.w3.org/Graphics/SVG/1.1/DTD/svg11.dtd">
<!-- Creator: CorelDRAW -->
<svg xmlns="http://www.w3.org/2000/svg" xml:space="preserve" width="138.094mm" height="41.6893mm" version="1.1" style="shape-rendering:geometricPrecision; text-rendering:geometricPrecision; image-rendering:optimizeQuality; fill-rule:evenodd; clip-rule:evenodd"
viewBox="0 0 4845.88 1462.93"
 xmlns:xlink="http://www.w3.org/1999/xlink"
 xmlns:xodm="http://www.corel.com/coreldraw/odm/2003">
 <defs>
  <style type="text/css">
   <![CDATA[
    .fil2 {fill:#332C2B;fill-rule:nonzero}
    .fil1 {fill:#009B4C;fill-rule:nonzero}
    .fil0 {fill:url(#id0);fill-rule:nonzero}
   ]]>
  </style>
  <linearGradient id="id0" gradientUnits="userSpaceOnUse" x1="1633.94" y1="402.63" x2="1633.4" y2="-73.86">
   <stop offset="0" style="stop-opacity:1; stop-color:#E62129"/>
   <stop offset="0.329412" style="stop-opacity:1; stop-color:#E62129"/>
   <stop offset="0.529412" style="stop-opacity:1; stop-color:#E62129"/>
   <stop offset="1" style="stop-opacity:1; stop-color:#F8B739"/>
  </linearGradient>
 </defs>
 <g id="Layer_x0020_1">
  <metadata id="CorelCorpID_0Corel-Layer"/>
  <g id="_2338193175328">
   <path class="fil0" d="M97.68 175.12l15.61 0c14.44,0 24.84,-4.53 31.21,-13.58l94.79 -137.56c5.2,-7.52 11.18,-12.62 17.82,-15.31 6.65,-2.71 14.75,-4.05 24.38,-4.05l84.97 0 -124.84 170.4c-4.45,6.18 -9.07,11.28 -13.89,15.32 -4.81,4.05 -9.72,7.42 -14.73,10.2 7.33,2.7 14.06,6.37 20.14,11.09 6.06,4.72 11.55,11.09 16.55,18.97l127.16 195.37 -87.27 0c-5.6,0 -10.32,-0.38 -14.27,-1.15 -3.95,-0.76 -7.4,-1.94 -10.3,-3.47 -2.9,-1.53 -5.39,-3.47 -7.52,-5.68 -2.11,-2.22 -4.14,-4.74 -6.06,-7.61l-95.36 -146.52c-3.47,-5.41 -7.81,-9.26 -13.12,-11.47 -5.29,-2.22 -12.5,-3.28 -21.58,-3.28l-23.69 0 0 179.18 -97.68 0 0 -421.35 97.68 0 0 170.49zm549.67 -84.85c-2.9,4.63 -5.87,8.08 -9.05,10.4 -3.18,2.22 -7.33,3.38 -12.33,3.38 -4.43,0 -9.15,-1.36 -14.25,-4.14 -5.12,-2.8 -10.89,-5.98 -17.34,-9.44 -6.46,-3.47 -13.89,-6.56 -22.17,-9.36 -8.29,-2.78 -17.72,-4.24 -28.31,-4.24 -18.32,0 -31.89,3.95 -40.85,11.76 -8.96,7.81 -13.48,18.3 -13.48,31.61 0,8.48 2.7,15.5 8.09,21.2 5.39,5.58 12.52,10.39 21.29,14.44 8.77,4.05 18.78,7.71 30.06,11.07 11.28,3.38 22.73,7.14 34.49,11.28 11.76,4.14 23.3,9.05 34.58,14.65 11.28,5.58 21.29,12.72 30.06,21.38 8.77,8.67 15.81,19.26 21.2,31.69 5.39,12.43 8.1,27.44 8.1,44.98 0,19.47 -3.38,37.67 -10.11,54.63 -6.75,16.95 -16.48,31.8 -29.29,44.42 -12.81,12.62 -28.62,22.54 -47.39,29.77 -18.8,7.21 -40.18,10.87 -64.06,10.87 -13.1,0 -26.39,-1.34 -39.99,-3.95 -13.58,-2.69 -26.77,-6.45 -39.49,-11.26 -12.72,-4.83 -24.67,-10.6 -35.83,-17.26 -11.18,-6.64 -20.91,-14.06 -29.19,-22.15l28.9 -46.44c2.11,-3.45 5.1,-6.35 8.96,-8.48 3.86,-2.11 8,-3.17 12.43,-3.17 5.77,0 11.64,1.82 17.53,5.49 5.87,3.66 12.52,7.71 19.93,12.14 7.42,4.43 15.9,8.47 25.53,12.14 9.65,3.66 21,5.49 34.1,5.49 17.74,0 31.51,-3.95 41.33,-11.76 9.82,-7.81 14.73,-20.12 14.73,-37.07 0,-9.94 -2.69,-17.94 -8.08,-24.09 -5.41,-6.16 -12.43,-11.28 -21.19,-15.32 -8.77,-4.05 -18.8,-7.6 -29.96,-10.69 -11.18,-3.09 -22.65,-6.46 -34.39,-10.22 -11.76,-3.74 -23.23,-8.36 -34.39,-13.96 -11.18,-5.49 -21.1,-12.72 -29.86,-21.68 -8.77,-8.96 -15.9,-20.14 -21.29,-33.53 -5.41,-13.39 -8.1,-29.96 -8.1,-49.6 0,-15.81 3.17,-31.23 9.53,-46.24 6.35,-15.04 15.71,-28.52 28.04,-40.26 12.31,-11.76 27.44,-21.1 45.36,-28.14 17.91,-7.04 38.44,-10.59 61.55,-10.59 12.91,0 25.53,1.06 37.77,3.07 12.24,2.03 23.8,5.01 34.77,9.05 10.99,3.95 21.29,8.77 30.84,14.27 9.53,5.58 18.01,11.84 25.53,18.88l-24.28 44.99zm176.28 194.68l0 140.74 -97.68 0 0 -421.66 148.55 0c29.67,0 55.2,3.57 76.49,10.61 21.29,7.04 38.82,16.76 52.59,29.09 13.77,12.33 23.9,26.87 30.44,43.73 6.56,16.77 9.82,34.97 9.82,54.43 0,21 -3.36,40.35 -10.11,57.89 -6.75,17.63 -17.05,32.66 -30.92,45.19 -13.87,12.52 -31.42,22.34 -52.71,29.38 -21.29,7.02 -46.51,10.59 -75.61,10.59l-50.86 0zm0 -73.98l50.86 0c25.43,0 43.73,-6.08 54.91,-18.2 11.16,-12.14 16.76,-29.1 16.76,-50.87 0,-9.65 -1.46,-18.41 -4.34,-26.29 -2.9,-7.9 -7.23,-14.75 -13.12,-20.43 -5.87,-5.7 -13.29,-10.03 -22.25,-13.1 -8.96,-3.09 -19.64,-4.63 -31.98,-4.63l-50.86 0 0 133.52zm368.76 73.98l0 140.74 -97.68 0 0 -421.66 148.55 0c29.67,0 55.2,3.57 76.49,10.61 21.29,7.04 38.82,16.76 52.59,29.09 13.77,12.33 23.9,26.87 30.44,43.73 6.56,16.77 9.82,34.97 9.82,54.43 0,21 -3.36,40.35 -10.11,57.89 -6.75,17.63 -17.05,32.66 -30.92,45.19 -13.86,12.52 -31.41,22.34 -52.71,29.38 -21.29,7.02 -46.51,10.59 -75.61,10.59l-50.86 0zm0 -73.98l50.86 0c25.43,0 43.73,-6.08 54.91,-18.2 11.16,-12.14 16.76,-29.1 16.76,-50.87 0,-9.65 -1.46,-18.41 -4.33,-26.29 -2.9,-7.9 -7.23,-14.75 -13.12,-20.43 -5.87,-5.7 -13.29,-10.03 -22.25,-13.1 -8.96,-3.09 -19.64,-4.63 -31.98,-4.63l-50.86 0 0 133.52zm505.74 -120.7c-2.9,4.63 -5.87,8.08 -9.05,10.4 -3.18,2.22 -7.33,3.38 -12.33,3.38 -4.43,0 -9.15,-1.36 -14.25,-4.14 -5.12,-2.8 -10.9,-5.98 -17.34,-9.44 -6.46,-3.47 -13.89,-6.56 -22.17,-9.36 -8.29,-2.78 -17.72,-4.24 -28.31,-4.24 -18.32,0 -31.9,3.95 -40.86,11.76 -8.96,7.81 -13.48,18.3 -13.48,31.61 0,8.48 2.71,15.5 8.1,21.2 5.39,5.58 12.52,10.39 21.29,14.44 8.76,4.05 18.78,7.71 30.05,11.07 11.28,3.38 22.73,7.14 34.49,11.28 11.76,4.14 23.3,9.05 34.58,14.65 11.28,5.58 21.29,12.72 30.06,21.38 8.77,8.67 15.8,19.26 21.19,31.69 5.39,12.43 8.1,27.44 8.1,44.98 0,19.47 -3.38,37.67 -10.11,54.63 -6.75,16.95 -16.48,31.8 -29.29,44.42 -12.81,12.62 -28.62,22.54 -47.39,29.77 -18.79,7.21 -40.18,10.87 -64.06,10.87 -13.1,0 -26.39,-1.34 -39.99,-3.95 -13.58,-2.69 -26.77,-6.45 -39.49,-11.26 -12.72,-4.83 -24.67,-10.6 -35.83,-17.26 -11.18,-6.64 -20.91,-14.06 -29.19,-22.15l28.9 -46.44c2.11,-3.45 5.1,-6.35 8.96,-8.48 3.85,-2.11 8,-3.17 12.43,-3.17 5.77,0 11.64,1.82 17.53,5.49 5.87,3.66 12.52,7.71 19.93,12.14 7.42,4.43 15.9,8.47 25.53,12.14 9.65,3.66 21,5.49 34.1,5.49 17.74,0 31.52,-3.95 41.33,-11.76 9.82,-7.81 14.73,-20.12 14.73,-37.07 0,-9.94 -2.68,-17.94 -8.07,-24.09 -5.41,-6.16 -12.43,-11.28 -21.2,-15.32 -8.77,-4.05 -18.79,-7.6 -29.96,-10.69 -11.18,-3.09 -22.65,-6.46 -34.39,-10.22 -11.76,-3.74 -23.23,-8.36 -34.39,-13.96 -11.18,-5.49 -21.1,-12.72 -29.86,-21.68 -8.77,-8.96 -15.9,-20.14 -21.29,-33.53 -5.41,-13.39 -8.1,-29.96 -8.1,-49.6 0,-15.81 3.17,-31.23 9.53,-46.24 6.35,-15.04 15.71,-28.52 28.04,-40.26 12.31,-11.76 27.44,-21.1 45.36,-28.14 17.91,-7.04 38.44,-10.59 61.55,-10.59 12.91,0 25.53,1.06 37.77,3.07 12.24,2.03 23.8,5.01 34.78,9.05 10.99,3.95 21.29,8.77 30.84,14.27 9.53,5.58 18.01,11.84 25.53,18.88l-24.28 44.99zm190.15 335.71l0 -421.35 154.9 0c29.09,0 53.86,2.68 74.28,8.07 20.41,5.51 37.07,13.12 49.98,22.94 12.91,9.92 22.37,21.87 28.23,36.02 5.87,14.17 8.77,29.86 8.77,47.3 0,9.44 -1.34,18.61 -4.05,27.47 -2.71,8.77 -6.94,17.05 -12.72,24.74 -5.77,7.81 -13.2,14.85 -22.25,21.1 -9.05,6.27 -19.95,11.76 -32.67,16.38 27.75,6.75 48.26,17.63 61.57,32.76 13.29,15.02 19.93,34.39 19.93,57.98 0,17.94 -3.47,34.6 -10.39,49.91 -6.94,15.42 -17.05,28.81 -30.44,40.26 -13.39,11.37 -29.96,20.33 -49.62,26.79 -19.64,6.45 -42.1,9.63 -67.34,9.63l-168.19 0zm97.68 -178.6l0 104.63 68.78 0c12.91,0 23.5,-1.65 31.69,-4.91 8.19,-3.28 14.56,-7.52 19.18,-12.62 4.62,-5.22 7.8,-11.09 9.53,-17.63 1.73,-6.56 2.61,-13.22 2.61,-19.85 0,-7.71 -0.98,-14.65 -2.99,-20.81 -2.01,-6.16 -5.48,-11.37 -10.4,-15.51 -4.93,-4.24 -11.47,-7.5 -19.56,-9.82 -8.09,-2.3 -18.3,-3.47 -30.63,-3.47l-68.2 0zm0 -65.31l50.86 0c10.78,0 20.52,-0.77 29.19,-2.32 8.67,-1.53 16.08,-4.24 22.15,-8.07 6.06,-3.85 10.69,-9.17 13.87,-15.9 3.18,-6.75 4.72,-15.23 4.72,-25.43 0,-10.02 -1.25,-18.39 -3.76,-25.05 -2.49,-6.64 -6.35,-11.95 -11.55,-15.99 -5.22,-4.05 -11.76,-6.92 -19.76,-8.67 -8,-1.73 -17.53,-2.59 -28.52,-2.59l-57.22 0 0 104.04zm496.79 51.15c3.85,7.33 7.61,15.02 11.18,22.92 3.57,7.9 6.94,15.99 10.2,24.28 3.28,-8.48 6.75,-16.76 10.42,-24.76 3.66,-8 7.42,-15.78 11.26,-23.3l108.1 -213.28c1.92,-3.66 3.95,-6.46 5.97,-8.47 2.04,-2.01 4.24,-3.57 6.75,-4.53 2.49,-0.96 5.39,-1.44 8.57,-1.44 3.17,0 6.83,0 11.07,0l74.57 0 0 421.35 -86.12 0 0 -242.47c0,-11.74 0.58,-24.46 1.73,-38.15l-111.55 216.66c-3.47,6.75 -8.1,11.85 -13.96,15.32 -5.89,3.45 -12.62,5.2 -20.14,5.2l-13.29 0c-7.52,0 -14.16,-1.74 -20.04,-5.2 -5.87,-3.47 -10.59,-8.57 -14.06,-15.32l-112.13 -216.95c0.76,6.75 1.34,13.5 1.72,20.14 0.39,6.66 0.58,12.72 0.58,18.3l0 242.47 -86.12 0 0 -421.35 74.57 0c4.24,0 7.98,0 11.16,0 3.18,0 5.98,0.48 8.48,1.44 2.51,0.96 4.81,2.51 6.85,4.53 2.01,2.01 3.95,4.81 5.87,8.47l108.37 214.15zm633.21 -228.59l0 77.45 -118.5 0 0 343.9 -97.68 0 0 -343.9 -118.49 0 0 -77.45 334.67 0z"/>
   <path class="fil1" d="M426.01 1015.13l-75.72 0c-8.48,0 -15.42,-2.04 -20.91,-5.97 -5.48,-3.95 -9.34,-8.98 -11.47,-15.13l-24.84 -73.4 -160.12 0 -24.86 73.4c-1.92,5.39 -5.68,10.2 -11.26,14.54 -5.6,4.33 -12.43,6.56 -20.52,6.56l-76.3 0 162.99 -421.35 100.01 0 162.99 421.35zm-270.51 -161.08l115.02 0 -38.73 -113.57c-2.49,-7.23 -5.39,-15.71 -8.76,-25.53 -3.38,-9.72 -6.73,-20.33 -10.02,-31.7 -3.09,11.57 -6.27,22.27 -9.53,32.19 -3.28,9.82 -6.37,18.39 -9.26,25.62l-38.72 112.99zm539.27 -174.35c-2.9,4.62 -5.87,8.07 -9.05,10.4 -3.18,2.22 -7.33,3.38 -12.33,3.38 -4.43,0 -9.15,-1.37 -14.25,-4.14 -5.12,-2.8 -10.89,-5.98 -17.34,-9.44 -6.46,-3.47 -13.89,-6.56 -22.17,-9.36 -8.29,-2.78 -17.72,-4.24 -28.31,-4.24 -18.32,0 -31.89,3.95 -40.85,11.76 -8.96,7.81 -13.48,18.3 -13.48,31.61 0,8.48 2.7,15.5 8.09,21.19 5.39,5.58 12.52,10.4 21.29,14.44 8.77,4.05 18.78,7.71 30.06,11.07 11.28,3.38 22.73,7.13 34.49,11.28 11.76,4.14 23.3,9.05 34.58,14.65 11.28,5.58 21.29,12.71 30.06,21.38 8.77,8.67 15.81,19.26 21.2,31.68 5.39,12.43 8.1,27.45 8.1,44.98 0,19.47 -3.38,37.67 -10.11,54.62 -6.75,16.96 -16.48,31.8 -29.29,44.42 -12.81,12.62 -28.62,22.54 -47.39,29.77 -18.8,7.21 -40.18,10.87 -64.06,10.87 -13.1,0 -26.39,-1.34 -39.99,-3.95 -13.58,-2.68 -26.77,-6.44 -39.49,-11.26 -12.72,-4.84 -24.67,-10.61 -35.83,-17.26 -11.18,-6.64 -20.91,-14.06 -29.19,-22.15l28.9 -46.44c2.11,-3.45 5.1,-6.35 8.96,-8.48 3.86,-2.11 8,-3.17 12.43,-3.17 5.77,0 11.64,1.82 17.53,5.48 5.87,3.66 12.52,7.71 19.93,12.14 7.42,4.43 15.9,8.48 25.53,12.14 9.65,3.66 21,5.48 34.1,5.48 17.74,0 31.51,-3.95 41.33,-11.76 9.82,-7.81 14.73,-20.12 14.73,-37.08 0,-9.93 -2.69,-17.93 -8.08,-24.09 -5.41,-6.16 -12.43,-11.28 -21.19,-15.32 -8.77,-4.05 -18.8,-7.59 -29.96,-10.68 -11.18,-3.09 -22.65,-6.46 -34.39,-10.23 -11.76,-3.74 -23.23,-8.36 -34.39,-13.96 -11.18,-5.48 -21.1,-12.71 -29.86,-21.67 -8.77,-8.96 -15.9,-20.14 -21.29,-33.53 -5.41,-13.39 -8.1,-29.96 -8.1,-49.6 0,-15.81 3.17,-31.22 9.53,-46.24 6.35,-15.04 15.71,-28.52 28.04,-40.26 12.31,-11.76 27.44,-21.1 45.36,-28.14 17.91,-7.04 38.44,-10.59 61.55,-10.59 12.91,0 25.53,1.06 37.77,3.07 12.24,2.03 23.8,5 34.77,9.05 10.99,3.95 21.29,8.76 30.84,14.27 9.53,5.58 18.01,11.83 25.53,18.87l-24.28 45zm470.49 335.42l-75.72 0c-8.48,0 -15.42,-2.04 -20.91,-5.97 -5.48,-3.95 -9.34,-8.98 -11.47,-15.13l-24.84 -73.4 -160.11 0 -24.86 73.4c-1.92,5.39 -5.68,10.2 -11.26,14.54 -5.6,4.33 -12.43,6.56 -20.52,6.56l-76.3 0 163 -421.35 100 0 163 421.35zm-270.52 -161.08l115.02 0 -38.72 -113.57c-2.49,-7.23 -5.39,-15.71 -8.77,-25.53 -3.38,-9.72 -6.73,-20.33 -10.01,-31.7 -3.09,11.57 -6.27,22.27 -9.53,32.19 -3.28,9.82 -6.37,18.39 -9.26,25.62l-38.72 112.99zm467.59 -259.99c4.24,0 7.8,0.19 10.7,0.58 2.88,0.39 5.49,1.06 7.79,2.11 2.32,1.05 4.52,2.61 6.65,4.53 2.11,1.94 4.53,4.52 7.23,7.8l199.97 252.87c-0.77,-8.1 -1.34,-15.99 -1.73,-23.59 -0.38,-7.61 -0.58,-14.75 -0.58,-21.48l0 -222.82 86.12 0 0 421.35 -50.87 0c-7.52,0 -13.86,-1.15 -19.07,-3.47 -5.21,-2.3 -10.22,-6.54 -15.04,-12.72l-198.53 -250.84c0.58,7.31 1.05,14.44 1.44,21.48 0.38,7.02 0.58,13.68 0.58,19.83l0 225.71 -86.12 0 0 -421.35 51.44 0zm560.65 343.9c13.1,0 24.86,-2.22 35.16,-6.56 10.32,-4.34 18.99,-10.49 26.1,-18.59 7.13,-8.09 12.62,-18.01 16.38,-29.67 3.76,-11.66 5.58,-24.86 5.58,-39.68l0 -249.4 97.68 0 0 249.59c0,25.82 -4.14,49.5 -12.52,71.08 -8.38,21.6 -20.41,40.28 -36.02,55.89 -15.61,15.59 -34.58,27.74 -56.93,36.4 -22.36,8.67 -47.49,13 -75.44,13 -28.14,0 -53.36,-4.33 -75.72,-13 -22.35,-8.67 -41.31,-20.81 -56.93,-36.4 -15.62,-15.61 -27.54,-34.29 -35.83,-55.89 -8.29,-21.58 -12.43,-45.26 -12.43,-71.08l0 -249.59 97.68 0 0 249.11c0,14.83 1.92,28.02 5.68,39.68 3.76,11.66 9.15,21.58 16.28,29.77 7.12,8.19 15.88,14.44 26.2,18.78 10.3,4.33 21.96,6.56 35.06,6.56zm479.16 -258.26c-2.9,4.62 -5.87,8.07 -9.05,10.4 -3.18,2.22 -7.32,3.38 -12.33,3.38 -4.43,0 -9.15,-1.37 -14.25,-4.14 -5.12,-2.8 -10.9,-5.98 -17.34,-9.44 -6.46,-3.47 -13.89,-6.56 -22.17,-9.36 -8.29,-2.78 -17.72,-4.24 -28.31,-4.24 -18.32,0 -31.9,3.95 -40.85,11.76 -8.96,7.81 -13.49,18.3 -13.49,31.61 0,8.48 2.71,15.5 8.1,21.19 5.39,5.58 12.52,10.4 21.29,14.44 8.77,4.05 18.78,7.71 30.06,11.07 11.28,3.38 22.73,7.13 34.48,11.28 11.76,4.14 23.3,9.05 34.58,14.65 11.28,5.58 21.29,12.71 30.06,21.38 8.77,8.67 15.81,19.26 21.2,31.68 5.39,12.43 8.09,27.45 8.09,44.98 0,19.47 -3.38,37.67 -10.11,54.62 -6.75,16.96 -16.48,31.8 -29.29,44.42 -12.82,12.62 -28.62,22.54 -47.39,29.77 -18.8,7.21 -40.18,10.87 -64.06,10.87 -13.1,0 -26.39,-1.34 -39.99,-3.95 -13.58,-2.68 -26.78,-6.44 -39.49,-11.26 -12.72,-4.84 -24.67,-10.61 -35.83,-17.26 -11.18,-6.64 -20.9,-14.06 -29.19,-22.15l28.9 -46.44c2.11,-3.45 5.1,-6.35 8.96,-8.48 3.86,-2.11 8,-3.17 12.43,-3.17 5.77,0 11.64,1.82 17.53,5.48 5.87,3.66 12.52,7.71 19.93,12.14 7.42,4.43 15.9,8.48 25.53,12.14 9.65,3.66 21,5.48 34.1,5.48 17.74,0 31.51,-3.95 41.33,-11.76 9.82,-7.81 14.73,-20.12 14.73,-37.08 0,-9.93 -2.68,-17.93 -8.07,-24.09 -5.41,-6.16 -12.43,-11.28 -21.2,-15.32 -8.76,-4.05 -18.79,-7.59 -29.96,-10.68 -11.18,-3.09 -22.65,-6.46 -34.39,-10.23 -11.76,-3.74 -23.23,-8.36 -34.39,-13.96 -11.18,-5.48 -21.1,-12.71 -29.87,-21.67 -8.77,-8.96 -15.9,-20.14 -21.29,-33.53 -5.41,-13.39 -8.09,-29.96 -8.09,-49.6 0,-15.81 3.17,-31.22 9.53,-46.24 6.35,-15.04 15.71,-28.52 28.04,-40.26 12.31,-11.76 27.45,-21.1 45.36,-28.14 17.91,-7.04 38.44,-10.59 61.55,-10.59 12.91,0 25.53,1.06 37.77,3.07 12.24,2.03 23.8,5 34.77,9.05 10.99,3.95 21.29,8.76 30.84,14.27 9.53,5.58 18.01,11.83 25.53,18.87l-24.28 45zm470.49 335.42l-75.72 0c-8.48,0 -15.42,-2.04 -20.9,-5.97 -5.49,-3.95 -9.34,-8.98 -11.47,-15.13l-24.84 -73.4 -160.12 0 -24.86 73.4c-1.92,5.39 -5.68,10.2 -11.26,14.54 -5.6,4.33 -12.43,6.56 -20.52,6.56l-76.3 0 162.99 -421.35 100.01 0 162.99 421.35zm-270.51 -161.08l115.02 0 -38.72 -113.57c-2.49,-7.23 -5.39,-15.71 -8.77,-25.53 -3.38,-9.72 -6.73,-20.33 -10.01,-31.7 -3.09,11.57 -6.27,22.27 -9.53,32.19 -3.28,9.82 -6.37,18.39 -9.26,25.62l-38.72 112.99zm356.04 -259.99c4.24,0 7.81,0.19 10.7,0.58 2.88,0.39 5.48,1.06 7.79,2.11 2.32,1.05 4.53,2.61 6.66,4.53 2.11,1.94 4.53,4.52 7.23,7.8l199.97 252.87c-0.77,-8.1 -1.34,-15.99 -1.73,-23.59 -0.39,-7.61 -0.58,-14.75 -0.58,-21.48l0 -222.82 86.12 0 0 421.35 -50.86 0c-7.52,0 -13.87,-1.15 -19.07,-3.47 -5.22,-2.3 -10.22,-6.54 -15.04,-12.72l-198.54 -250.84c0.58,7.31 1.06,14.44 1.44,21.48 0.39,7.02 0.58,13.68 0.58,19.83l0 225.71 -86.12 0 0 -421.35 51.44 0zm691.29 0l0 77.45 -118.5 0 0 343.9 -97.68 0 0 -343.9 -118.49 0 0 -77.45 334.67 0zm386.09 421.06l-75.72 0c-8.47,0 -15.42,-2.04 -20.9,-5.97 -5.48,-3.95 -9.34,-8.98 -11.47,-15.13l-24.84 -73.4 -160.11 0 -24.86 73.4c-1.92,5.39 -5.68,10.2 -11.26,14.54 -5.6,4.33 -12.43,6.56 -20.52,6.56l-76.3 0 163 -421.35 100 0 162.99 421.35zm-270.51 -161.08l115.02 0 -38.72 -113.57c-2.49,-7.23 -5.39,-15.71 -8.77,-25.53 -3.38,-9.72 -6.73,-20.33 -10.01,-31.7 -3.09,11.57 -6.27,22.27 -9.53,32.19 -3.28,9.82 -6.37,18.39 -9.26,25.62l-38.72 112.99zm402.28 5.31l0 155.76 -97.68 0 0 -421.66 136.99 0c30.44,0 56.45,3.18 77.93,9.46 21.48,6.25 39.01,15.02 52.61,26.2 13.58,11.16 23.4,24.36 29.56,39.68 6.18,15.23 9.26,31.88 9.26,49.81 0,13.68 -1.84,26.68 -5.51,38.82 -3.64,12.14 -9.05,23.4 -16.26,33.72 -7.23,10.3 -16.09,19.54 -26.6,27.64 -10.49,8.19 -22.63,14.85 -36.31,20.04 6.54,3.28 12.72,7.31 18.39,12.14 5.68,4.81 10.61,10.68 14.84,17.63l89.59 146.52 -88.44 0c-16.38,0 -28.14,-6.18 -35.25,-18.49l-69.95 -122.25c-3.07,-5.39 -6.64,-9.25 -10.78,-11.57 -4.14,-2.3 -10.03,-3.45 -17.53,-3.45l-24.86 0zm0 -67.63l39.3 0c13.29,0 24.67,-1.75 34.01,-5.1 9.34,-3.38 16.95,-8 22.92,-13.98 5.99,-5.97 10.32,-13 13,-21 2.71,-7.98 4.05,-16.55 4.05,-25.82 0,-18.49 -5.97,-32.93 -18.01,-43.34 -12.05,-10.4 -30.73,-15.59 -55.97,-15.59l-39.3 0 0 124.84zm678.58 223.39l-75.72 0c-8.48,0 -15.42,-2.04 -20.91,-5.97 -5.48,-3.95 -9.34,-8.98 -11.47,-15.13l-24.84 -73.4 -160.11 0 -24.86 73.4c-1.92,5.39 -5.68,10.2 -11.26,14.54 -5.6,4.33 -12.43,6.56 -20.52,6.56l-76.3 0 163 -421.35 100 0 163 421.35zm-270.52 -161.08l115.02 0 -38.72 -113.57c-2.49,-7.23 -5.39,-15.71 -8.77,-25.53 -3.38,-9.72 -6.73,-20.33 -10.01,-31.7 -3.09,11.57 -6.27,22.27 -9.53,32.19 -3.28,9.82 -6.37,18.39 -9.26,25.62l-38.73 112.99z"/>
   <path class="fil2" d="M37.08 1346.22c-14.37,33.03 -31.02,37.31 -35.79,38.82 -0.76,0.25 -1.26,2.01 -1.26,2.01l49.66 0c0,0 0.76,-1.77 0,-2.01 -3.78,-1.52 -23.94,-4.03 -9.82,-37.06l50.68 -117.23 17.64 156.3 4.53 0 114.47 -152.52 -24.7 119.24c-6.56,31.01 -19.68,29.75 -24.46,31.26 -0.77,0.25 -1.27,2.01 -1.27,2.01l61.01 0c0,0 0.5,-1.77 -0.25,-2.01 -4.05,-1.52 -18.66,-0.25 -12.1,-32.28l22.44 -109.65c5.3,-25.22 16.63,-30.76 22.17,-30.76 1.01,0 1.51,-1.77 1.51,-1.77l-30.49 0 -111.94 148.74 -16.9 -148.74 -33.78 0c0,0 -0.25,1.77 0.5,1.77 4.54,0 14.62,3.03 7.56,18.66l0.77 -1.01 -50.17 116.23zm365.05 17.4c-4.8,15.36 1.52,24.95 12.6,24.95 10.59,0 21.94,-8.07 33.03,-20.18l0 -1.77c0,0 -0.25,-1.52 -1.52,0 -8.82,10.34 -18.64,16.15 -22.17,16.15 -4.3,0 -5.05,-6.56 -0.52,-22.19l23.96 -74.63c7.31,-8.31 21.42,-20.92 40.33,-20.92 38.07,0 20.16,48.16 11.85,74.38l-7.58 24.21c-5.03,15.36 1.27,24.95 12.35,24.95 10.61,0 21.94,-8.07 33.28,-20.18l0 -1.77c0,0 -0.25,-1.52 -1.49,0 -9.09,10.34 -18.91,16.15 -22.44,16.15 -4.3,0 -5.04,-6.56 -0.5,-21.94l6.29 -19.41c11.6,-36.31 28.23,-82.93 -27.49,-82.93 -15.88,0 -33.01,10.84 -42.6,21.42l3.53 -10.59c2.78,-8.82 -1.27,-13.12 -10.09,-10.59l-29.23 8.57c0,0 -0.77,1.77 0,2.01 2.26,-0.52 5.54,-1.52 8.3,-1.52 5.3,0 9.59,3.53 4.05,20.92l-9.84 31.27c-25.97,28.98 -64.02,65.29 -91.76,65.29 -21.94,0 -32.28,-19.66 -33.03,-43.37 103.61,-16.38 111.17,-82.93 57.22,-82.93 -27.96,0 -64.02,20.43 -78.14,65.54 -10.84,34.05 -0.77,66.31 41.6,66.31 38.57,0 74.11,-33.28 102.1,-65.04l-12.1 37.82zm-110.67 -24.97c0,-34.52 19.41,-75.13 50.68,-75.13 45.88,0 7.56,70.08 -50.68,75.13zm311.33 -69.32c2.78,-8.82 -1.25,-13.12 -10.34,-10.59l-29.23 8.57c0,0 -0.52,1.77 0.25,2.01 2.01,-0.52 5.3,-1.52 8.06,-1.52 5.29,0 9.59,3.53 4.54,20.16l-6.04 18.66c-11.6,36.31 -28.5,82.93 27.47,82.93 15.38,0 31.76,-10.07 41.6,-20.41 -2.01,12.1 4.03,19.41 13.62,19.41 10.84,0 22.17,-8.07 33.28,-20.18l0 -1.77c0,0 -0.25,-1.52 -1.52,0 -8.83,10.34 -18.66,16.15 -22.19,16.15 -4.53,0 -5.05,-6.81 -0.25,-22.96l29.25 -90.49c2.76,-8.82 -1.27,-13.12 -10.34,-10.59l-29.25 8.57c0,0 -0.5,1.77 0.25,2.01 2.28,-0.52 5.29,-1.52 8.32,-1.52 5.29,0 9.32,3.53 4.03,20.92l-23.94 74.88c-7.83,8.57 -21.17,19.41 -38.57,19.41 -38.07,0 -19.93,-48.16 -11.85,-74.38l12.85 -39.32zm194.39 94.29c-4.8,15.36 1.52,24.95 12.35,24.95 7.56,0 17.39,-4.55 27.22,-14.89l0 -1.77c0,0 0,-1.51 -1.52,0 -16.38,15.88 -25.2,16.65 -16.13,-12.85l5.54 -17.64c6.56,-20.18 14.38,-43.86 11.6,-60.51 6.81,-7.06 19.16,-15.88 37.82,-15.88 38.05,0 18.64,48.16 10.59,74.38l-7.83 24.21c-4.79,15.36 1.52,24.95 12.35,24.95 7.58,0 17.4,-4.55 27.24,-14.89l0 -1.77c0,0 0,-1.51 -1.52,0 -16.38,15.88 -25.2,16.65 -16.13,-12.85l5.54 -17.64c11.58,-36.31 28.23,-82.93 -22.19,-82.93 -17.9,0 -37.06,9.07 -46.63,19.41 -3.03,-11.6 -12.62,-19.41 -33.28,-19.41 -17.15,0 -33.54,10.59 -42.87,21.42l3.53 -10.59c2.78,-8.82 -1.27,-13.12 -10.09,-10.59l-29.23 8.57c0,0 -0.77,1.77 0,2.01 2.26,-0.52 5.54,-1.52 8.31,-1.52 5.29,0 9.59,3.53 4.05,20.92l-23.96 74.88c-4.79,15.36 1.52,24.95 12.35,24.95 10.84,0 22.19,-8.07 33.28,-20.18l0 -1.77c0,0 -0.25,-1.52 -1.51,0 -8.83,10.34 -18.64,16.15 -22.17,16.15 -4.3,0 -5.04,-6.56 -0.52,-22.19l23.95 -74.88c7.06,-8.32 19.66,-20.68 37.06,-20.68 38.07,0 18.66,48.16 10.59,74.38l-7.8 24.21zm140.42 23.44l24.95 -16.69c4.05,12.1 14.88,20.47 36.81,20.47 40.33,0 68.07,-33.11 78.66,-66.42 10.34,-33.13 4.03,-66.44 -36.31,-66.44 -21.17,0 -38.05,10.84 -50.68,25.76l16.65 -52.13c11.6,-33.7 31.26,-54.3 49.66,-54.3 9.09,0 17.64,5.01 24.97,15.59 2.26,3.24 4.78,4.49 7.56,4.49 12.1,0 23.44,-27.14 -15.38,-27.14 -29.5,0 -72.35,14.33 -96.8,90.51l-28.48 89.42 0.25 0 -11.85 36.88zm65.04 0c-24.95,0 -31.76,-28.06 -26.22,-57.35l8.57 -27.06c9.84,-21.46 26.22,-38.61 46.39,-38.61 49.91,0 21.93,123.02 -28.75,123.02zm142.43 -117.73c2.78,-8.82 -1.25,-13.12 -10.34,-10.59l-29.23 8.57c0,0 -0.52,1.77 0.25,2.01 2.01,-0.52 5.3,-1.52 8.06,-1.52 5.3,0 9.59,3.53 4.54,20.16l-6.04 18.66c-11.6,36.31 -28.5,82.93 27.47,82.93 15.38,0 31.76,-10.07 41.6,-20.41 -2.01,12.1 4.03,19.41 13.62,19.41 10.84,0 22.17,-8.07 33.28,-20.18l0 -1.77c0,0 -0.25,-1.52 -1.52,0 -8.82,10.34 -18.66,16.15 -22.19,16.15 -4.53,0 -5.04,-6.81 -0.25,-22.96l29.25 -90.49c2.76,-8.82 -1.26,-13.12 -10.34,-10.59l-29.25 8.57c0,0 -0.5,1.77 0.25,2.01 2.28,-0.52 5.3,-1.52 8.32,-1.52 5.3,0 9.32,3.53 4.03,20.92l-23.94 74.88c-7.83,8.57 -21.18,19.41 -38.57,19.41 -38.07,0 -19.93,-48.16 -11.85,-74.38l12.85 -39.32zm106.14 94.29c-5.05,15.36 1.27,24.95 12.35,24.95 10.59,0 21.94,-8.07 33.28,-20.18l-0.25 -1.77c0,0 0,-1.52 -1.27,0 -9.07,10.34 -18.89,16.15 -22.42,16.15 -4.55,0 -5.05,-7.33 0.5,-25.22l22.69 -71.35c7.31,-8.06 21.42,-21.17 40.58,-21.17 38.07,0 20.18,48.16 12.1,74.38l-7.8 24.21c-4.8,15.36 1.49,24.95 12.35,24.95 10.84,0 22.17,-8.07 33.28,-20.18l0 -1.77c0,0 -0.27,-1.52 -1.52,0 -8.82,10.34 -18.66,16.15 -22.19,16.15 -4.54,0 -5.29,-7.06 0,-23.71l5.54 -17.64c11.6,-36.31 28.23,-82.93 -27.47,-82.93 -16.15,0 -33.28,11.09 -42.87,21.92l14.62 -45.88c11.35,-35.54 31.51,-57.23 50.42,-57.23 9.07,0 17.9,5.05 24.95,15.63 2.28,3.28 4.8,4.54 7.58,4.54 12.1,0 23.69,-27.23 -15.13,-27.23 -29.5,0 -72.6,14.37 -96.8,90.76l-32.53 102.61zm156.55 0c-5.05,15.36 1.26,24.95 12.35,24.95 10.59,0 21.94,-8.07 33.28,-20.18l-0.25 -1.77c0,0 0,-1.52 -1.27,0 -9.07,10.34 -18.89,16.15 -22.42,16.15 -4.54,0 -5.04,-7.33 0.5,-25.22l7.06 -21.93 31.51 -21.44c24.95,4.55 -17.89,75.38 35.29,75.38 5.3,0 19.66,-5.54 29.75,-21.17l-0.25 -4.28c0,0 -0.75,-0.5 -1.27,1 -5.05,10.34 -15.38,18.41 -20.68,18.41 -28.73,0 9.84,-63.27 -38.3,-72.6l49.16 -33.54c17.65,-12.1 10.59,-23.19 -2.53,-23.19 -7.31,0 -16.38,3.28 -24.21,11.6l0 1.77c0,0 0,1 1.52,0 4.3,-3.03 7.83,-4.3 10.34,-4.3 8.82,0 5.79,15.63 -20.68,34.05l-48.14 33.53 30.74 -96.3c11.36,-35.54 31.52,-57.23 50.43,-57.23 9.07,0 17.65,5.05 24.95,15.63 2.28,3.28 4.79,4.54 7.58,4.54 12.1,0 23.69,-27.23 -15.13,-27.23 -29.5,0 -72.6,14.37 -96.8,90.76l-32.53 102.61zm285.4 -105.4c0,0 -2.78,-0.25 -3.78,2.53 -2.04,6.29 -11.6,12.6 -20.68,13.87 -4.8,-10.09 -15.63,-16.65 -35.29,-16.65 -40.09,0 -67.82,33.07 -78.41,66.44 -10.59,33.11 -4.3,66.42 36.31,66.42 18.64,0 34.03,-8.57 46.38,-20.92 -1.52,11.6 4.3,18.66 13.86,18.66 10.59,0 21.94,-8.07 33.28,-20.18l0 -1.8c0,0 -0.25,-1.52 -1.51,0 -9.07,10.38 -18.91,16.19 -22.44,16.19 -4.28,0 -5.05,-6.56 -0.25,-22.23l32.53 -102.33zm-63.03 3.53c20.41,0 28.73,18.7 28.23,41.43l-18.15 56.85c-9.84,14.42 -23.21,24.51 -38.59,24.51 -50.16,0 -21.93,-122.79 28.5,-122.79zm78.66 101.87c-4.79,15.36 1.52,24.95 12.35,24.95 10.84,0 22.19,-8.07 33.28,-20.18l0 -1.77c0,0 -0.25,-1.52 -1.51,0 -8.83,10.34 -18.64,16.15 -22.17,16.15 -4.3,0 -5.04,-6.56 -0.52,-22.19l23.95 -74.63c7.31,-8.31 21.43,-20.92 40.34,-20.92 38.07,0 19.91,48.16 11.85,74.38l-7.58 24.21c-5.03,15.36 1.26,24.95 12.35,24.95 10.6,0 21.94,-8.07 33.28,-20.18l0 -1.77c0,0 -0.25,-1.52 -1.5,0 -9.09,10.34 -18.91,16.15 -22.44,16.15 -4.3,0 -5.05,-6.56 -0.5,-21.94l6.29 -19.41c11.6,-36.31 28.23,-82.93 -27.48,-82.93 -16.13,0 -33.01,10.84 -42.6,21.42l3.53 -10.59c2.78,-8.82 -1.27,-13.12 -10.09,-10.59l-29.23 8.57c0,0 -0.77,1.77 0,2.01 2.26,-0.52 5.54,-1.52 8.31,-1.52 5.29,0 9.59,3.53 4.05,20.92l-23.96 74.88zm117.73 49.91l3.53 0 51.94 -46.9 -20.18 0 -35.29 46.9zm284.64 -202.95l-4.03 0 -113.45 142.18c-23.44,29.25 -34.28,30.76 -39.07,32.28 -0.77,0.25 -1.27,2.01 -1.27,2.01l49.41 0c0,0 0.52,-1.77 -0.25,-2.01 -3.78,-1.52 -24.95,-7.06 -4.8,-32.28l25.72 -32.01 83.95 0 5.29 32.01c5.54,34.79 -8.05,30.76 -12.6,32.28 -1.01,0.25 -1.51,2.01 -1.51,2.01l54.45 0c0,0 0.25,-1.77 -0.25,-2.01 -3.78,-1.52 -13.1,1.27 -18.66,-32.28l-22.94 -142.18zm-84.45 106.14l66.8 -83.7 13.37 83.7 -80.17 0zm231.18 46.9c-4.8,15.36 1.52,24.95 12.35,24.95 7.56,0 17.39,-4.55 27.22,-14.89l0 -1.77c0,0 0,-1.51 -1.52,0 -16.38,15.88 -25.2,16.65 -16.13,-12.85l5.54 -17.64c6.56,-20.18 14.38,-43.86 11.6,-60.51 6.81,-7.06 19.16,-15.88 37.82,-15.88 38.05,0 18.64,48.16 10.59,74.38l-7.83 24.21c-4.79,15.36 1.52,24.95 12.35,24.95 7.58,0 17.4,-4.55 27.24,-14.89l0 -1.77c0,0 0,-1.51 -1.52,0 -16.38,15.88 -25.2,16.65 -16.13,-12.85l5.54 -17.64c11.58,-36.31 28.23,-82.93 -22.19,-82.93 -17.9,0 -37.06,9.07 -46.63,19.41 -3.03,-11.6 -12.62,-19.41 -33.28,-19.41 -17.15,0 -33.54,10.59 -42.87,21.42l3.53 -10.59c2.78,-8.82 -1.27,-13.12 -10.09,-10.59l-29.23 8.57c0,0 -0.76,1.77 0,2.01 2.26,-0.52 5.54,-1.52 8.31,-1.52 5.29,0 9.59,3.53 4.05,20.92l-23.96 74.88c-4.79,15.36 1.52,24.95 12.35,24.95 10.84,0 22.19,-8.07 33.28,-20.18l0 -1.77c0,0 -0.25,-1.52 -1.51,0 -8.83,10.34 -18.64,16.15 -22.17,16.15 -4.3,0 -5.04,-6.56 -0.52,-22.19l23.95 -74.88c7.06,-8.32 19.66,-20.68 37.06,-20.68 38.07,0 18.67,48.16 10.59,74.38l-7.8 24.21zm285.38 -105.4c0,0 -2.78,-0.25 -3.78,2.53 -2.04,6.29 -11.6,12.6 -20.68,13.87 -4.79,-10.09 -15.63,-16.65 -35.29,-16.65 -40.08,0 -67.82,33.07 -78.41,66.44 -10.59,33.11 -4.3,66.42 36.31,66.42 18.64,0 34.02,-8.57 46.38,-20.92 -1.52,11.6 4.3,18.66 13.87,18.66 10.59,0 21.94,-8.07 33.28,-20.18l0 -1.8c0,0 -0.25,-1.52 -1.52,0 -9.07,10.38 -18.91,16.19 -22.44,16.19 -4.27,0 -5.04,-6.56 -0.25,-22.23l32.53 -102.33zm-63.02 3.53c20.41,0 28.73,18.7 28.23,41.43l-18.14 56.85c-9.84,14.42 -23.21,24.51 -38.59,24.51 -50.16,0 -21.93,-122.79 28.5,-122.79zm78.66 101.87c-4.8,15.36 1.52,24.95 12.35,24.95 10.84,0 22.19,-8.07 33.28,-20.18l0 -1.77c0,0 -0.25,-1.52 -1.52,0 -8.82,10.34 -18.64,16.15 -22.17,16.15 -4.3,0 -5.05,-6.56 -0.52,-22.19l23.96 -74.63c7.31,-8.31 21.42,-20.92 40.34,-20.92 38.07,0 19.91,48.16 11.85,74.38l-7.58 24.21c-5.03,15.36 1.27,24.95 12.35,24.95 10.61,0 21.94,-8.07 33.28,-20.18l0 -1.77c0,0 -0.25,-1.52 -1.5,0 -9.09,10.34 -18.91,16.15 -22.44,16.15 -4.3,0 -5.04,-6.56 -0.5,-21.94l6.29 -19.41c11.6,-36.31 28.23,-82.93 -27.49,-82.93 -16.13,0 -33.01,10.84 -42.6,21.42l3.53 -10.59c2.78,-8.82 -1.27,-13.12 -10.09,-10.59l-29.23 8.57c0,0 -0.77,1.77 0,2.01 2.26,-0.52 5.54,-1.52 8.3,-1.52 5.3,0 9.59,3.53 4.05,20.92l-23.96 74.88zm295.47 -105.4c0,0 -2.78,-0.25 -3.78,2.53 -2.04,6.29 -11.6,12.6 -20.68,13.87 -4.8,-10.09 -15.63,-16.65 -35.29,-16.65 -40.08,0 -67.82,33.07 -78.41,66.44 -10.59,33.11 -4.3,66.42 36.31,66.42 18.64,0 34.02,-8.57 46.38,-20.92 -1.51,11.6 4.3,18.66 13.87,18.66 10.59,0 21.94,-8.07 33.28,-20.18l0 -1.8c0,0 -0.25,-1.52 -1.52,0 -9.07,10.38 -18.91,16.19 -22.44,16.19 -4.28,0 -5.05,-6.56 -0.25,-22.23l32.53 -102.33zm-63.02 3.53c20.41,0 28.73,18.7 28.23,41.43l-18.14 56.85c-9.84,14.42 -23.21,24.51 -38.59,24.51 -50.16,0 -21.93,-122.79 28.5,-122.79zm78.64 101.87c-5.05,15.36 1.26,24.95 12.35,24.95 10.59,0 21.94,-8.07 33.28,-20.18l-0.25 -1.77c0,0 0,-1.52 -1.27,0 -9.07,10.34 -18.89,16.15 -22.42,16.15 -4.54,0 -5.04,-7.33 0.5,-25.22l22.69 -71.35c7.31,-8.06 21.42,-21.17 40.58,-21.17 38.07,0 20.18,48.16 12.1,74.38l-7.81 24.21c-4.79,15.36 1.5,24.95 12.35,24.95 10.84,0 22.17,-8.07 33.28,-20.18l0 -1.77c0,0 -0.27,-1.52 -1.52,0 -8.82,10.34 -18.66,16.15 -22.19,16.15 -4.55,0 -5.3,-7.06 0,-23.71l5.54 -17.64c11.6,-36.31 28.23,-82.93 -27.47,-82.93 -16.15,0 -33.28,11.09 -42.87,21.92l14.62 -45.88c11.36,-35.54 31.52,-57.23 50.43,-57.23 9.07,0 17.9,5.05 24.95,15.63 2.28,3.28 4.79,4.54 7.58,4.54 12.1,0 23.69,-27.23 -15.13,-27.23 -29.5,0 -72.6,14.37 -96.8,90.76l-32.53 102.61zm319.15 59.23c40.09,-24.95 41.11,-50.65 29.75,-76.63 18.16,-18.16 33.53,-39.09 31.26,-55.72 -0.75,-4.54 -3.53,-6.31 -7.06,-6.31 -6.81,0 -16.13,7.31 -15.38,17.39 0.77,13.87 8.32,17.65 -10.59,41.11 -10.84,-22.69 -30,-45.38 -39.82,-67.82 23.69,-11.6 45.88,-19.91 51.92,-39.07 6.31,-19.68 -6.81,-29.25 -23.69,-29.25 -18.42,0 -41.36,11.6 -48.41,34.03 -3.53,10.59 -1.02,23.7 4.28,38.07 -29.75,16.13 -62.51,32.53 -71.85,64.05 -9.82,32.51 15.38,48.91 45.38,48.91 22.94,0 44.13,-9.59 62.53,-24.72 5.05,19.93 4.28,38.84 -8.82,54.47l0.5 1.49zm-13.62 -152c-4.78,-12.1 -6.54,-24.21 -2.26,-36.31 5.04,-14.88 19.16,-24.21 29.5,-24.21 9.07,0 15.38,7.31 9.84,24.21 -4.79,15.13 -19.41,26.22 -37.07,36.31zm21.19 92.5c-17.39,14.64 -38.84,24.73 -60.51,24.73 -20.92,0 -32.01,-19.93 -23.44,-46.65 9.57,-30.5 29.48,-46.9 49.91,-58.75 9.84,24.97 26.47,53.7 34.04,80.67zm228.4 -41.58c44.61,0 75.63,-27.73 84.45,-55.72 9.07,-27.73 -4.55,-55.47 -49.16,-55.47l-54.95 0 -45.9 143.7c-10.07,30.76 -23.69,29.25 -28.48,30.76 -1.02,0.25 -1.52,2.01 -1.52,2.01l61.01 0c0,0 0.5,-1.77 -0.25,-2.01 -3.78,-1.52 -18.66,0 -8.32,-32.28l9.84 -31 33.28 0zm-39.34 -111.19c0,0 -0.5,1.77 0.25,2.01 3.8,1.52 18.66,0 8.32,32.28l11.1 -34.29 -19.68 0zm66.3 4.05c66.8,0 34.05,103.09 -32.78,103.09l-26.22 0 23.46 -73.86c10.84,-33.28 16.13,-28.73 21.17,-29.23l14.37 0zm60.51 148.99c-4.79,15.36 1.52,24.95 12.35,24.95 10.84,0 22.19,-8.07 33.28,-20.18l0 -1.77c0,0 -0.25,-1.52 -1.52,0 -8.83,10.34 -18.64,16.15 -22.17,16.15 -4.3,0 -5.04,-6.56 -0.52,-22.19l20.18 -63.27c14.62,-16.9 25.2,-21.44 34.27,-21.44 5.3,0 10.34,1.52 15.13,3.03 13.1,4.05 25.2,-17.89 14.11,-22.44 -2.01,-0.75 -4.27,-1.25 -6.56,-1.25 -15.63,0 -39.07,16.38 -54.95,36.04l7.31 -21.92c2.78,-8.82 -1.27,-13.12 -10.09,-10.59l-29.23 8.57c0,0 -0.76,1.77 0,2.01 2.26,-0.52 5.54,-1.52 8.31,-1.52 5.29,0 9.59,3.53 4.05,20.92l-23.96 74.88zm102.36 -39.2c-10.84,34.12 -0.76,66.42 41.85,66.42 42.1,0 72.6,-32.05 83.7,-66.42 10.84,-34.12 0.75,-66.44 -41.6,-66.44 -42.1,0 -73.12,32.07 -83.95,66.44zm71.85 -61.15c53.95,0 36.56,122.02 -17.89,122.02 -54.72,0 -36.56,-122.02 17.89,-122.02zm164.37 -64.02c-27.22,0 -43.1,24.95 -51.42,51.42l-3.28 10.34 -19.16 0 -1.27 4.03 19.16 0 -42.35 133.63c-11.33,35.54 -31.76,57.21 -50.67,57.21 -9.07,0 -17.65,-5.04 -24.95,-15.63 -2.26,-3.26 -4.8,-4.53 -7.56,-4.53 -12.1,0 -23.45,27.22 15.36,27.22 29.5,0 72.37,-14.37 96.57,-90.74l34.02 -107.16 35.29 0 1.27 -4.03 -35.29 0 2.51 -8.07c2.26,-7.31 11.85,-49.41 30.52,-49.41 20.65,0 8.55,14.88 14.62,25.97 2.01,3.53 5.54,5.29 8.82,5.29 5.04,0 9.84,-3.78 9.32,-11.6 -0.75,-10.34 -10.84,-23.94 -31.51,-23.94zm-2.26 125.28c-10.84,34.05 -0.77,66.31 41.85,66.31 30.5,0 49.16,-15.38 62.01,-37.55l-2.76 -1.77c-4.3,9.57 -22.44,33.78 -47.15,33.78 -21.94,0 -32.28,-19.66 -33.03,-43.37 103.61,-16.38 111.17,-82.93 57.48,-82.93 -28.23,0 -64.04,20.43 -78.41,65.54zm20.92 14.12c0,-34.52 19.41,-75.13 50.68,-75.13 45.88,0 7.56,70.08 -50.68,75.13zm114.2 20.92c-2.01,-3.78 -5.79,-5.54 -9.32,-5.54 -6.56,0 -13.37,5.29 -11.33,12.85 3.78,15.38 23.19,23.71 41.58,22.96 27.73,0 58.5,-10.59 67.32,-37.82 15.36,-48.16 -82.96,-27.99 -70.08,-66.06 6.04,-17.9 29.5,-22.44 41.58,-22.44 26.49,0 17.15,14.38 22.96,25.47 2.26,4.03 6.04,5.79 9.82,5.79 6.31,0 12.87,-5.29 10.84,-13.6 -3.78,-15.63 -21.18,-22.69 -37.06,-22.69 -20.41,0 -53.44,6.79 -62.78,35.54 -16.13,51.17 79.43,34.27 69.59,65.54 -5.54,17.4 -26.22,25.97 -47.39,25.97 -19.91,0 -19.66,-14.86 -25.72,-25.97zm156.07 -135.12c-3.28,10.59 2.76,16.13 10.34,16.13 7.8,0 17.39,-5.54 20.68,-16.13 3.53,-10.59 -2.53,-15.88 -10.34,-15.88 -7.83,0 -17.15,5.3 -20.68,15.88zm12.6 44.88c2.78,-8.82 -1.27,-13.12 -10.09,-10.59l-29.23 8.57c0,0 -0.77,1.77 0,2.01 2.26,-0.52 5.29,-1.52 8.3,-1.52 5.05,0 9.34,3.28 4.55,19.41l-24.46 76.39c-4.79,15.36 1.52,24.95 12.35,24.95 10.84,0 22.19,-8.07 33.28,-20.18l0 -1.77c0,0 -0.25,-1.52 -1.52,0 -8.82,10.34 -18.64,16.15 -22.17,16.15 -4.3,0 -5.05,-6.56 -0.52,-22.19l18.91 -59.25 10.59 -32.01zm18.41 55.09c-10.84,34.12 -0.77,66.42 41.85,66.42 42.1,0 72.6,-32.05 83.7,-66.42 10.84,-34.12 0.75,-66.44 -41.6,-66.44 -42.1,0 -73.12,32.07 -83.95,66.44zm71.85 -61.15c53.95,0 36.55,122.02 -17.9,122.02 -54.72,0 -36.56,-122.02 17.9,-122.02zm74.63 100.35c-4.79,15.36 1.52,24.95 12.35,24.95 10.84,0 22.19,-8.07 33.28,-20.18l0 -1.77c0,0 -0.25,-1.52 -1.52,0 -8.82,10.34 -18.64,16.15 -22.17,16.15 -4.3,0 -5.05,-6.56 -0.52,-22.19l23.96 -74.63c7.31,-8.31 21.42,-20.92 40.34,-20.92 38.07,0 19.91,48.16 11.85,74.38l-7.58 24.21c-5.03,15.36 1.26,24.95 12.35,24.95 10.61,0 21.94,-8.07 33.28,-20.18l0 -1.77c0,0 -0.25,-1.52 -1.5,0 -9.09,10.34 -18.91,16.15 -22.44,16.15 -4.3,0 -5.04,-6.56 -0.5,-21.94l6.29 -19.41c11.6,-36.31 28.23,-82.93 -27.48,-82.93 -16.13,0 -33.01,10.84 -42.6,21.42l3.53 -10.59c2.78,-8.82 -1.27,-13.12 -10.09,-10.59l-29.23 8.57c0,0 -0.77,1.77 0,2.01 2.26,-0.52 5.54,-1.52 8.31,-1.52 5.29,0 9.59,3.53 4.05,20.92l-23.96 74.88zm295.47 -105.4c0,0 -2.78,-0.25 -3.78,2.53 -2.04,6.29 -11.6,12.6 -20.68,13.87 -4.8,-10.09 -15.63,-16.65 -35.29,-16.65 -40.09,0 -67.82,33.07 -78.41,66.44 -10.59,33.11 -4.3,66.42 36.31,66.42 18.64,0 34.02,-8.57 46.38,-20.92 -1.51,11.6 4.3,18.66 13.87,18.66 10.59,0 21.94,-8.07 33.28,-20.18l0 -1.8c0,0 -0.25,-1.52 -1.51,0 -9.07,10.38 -18.91,16.19 -22.44,16.19 -4.28,0 -5.05,-6.56 -0.25,-22.23l32.53 -102.33zm-63.03 3.53c20.41,0 28.73,18.7 28.23,41.43l-18.15 56.85c-9.84,14.42 -23.21,24.51 -38.59,24.51 -50.16,0 -21.93,-122.79 28.5,-122.79zm78.64 101.87c-5.05,15.36 1.26,24.95 12.35,24.95 10.59,0 21.94,-8.07 33.03,-20.18l0 -1.77c0,0 -0.25,-1.52 -1.52,0 -8.82,10.34 -18.64,16.15 -22.17,16.15 -4.54,0 -5.04,-7.33 0.5,-25.22l39.32 -123.02c11.36,-35.54 31.52,-57.23 50.43,-57.23 9.07,0 17.65,5.05 24.95,15.63 2.28,3.28 4.79,4.54 7.58,4.54 12.1,0 23.44,-27.23 -15.38,-27.23 -29.5,0 -72.35,14.37 -96.55,90.76l-32.53 102.61z"/>
  </g>
 </g>
</svg>
