<?xml version="1.0" encoding="UTF-8"?>
<!DOCTYPE svg PUBLIC "-//W3C//DTD SVG 1.1//EN" "http://www.w3.org/Graphics/SVG/1.1/DTD/svg11.dtd">
<!-- Creator: CorelDRAW -->
<svg xmlns="http://www.w3.org/2000/svg" xml:space="preserve" width="111.758mm" height="34.9328mm" version="1.1" style="shape-rendering:geometricPrecision; text-rendering:geometricPrecision; image-rendering:optimizeQuality; fill-rule:evenodd; clip-rule:evenodd"
viewBox="0 0 685.48 214.26"
 xmlns:xlink="http://www.w3.org/1999/xlink"
 xmlns:xodm="http://www.corel.com/coreldraw/odm/2003">
 <defs>
  <style type="text/css">
   <![CDATA[
    .fil1 {fill:white}
    .fil0 {fill:white;fill-rule:nonzero}
   ]]>
  </style>
 </defs>
 <g id="Layer_x0020_1">
  <metadata id="CorelCorpID_0Corel-Layer"/>
  <g id="_2338294895472">
   <g>
    <path class="fil0" d="M222.6 57.31l1.52 0c1.41,0 2.42,-0.44 3.04,-1.32l9.24 -13.41c0.51,-0.73 1.09,-1.23 1.74,-1.49 0.65,-0.26 1.44,-0.39 2.38,-0.39l8.28 0 -12.17 16.61c-0.43,0.6 -0.88,1.1 -1.35,1.49 -0.47,0.39 -0.95,0.72 -1.44,0.99 0.71,0.26 1.37,0.62 1.96,1.08 0.59,0.46 1.13,1.08 1.61,1.85l12.4 19.05 -8.51 0c-0.55,0 -1.01,-0.04 -1.39,-0.11 -0.39,-0.07 -0.72,-0.19 -1,-0.34 -0.28,-0.15 -0.53,-0.34 -0.73,-0.55 -0.21,-0.22 -0.4,-0.46 -0.59,-0.74l-9.3 -14.28c-0.34,-0.53 -0.76,-0.9 -1.28,-1.12 -0.52,-0.22 -1.22,-0.32 -2.1,-0.32l-2.31 0 0 17.47 -9.52 0 0 -41.07 9.52 0 0 16.62zm53.58 -8.27c-0.28,0.45 -0.57,0.79 -0.88,1.01 -0.31,0.22 -0.71,0.33 -1.2,0.33 -0.43,0 -0.89,-0.13 -1.39,-0.4 -0.5,-0.27 -1.06,-0.58 -1.69,-0.92 -0.63,-0.34 -1.35,-0.64 -2.16,-0.91 -0.81,-0.27 -1.73,-0.41 -2.76,-0.41 -1.79,0 -3.11,0.39 -3.98,1.15 -0.87,0.76 -1.31,1.78 -1.31,3.08 0,0.83 0.26,1.51 0.79,2.07 0.53,0.54 1.22,1.01 2.08,1.41 0.85,0.4 1.83,0.75 2.93,1.08 1.1,0.33 2.22,0.7 3.36,1.1 1.15,0.4 2.27,0.88 3.37,1.43 1.1,0.54 2.08,1.24 2.93,2.08 0.85,0.85 1.54,1.88 2.07,3.09 0.53,1.21 0.79,2.68 0.79,4.38 0,1.9 -0.33,3.67 -0.99,5.33 -0.66,1.65 -1.61,3.1 -2.86,4.33 -1.25,1.23 -2.79,2.2 -4.62,2.9 -1.83,0.7 -3.92,1.06 -6.25,1.06 -1.28,0 -2.57,-0.13 -3.9,-0.39 -1.32,-0.26 -2.61,-0.63 -3.85,-1.1 -1.24,-0.47 -2.4,-1.03 -3.49,-1.68 -1.09,-0.65 -2.04,-1.37 -2.85,-2.16l2.82 -4.53c0.21,-0.34 0.5,-0.62 0.87,-0.83 0.38,-0.21 0.78,-0.31 1.21,-0.31 0.56,0 1.13,0.18 1.71,0.53 0.57,0.36 1.22,0.75 1.94,1.18 0.72,0.43 1.55,0.83 2.49,1.18 0.94,0.36 2.05,0.53 3.32,0.53 1.73,0 3.07,-0.39 4.03,-1.15 0.96,-0.76 1.44,-1.96 1.44,-3.61 0,-0.97 -0.26,-1.75 -0.79,-2.35 -0.53,-0.6 -1.21,-1.1 -2.07,-1.49 -0.85,-0.4 -1.83,-0.74 -2.92,-1.04 -1.09,-0.3 -2.21,-0.63 -3.35,-1 -1.15,-0.36 -2.26,-0.82 -3.35,-1.36 -1.09,-0.53 -2.06,-1.24 -2.91,-2.11 -0.85,-0.87 -1.55,-1.96 -2.08,-3.27 -0.53,-1.3 -0.79,-2.92 -0.79,-4.84 0,-1.54 0.31,-3.04 0.93,-4.51 0.62,-1.47 1.53,-2.78 2.73,-3.92 1.2,-1.15 2.68,-2.06 4.42,-2.74 1.75,-0.69 3.75,-1.03 6,-1.03 1.26,0 2.49,0.1 3.68,0.3 1.19,0.2 2.32,0.49 3.39,0.88 1.07,0.39 2.08,0.85 3.01,1.39 0.93,0.54 1.76,1.15 2.49,1.84l-2.37 4.39zm17.19 18.98l0 13.72 -9.52 0 0 -41.1 14.48 0c2.89,0 5.38,0.35 7.46,1.03 2.07,0.69 3.78,1.63 5.13,2.84 1.34,1.2 2.33,2.62 2.97,4.26 0.64,1.63 0.96,3.41 0.96,5.31 0,2.05 -0.33,3.93 -0.99,5.64 -0.66,1.72 -1.66,3.18 -3.01,4.41 -1.35,1.22 -3.06,2.18 -5.14,2.86 -2.07,0.68 -4.53,1.03 -7.37,1.03l-4.96 0zm0 -7.21l4.96 0c2.48,0 4.26,-0.59 5.35,-1.77 1.09,-1.18 1.63,-2.84 1.63,-4.96 0,-0.94 -0.14,-1.79 -0.42,-2.56 -0.28,-0.77 -0.71,-1.44 -1.28,-1.99 -0.57,-0.56 -1.3,-0.98 -2.17,-1.28 -0.87,-0.3 -1.91,-0.45 -3.12,-0.45l-4.96 0 0 13.02zm35.95 7.21l0 13.72 -9.52 0 0 -41.1 14.48 0c2.89,0 5.38,0.35 7.46,1.03 2.08,0.69 3.78,1.63 5.13,2.84 1.34,1.2 2.33,2.62 2.97,4.26 0.64,1.63 0.96,3.41 0.96,5.31 0,2.05 -0.33,3.93 -0.99,5.64 -0.66,1.72 -1.66,3.18 -3.01,4.41 -1.35,1.22 -3.06,2.18 -5.14,2.86 -2.08,0.68 -4.53,1.03 -7.37,1.03l-4.96 0zm0 -7.21l4.96 0c2.48,0 4.26,-0.59 5.35,-1.77 1.09,-1.18 1.63,-2.84 1.63,-4.96 0,-0.94 -0.14,-1.79 -0.42,-2.56 -0.28,-0.77 -0.7,-1.44 -1.28,-1.99 -0.57,-0.56 -1.3,-0.98 -2.17,-1.28 -0.87,-0.3 -1.91,-0.45 -3.12,-0.45l-4.96 0 0 13.02zm49.3 -11.77c-0.28,0.45 -0.57,0.79 -0.88,1.01 -0.31,0.22 -0.71,0.33 -1.2,0.33 -0.43,0 -0.89,-0.13 -1.39,-0.4 -0.5,-0.27 -1.06,-0.58 -1.69,-0.92 -0.63,-0.34 -1.35,-0.64 -2.16,-0.91 -0.81,-0.27 -1.73,-0.41 -2.76,-0.41 -1.79,0 -3.11,0.39 -3.98,1.15 -0.87,0.76 -1.31,1.78 -1.31,3.08 0,0.83 0.26,1.51 0.79,2.07 0.53,0.54 1.22,1.01 2.08,1.41 0.85,0.4 1.83,0.75 2.93,1.08 1.1,0.33 2.22,0.7 3.36,1.1 1.15,0.4 2.27,0.88 3.37,1.43 1.1,0.54 2.08,1.24 2.93,2.08 0.85,0.85 1.54,1.88 2.07,3.09 0.53,1.21 0.79,2.68 0.79,4.38 0,1.9 -0.33,3.67 -0.99,5.33 -0.66,1.65 -1.61,3.1 -2.86,4.33 -1.25,1.23 -2.79,2.2 -4.62,2.9 -1.83,0.7 -3.92,1.06 -6.25,1.06 -1.28,0 -2.57,-0.13 -3.9,-0.39 -1.32,-0.26 -2.61,-0.63 -3.85,-1.1 -1.24,-0.47 -2.4,-1.03 -3.49,-1.68 -1.09,-0.65 -2.04,-1.37 -2.85,-2.16l2.82 -4.53c0.21,-0.34 0.5,-0.62 0.87,-0.83 0.38,-0.21 0.78,-0.31 1.21,-0.31 0.56,0 1.13,0.18 1.71,0.53 0.57,0.36 1.22,0.75 1.94,1.18 0.72,0.43 1.55,0.83 2.49,1.18 0.94,0.36 2.05,0.53 3.32,0.53 1.73,0 3.07,-0.39 4.03,-1.15 0.96,-0.76 1.44,-1.96 1.44,-3.61 0,-0.97 -0.26,-1.75 -0.79,-2.35 -0.53,-0.6 -1.21,-1.1 -2.07,-1.49 -0.85,-0.4 -1.83,-0.74 -2.92,-1.04 -1.09,-0.3 -2.21,-0.63 -3.35,-1 -1.15,-0.36 -2.26,-0.82 -3.35,-1.36 -1.09,-0.53 -2.06,-1.24 -2.91,-2.11 -0.85,-0.87 -1.55,-1.96 -2.08,-3.27 -0.53,-1.3 -0.79,-2.92 -0.79,-4.84 0,-1.54 0.31,-3.04 0.93,-4.51 0.62,-1.47 1.53,-2.78 2.73,-3.92 1.2,-1.15 2.68,-2.06 4.42,-2.74 1.75,-0.69 3.75,-1.03 6,-1.03 1.26,0 2.49,0.1 3.68,0.3 1.19,0.2 2.32,0.49 3.39,0.88 1.07,0.39 2.08,0.85 3.01,1.39 0.93,0.54 1.76,1.15 2.49,1.84l-2.37 4.39zm18.54 32.73l0 -41.07 15.1 0c2.84,0 5.25,0.26 7.24,0.79 1.99,0.54 3.61,1.28 4.87,2.24 1.26,0.97 2.18,2.13 2.75,3.51 0.57,1.38 0.85,2.91 0.85,4.61 0,0.92 -0.13,1.81 -0.39,2.68 -0.26,0.85 -0.68,1.66 -1.24,2.41 -0.56,0.76 -1.29,1.45 -2.17,2.06 -0.88,0.61 -1.94,1.15 -3.18,1.6 2.71,0.66 4.7,1.72 6,3.19 1.3,1.46 1.94,3.35 1.94,5.65 0,1.75 -0.34,3.37 -1.01,4.87 -0.68,1.5 -1.66,2.81 -2.97,3.92 -1.31,1.11 -2.92,1.98 -4.84,2.61 -1.91,0.63 -4.1,0.94 -6.56,0.94l-16.4 0zm9.52 -17.41l0 10.2 6.7 0c1.26,0 2.29,-0.16 3.09,-0.48 0.8,-0.32 1.42,-0.73 1.87,-1.23 0.45,-0.51 0.76,-1.08 0.93,-1.72 0.17,-0.64 0.25,-1.29 0.25,-1.94 0,-0.75 -0.1,-1.43 -0.29,-2.03 -0.2,-0.6 -0.53,-1.11 -1.01,-1.51 -0.48,-0.41 -1.12,-0.73 -1.91,-0.96 -0.79,-0.22 -1.78,-0.34 -2.99,-0.34l-6.65 0zm0 -6.37l4.96 0c1.05,0 2,-0.07 2.85,-0.23 0.85,-0.15 1.57,-0.41 2.16,-0.79 0.59,-0.38 1.04,-0.89 1.35,-1.55 0.31,-0.66 0.46,-1.48 0.46,-2.48 0,-0.98 -0.12,-1.79 -0.37,-2.44 -0.24,-0.65 -0.62,-1.16 -1.13,-1.56 -0.51,-0.39 -1.15,-0.67 -1.93,-0.84 -0.78,-0.17 -1.71,-0.25 -2.78,-0.25l-5.58 0 0 10.14zm48.43 4.99c0.38,0.71 0.74,1.46 1.09,2.23 0.35,0.77 0.68,1.56 0.99,2.37 0.32,-0.83 0.66,-1.63 1.02,-2.41 0.36,-0.78 0.72,-1.54 1.1,-2.27l10.54 -20.79c0.19,-0.36 0.39,-0.63 0.58,-0.83 0.2,-0.2 0.41,-0.35 0.66,-0.44 0.24,-0.09 0.53,-0.14 0.84,-0.14 0.31,0 0.67,0 1.08,0l7.27 0 0 41.07 -8.4 0 0 -23.64c0,-1.14 0.06,-2.38 0.17,-3.72l-10.87 21.12c-0.34,0.66 -0.79,1.16 -1.36,1.49 -0.57,0.34 -1.23,0.51 -1.96,0.51l-1.3 0c-0.73,0 -1.38,-0.17 -1.95,-0.51 -0.57,-0.34 -1.03,-0.84 -1.37,-1.49l-10.93 -21.15c0.07,0.66 0.13,1.32 0.17,1.96 0.04,0.65 0.06,1.24 0.06,1.78l0 23.64 -8.4 0 0 -41.07 7.27 0c0.41,0 0.78,0 1.09,0 0.31,0 0.58,0.05 0.83,0.14 0.24,0.09 0.47,0.25 0.67,0.44 0.2,0.2 0.39,0.47 0.57,0.83l10.56 20.88zm61.73 -22.28l0 7.55 -11.55 0 0 33.52 -9.52 0 0 -33.52 -11.55 0 0 -7.55 32.63 0z"/>
    <path class="fil0" d="M254.61 139.2l-7.38 0c-0.83,0 -1.5,-0.2 -2.04,-0.58 -0.53,-0.39 -0.91,-0.88 -1.12,-1.48l-2.42 -7.16 -15.61 0 -2.42 7.16c-0.19,0.53 -0.55,0.99 -1.1,1.42 -0.55,0.42 -1.21,0.64 -2,0.64l-7.44 0 15.89 -41.07 9.75 0 15.89 41.07zm-26.37 -15.7l11.21 0 -3.78 -11.07c-0.24,-0.7 -0.53,-1.53 -0.85,-2.49 -0.33,-0.95 -0.66,-1.98 -0.98,-3.09 -0.3,1.13 -0.61,2.17 -0.93,3.14 -0.32,0.96 -0.62,1.79 -0.9,2.5l-3.78 11.02zm52.57 -17c-0.28,0.45 -0.57,0.79 -0.88,1.01 -0.31,0.22 -0.71,0.33 -1.2,0.33 -0.43,0 -0.89,-0.13 -1.39,-0.4 -0.5,-0.27 -1.06,-0.58 -1.69,-0.92 -0.63,-0.34 -1.35,-0.64 -2.16,-0.91 -0.81,-0.27 -1.73,-0.41 -2.76,-0.41 -1.79,0 -3.11,0.39 -3.98,1.15 -0.87,0.76 -1.31,1.78 -1.31,3.08 0,0.83 0.26,1.51 0.79,2.07 0.53,0.54 1.22,1.01 2.08,1.41 0.85,0.39 1.83,0.75 2.93,1.08 1.1,0.33 2.22,0.7 3.36,1.1 1.15,0.4 2.27,0.88 3.37,1.43 1.1,0.54 2.08,1.24 2.93,2.08 0.85,0.85 1.54,1.88 2.07,3.09 0.53,1.21 0.79,2.68 0.79,4.38 0,1.9 -0.33,3.67 -0.99,5.33 -0.66,1.65 -1.61,3.1 -2.86,4.33 -1.25,1.23 -2.79,2.2 -4.62,2.9 -1.83,0.7 -3.92,1.06 -6.25,1.06 -1.28,0 -2.57,-0.13 -3.9,-0.38 -1.32,-0.26 -2.61,-0.63 -3.85,-1.1 -1.24,-0.47 -2.4,-1.03 -3.49,-1.68 -1.09,-0.65 -2.04,-1.37 -2.85,-2.16l2.82 -4.53c0.21,-0.34 0.5,-0.62 0.87,-0.83 0.38,-0.21 0.78,-0.31 1.21,-0.31 0.56,0 1.13,0.18 1.71,0.53 0.57,0.36 1.22,0.75 1.94,1.18 0.72,0.43 1.55,0.83 2.49,1.18 0.94,0.36 2.05,0.53 3.32,0.53 1.73,0 3.07,-0.39 4.03,-1.15 0.96,-0.76 1.44,-1.96 1.44,-3.61 0,-0.97 -0.26,-1.75 -0.79,-2.35 -0.53,-0.6 -1.21,-1.1 -2.07,-1.49 -0.85,-0.39 -1.83,-0.74 -2.92,-1.04 -1.09,-0.3 -2.21,-0.63 -3.35,-1 -1.15,-0.36 -2.26,-0.82 -3.35,-1.36 -1.09,-0.53 -2.06,-1.24 -2.91,-2.11 -0.85,-0.87 -1.55,-1.96 -2.08,-3.27 -0.53,-1.31 -0.79,-2.92 -0.79,-4.84 0,-1.54 0.31,-3.04 0.93,-4.51 0.62,-1.47 1.53,-2.78 2.73,-3.92 1.2,-1.15 2.68,-2.06 4.42,-2.74 1.75,-0.69 3.75,-1.03 6,-1.03 1.26,0 2.49,0.1 3.68,0.3 1.19,0.2 2.32,0.49 3.39,0.88 1.07,0.39 2.08,0.85 3.01,1.39 0.93,0.54 1.76,1.15 2.49,1.84l-2.37 4.39zm45.87 32.7l-7.38 0c-0.83,0 -1.5,-0.2 -2.04,-0.58 -0.53,-0.39 -0.91,-0.88 -1.12,-1.48l-2.42 -7.16 -15.61 0 -2.42 7.16c-0.19,0.53 -0.55,0.99 -1.1,1.42 -0.55,0.42 -1.21,0.64 -2,0.64l-7.44 0 15.89 -41.07 9.75 0 15.89 41.07zm-26.37 -15.7l11.21 0 -3.78 -11.07c-0.24,-0.7 -0.53,-1.53 -0.85,-2.49 -0.33,-0.95 -0.66,-1.98 -0.98,-3.09 -0.3,1.13 -0.61,2.17 -0.93,3.14 -0.32,0.96 -0.62,1.79 -0.9,2.5l-3.78 11.02zm45.58 -25.35c0.41,0 0.76,0.02 1.04,0.06 0.28,0.04 0.53,0.1 0.76,0.21 0.23,0.1 0.44,0.25 0.65,0.44 0.21,0.19 0.44,0.44 0.71,0.76l19.49 24.65c-0.07,-0.79 -0.13,-1.56 -0.17,-2.3 -0.04,-0.74 -0.06,-1.44 -0.06,-2.09l0 -21.72 8.4 0 0 41.08 -4.96 0c-0.73,0 -1.35,-0.11 -1.86,-0.34 -0.51,-0.22 -1,-0.64 -1.47,-1.24l-19.35 -24.45c0.06,0.71 0.1,1.41 0.14,2.09 0.04,0.68 0.06,1.33 0.06,1.93l0 22 -8.4 0 0 -41.08 5.01 0zm54.66 33.52c1.28,0 2.42,-0.22 3.43,-0.64 1.01,-0.42 1.85,-1.02 2.54,-1.81 0.7,-0.79 1.23,-1.76 1.6,-2.89 0.37,-1.14 0.54,-2.42 0.54,-3.87l0 -24.31 9.52 0 0 24.33c0,2.52 -0.4,4.83 -1.22,6.93 -0.82,2.11 -1.99,3.93 -3.51,5.45 -1.52,1.52 -3.37,2.7 -5.55,3.55 -2.18,0.85 -4.63,1.27 -7.35,1.27 -2.74,0 -5.2,-0.42 -7.38,-1.27 -2.18,-0.85 -4.03,-2.03 -5.55,-3.55 -1.52,-1.52 -2.68,-3.34 -3.49,-5.45 -0.81,-2.1 -1.21,-4.41 -1.21,-6.93l0 -24.33 9.52 0 0 24.28c0,1.45 0.19,2.73 0.55,3.87 0.37,1.14 0.89,2.1 1.59,2.9 0.69,0.8 1.55,1.41 2.55,1.83 1,0.42 2.14,0.64 3.42,0.64zm46.71 -25.18c-0.28,0.45 -0.57,0.79 -0.88,1.01 -0.31,0.22 -0.71,0.33 -1.2,0.33 -0.43,0 -0.89,-0.13 -1.39,-0.4 -0.5,-0.27 -1.06,-0.58 -1.69,-0.92 -0.63,-0.34 -1.35,-0.64 -2.16,-0.91 -0.81,-0.27 -1.73,-0.41 -2.76,-0.41 -1.79,0 -3.11,0.39 -3.98,1.15 -0.87,0.76 -1.31,1.78 -1.31,3.08 0,0.83 0.26,1.51 0.79,2.07 0.53,0.54 1.22,1.01 2.08,1.41 0.85,0.39 1.83,0.75 2.93,1.08 1.1,0.33 2.22,0.7 3.36,1.1 1.15,0.4 2.27,0.88 3.37,1.43 1.1,0.54 2.08,1.24 2.93,2.08 0.85,0.85 1.54,1.88 2.07,3.09 0.53,1.21 0.79,2.68 0.79,4.38 0,1.9 -0.33,3.67 -0.99,5.33 -0.66,1.65 -1.61,3.1 -2.86,4.33 -1.25,1.23 -2.79,2.2 -4.62,2.9 -1.83,0.7 -3.92,1.06 -6.25,1.06 -1.28,0 -2.57,-0.13 -3.9,-0.38 -1.32,-0.26 -2.61,-0.63 -3.85,-1.1 -1.24,-0.47 -2.4,-1.03 -3.49,-1.68 -1.09,-0.65 -2.04,-1.37 -2.85,-2.16l2.82 -4.53c0.21,-0.34 0.5,-0.62 0.87,-0.83 0.38,-0.21 0.78,-0.31 1.21,-0.31 0.56,0 1.13,0.18 1.71,0.53 0.57,0.36 1.22,0.75 1.94,1.18 0.72,0.43 1.55,0.83 2.49,1.18 0.94,0.36 2.05,0.53 3.32,0.53 1.73,0 3.07,-0.39 4.03,-1.15 0.96,-0.76 1.44,-1.96 1.44,-3.61 0,-0.97 -0.26,-1.75 -0.79,-2.35 -0.53,-0.6 -1.21,-1.1 -2.07,-1.49 -0.85,-0.39 -1.83,-0.74 -2.92,-1.04 -1.09,-0.3 -2.21,-0.63 -3.35,-1 -1.15,-0.36 -2.26,-0.82 -3.35,-1.36 -1.09,-0.53 -2.06,-1.24 -2.91,-2.11 -0.85,-0.87 -1.55,-1.96 -2.08,-3.27 -0.53,-1.31 -0.79,-2.92 -0.79,-4.84 0,-1.54 0.31,-3.04 0.93,-4.51 0.62,-1.47 1.53,-2.78 2.73,-3.92 1.2,-1.15 2.68,-2.06 4.42,-2.74 1.75,-0.69 3.75,-1.03 6,-1.03 1.26,0 2.49,0.1 3.68,0.3 1.19,0.2 2.32,0.49 3.39,0.88 1.07,0.39 2.08,0.85 3.01,1.39 0.93,0.54 1.76,1.15 2.49,1.84l-2.37 4.39zm45.87 32.7l-7.38 0c-0.83,0 -1.5,-0.2 -2.04,-0.58 -0.53,-0.39 -0.91,-0.88 -1.12,-1.48l-2.42 -7.16 -15.61 0 -2.42 7.16c-0.19,0.53 -0.55,0.99 -1.1,1.42 -0.55,0.42 -1.21,0.64 -2,0.64l-7.44 0 15.89 -41.07 9.75 0 15.89 41.07zm-26.37 -15.7l11.21 0 -3.77 -11.07c-0.24,-0.7 -0.53,-1.53 -0.86,-2.49 -0.33,-0.95 -0.66,-1.98 -0.98,-3.09 -0.3,1.13 -0.61,2.17 -0.93,3.14 -0.32,0.96 -0.62,1.79 -0.9,2.5l-3.78 11.02zm34.71 -25.35c0.41,0 0.76,0.02 1.04,0.06 0.28,0.04 0.53,0.1 0.76,0.21 0.23,0.1 0.44,0.25 0.65,0.44 0.21,0.19 0.44,0.44 0.7,0.76l19.49 24.65c-0.07,-0.79 -0.13,-1.56 -0.17,-2.3 -0.04,-0.74 -0.06,-1.44 -0.06,-2.09l0 -21.72 8.4 0 0 41.08 -4.96 0c-0.73,0 -1.35,-0.11 -1.86,-0.34 -0.51,-0.22 -1,-0.64 -1.47,-1.24l-19.35 -24.45c0.06,0.71 0.1,1.41 0.14,2.09 0.04,0.68 0.06,1.33 0.06,1.93l0 22 -8.4 0 0 -41.08 5.01 0zm67.39 0l0 7.55 -11.55 0 0 33.52 -9.52 0 0 -33.52 -11.55 0 0 -7.55 32.63 0zm37.64 41.05l-7.38 0c-0.83,0 -1.5,-0.2 -2.04,-0.58 -0.53,-0.39 -0.91,-0.88 -1.12,-1.48l-2.42 -7.16 -15.61 0 -2.42 7.16c-0.19,0.53 -0.55,0.99 -1.1,1.42 -0.55,0.42 -1.21,0.64 -2,0.64l-7.44 0 15.89 -41.07 9.75 0 15.89 41.07zm-26.37 -15.7l11.21 0 -3.78 -11.07c-0.24,-0.7 -0.53,-1.53 -0.85,-2.49 -0.33,-0.95 -0.66,-1.98 -0.98,-3.09 -0.3,1.13 -0.61,2.17 -0.93,3.14 -0.32,0.96 -0.62,1.79 -0.9,2.5l-3.78 11.02zm39.22 0.52l0 15.18 -9.52 0 0 -41.1 13.35 0c2.97,0 5.5,0.31 7.6,0.92 2.09,0.61 3.8,1.46 5.13,2.55 1.32,1.09 2.28,2.37 2.88,3.87 0.6,1.48 0.9,3.11 0.9,4.86 0,1.33 -0.18,2.6 -0.54,3.78 -0.36,1.18 -0.88,2.28 -1.59,3.29 -0.7,1 -1.57,1.91 -2.59,2.69 -1.02,0.8 -2.21,1.45 -3.54,1.95 0.64,0.32 1.24,0.71 1.79,1.18 0.55,0.47 1.03,1.04 1.45,1.72l8.73 14.28 -8.62 0c-1.6,0 -2.74,-0.6 -3.44,-1.8l-6.82 -11.92c-0.3,-0.53 -0.65,-0.9 -1.05,-1.13 -0.4,-0.22 -0.98,-0.34 -1.71,-0.34l-2.42 0zm0 -6.59l3.83 0c1.3,0 2.4,-0.17 3.32,-0.5 0.91,-0.33 1.65,-0.78 2.23,-1.36 0.58,-0.58 1.01,-1.27 1.27,-2.05 0.26,-0.78 0.39,-1.61 0.39,-2.52 0,-1.8 -0.58,-3.21 -1.76,-4.23 -1.17,-1.01 -3,-1.52 -5.46,-1.52l-3.83 0 0 12.17zm66.15 21.78l-7.38 0c-0.83,0 -1.5,-0.2 -2.04,-0.58 -0.53,-0.39 -0.91,-0.88 -1.12,-1.48l-2.42 -7.16 -15.61 0 -2.42 7.16c-0.19,0.53 -0.55,0.99 -1.1,1.42 -0.55,0.42 -1.21,0.64 -2,0.64l-7.44 0 15.89 -41.07 9.75 0 15.89 41.07zm-26.37 -15.7l11.21 0 -3.77 -11.07c-0.24,-0.7 -0.53,-1.53 -0.86,-2.49 -0.33,-0.95 -0.66,-1.98 -0.98,-3.09 -0.3,1.13 -0.61,2.17 -0.93,3.14 -0.32,0.96 -0.62,1.79 -0.9,2.5l-3.78 11.02z"/>
    <path class="fil0" d="M216.7 171.48c-1.4,3.22 -3.02,3.64 -3.49,3.78 -0.07,0.02 -0.12,0.2 -0.12,0.2l4.84 0c0,0 0.07,-0.17 0,-0.2 -0.37,-0.15 -2.33,-0.39 -0.96,-3.61l4.94 -11.43 1.72 15.24 0.44 0 11.16 -14.87 -2.41 11.62c-0.64,3.02 -1.92,2.9 -2.38,3.05 -0.07,0.02 -0.12,0.2 -0.12,0.2l5.95 0c0,0 0.05,-0.17 -0.02,-0.2 -0.39,-0.15 -1.82,-0.02 -1.18,-3.15l2.19 -10.69c0.52,-2.46 1.62,-3 2.16,-3 0.1,0 0.15,-0.17 0.15,-0.17l-2.97 0 -10.91 14.5 -1.65 -14.5 -3.29 0c0,0 -0.02,0.17 0.05,0.17 0.44,0 1.42,0.3 0.74,1.82l0.07 -0.1 -4.89 11.33zm35.59 1.7c-0.47,1.5 0.15,2.43 1.23,2.43 1.03,0 2.14,-0.79 3.22,-1.97l0 -0.17c0,0 -0.02,-0.15 -0.15,0 -0.86,1.01 -1.82,1.57 -2.16,1.57 -0.42,0 -0.49,-0.64 -0.05,-2.16l2.34 -7.28c0.71,-0.81 2.09,-2.04 3.93,-2.04 3.71,0 1.97,4.69 1.16,7.25l-0.74 2.36c-0.49,1.5 0.12,2.43 1.2,2.43 1.03,0 2.14,-0.79 3.24,-1.97l0 -0.17c0,0 -0.02,-0.15 -0.15,0 -0.89,1.01 -1.84,1.57 -2.19,1.57 -0.42,0 -0.49,-0.64 -0.05,-2.14l0.61 -1.89c1.13,-3.54 2.75,-8.09 -2.68,-8.09 -1.55,0 -3.22,1.06 -4.15,2.09l0.34 -1.03c0.27,-0.86 -0.12,-1.28 -0.98,-1.03l-2.85 0.84c0,0 -0.07,0.17 0,0.2 0.22,-0.05 0.54,-0.15 0.81,-0.15 0.52,0 0.93,0.34 0.39,2.04l-0.96 3.05c-2.53,2.83 -6.24,6.36 -8.94,6.36 -2.14,0 -3.15,-1.92 -3.22,-4.23 10.1,-1.6 10.84,-8.08 5.58,-8.08 -2.73,0 -6.24,1.99 -7.62,6.39 -1.06,3.32 -0.07,6.46 4.06,6.46 3.76,0 7.22,-3.24 9.95,-6.34l-1.18 3.69zm-10.79 -2.43c0,-3.37 1.89,-7.32 4.94,-7.32 4.47,0 0.74,6.83 -4.94,7.32zm30.35 -6.76c0.27,-0.86 -0.12,-1.28 -1.01,-1.03l-2.85 0.84c0,0 -0.05,0.17 0.02,0.2 0.2,-0.05 0.52,-0.15 0.79,-0.15 0.52,0 0.93,0.34 0.44,1.97l-0.59 1.82c-1.13,3.54 -2.78,8.08 2.68,8.08 1.5,0 3.1,-0.98 4.06,-1.99 -0.2,1.18 0.39,1.89 1.33,1.89 1.06,0 2.16,-0.79 3.24,-1.97l0 -0.17c0,0 -0.02,-0.15 -0.15,0 -0.86,1.01 -1.82,1.57 -2.16,1.57 -0.44,0 -0.49,-0.66 -0.02,-2.24l2.85 -8.82c0.27,-0.86 -0.12,-1.28 -1.01,-1.03l-2.85 0.84c0,0 -0.05,0.17 0.02,0.2 0.22,-0.05 0.52,-0.15 0.81,-0.15 0.52,0 0.91,0.34 0.39,2.04l-2.33 7.3c-0.76,0.84 -2.06,1.89 -3.76,1.89 -3.71,0 -1.94,-4.7 -1.16,-7.25l1.25 -3.83zm18.95 9.19c-0.47,1.5 0.15,2.43 1.2,2.43 0.74,0 1.7,-0.44 2.65,-1.45l0 -0.17c0,0 0,-0.15 -0.15,0 -1.6,1.55 -2.46,1.62 -1.57,-1.25l0.54 -1.72c0.64,-1.97 1.4,-4.28 1.13,-5.9 0.66,-0.69 1.87,-1.55 3.69,-1.55 3.71,0 1.82,4.69 1.03,7.25l-0.76 2.36c-0.47,1.5 0.15,2.43 1.2,2.43 0.74,0 1.7,-0.44 2.66,-1.45l0 -0.17c0,0 0,-0.15 -0.15,0 -1.6,1.55 -2.46,1.62 -1.57,-1.25l0.54 -1.72c1.13,-3.54 2.75,-8.09 -2.16,-8.09 -1.74,0 -3.61,0.88 -4.55,1.89 -0.3,-1.13 -1.23,-1.89 -3.24,-1.89 -1.67,0 -3.27,1.03 -4.18,2.09l0.34 -1.03c0.27,-0.86 -0.12,-1.28 -0.98,-1.03l-2.85 0.84c0,0 -0.07,0.17 0,0.2 0.22,-0.05 0.54,-0.15 0.81,-0.15 0.52,0 0.93,0.34 0.39,2.04l-2.34 7.3c-0.47,1.5 0.15,2.43 1.2,2.43 1.06,0 2.16,-0.79 3.24,-1.97l0 -0.17c0,0 -0.02,-0.15 -0.15,0 -0.86,1.01 -1.82,1.57 -2.16,1.57 -0.42,0 -0.49,-0.64 -0.05,-2.16l2.34 -7.3c0.69,-0.81 1.92,-2.02 3.61,-2.02 3.71,0 1.82,4.69 1.03,7.25l-0.76 2.36zm13.69 2.28l2.43 -1.63c0.39,1.18 1.45,1.99 3.59,1.99 3.93,0 6.64,-3.23 7.67,-6.47 1.01,-3.23 0.39,-6.48 -3.54,-6.48 -2.06,0 -3.71,1.06 -4.94,2.51l1.62 -5.08c1.13,-3.29 3.05,-5.29 4.84,-5.29 0.89,0 1.72,0.49 2.43,1.52 0.22,0.32 0.47,0.44 0.74,0.44 1.18,0 2.29,-2.65 -1.5,-2.65 -2.88,0 -7.05,1.4 -9.44,8.82l-2.78 8.72 0.02 0 -1.16 3.6zm6.34 0c-2.43,0 -3.1,-2.74 -2.56,-5.59l0.84 -2.64c0.96,-2.09 2.56,-3.76 4.52,-3.76 4.87,0 2.14,11.99 -2.8,11.99zm13.89 -11.48c0.27,-0.86 -0.12,-1.28 -1.01,-1.03l-2.85 0.84c0,0 -0.05,0.17 0.02,0.2 0.2,-0.05 0.52,-0.15 0.79,-0.15 0.52,0 0.93,0.34 0.44,1.97l-0.59 1.82c-1.13,3.54 -2.78,8.08 2.68,8.08 1.5,0 3.1,-0.98 4.06,-1.99 -0.2,1.18 0.39,1.89 1.33,1.89 1.06,0 2.16,-0.79 3.24,-1.97l0 -0.17c0,0 -0.02,-0.15 -0.15,0 -0.86,1.01 -1.82,1.57 -2.16,1.57 -0.44,0 -0.49,-0.66 -0.02,-2.24l2.85 -8.82c0.27,-0.86 -0.12,-1.28 -1.01,-1.03l-2.85 0.84c0,0 -0.05,0.17 0.02,0.2 0.22,-0.05 0.52,-0.15 0.81,-0.15 0.52,0 0.91,0.34 0.39,2.04l-2.33 7.3c-0.76,0.84 -2.06,1.89 -3.76,1.89 -3.71,0 -1.94,-4.7 -1.16,-7.25l1.25 -3.83zm10.35 9.19c-0.49,1.5 0.12,2.43 1.2,2.43 1.03,0 2.14,-0.79 3.24,-1.97l-0.02 -0.17c0,0 0,-0.15 -0.12,0 -0.88,1.01 -1.84,1.57 -2.19,1.57 -0.44,0 -0.49,-0.71 0.05,-2.46l2.21 -6.96c0.71,-0.79 2.09,-2.06 3.96,-2.06 3.71,0 1.97,4.69 1.18,7.25l-0.76 2.36c-0.47,1.5 0.15,2.43 1.2,2.43 1.06,0 2.16,-0.79 3.24,-1.97l0 -0.17c0,0 -0.03,-0.15 -0.15,0 -0.86,1.01 -1.82,1.57 -2.16,1.57 -0.44,0 -0.52,-0.69 0,-2.31l0.54 -1.72c1.13,-3.54 2.75,-8.09 -2.68,-8.09 -1.57,0 -3.24,1.08 -4.18,2.14l1.42 -4.47c1.11,-3.46 3.07,-5.58 4.92,-5.58 0.88,0 1.74,0.49 2.43,1.52 0.22,0.32 0.47,0.44 0.74,0.44 1.18,0 2.31,-2.65 -1.48,-2.65 -2.88,0 -7.08,1.4 -9.44,8.85l-3.17 10zm15.26 0c-0.49,1.5 0.12,2.43 1.2,2.43 1.03,0 2.14,-0.79 3.24,-1.97l-0.02 -0.17c0,0 0,-0.15 -0.12,0 -0.88,1.01 -1.84,1.57 -2.19,1.57 -0.44,0 -0.49,-0.71 0.05,-2.46l0.69 -2.14 3.07 -2.09c2.43,0.44 -1.74,7.35 3.44,7.35 0.52,0 1.92,-0.54 2.9,-2.06l-0.02 -0.42c0,0 -0.07,-0.05 -0.12,0.1 -0.49,1.01 -1.5,1.8 -2.02,1.8 -2.8,0 0.96,-6.17 -3.73,-7.08l4.79 -3.27c1.72,-1.18 1.03,-2.26 -0.25,-2.26 -0.71,0 -1.6,0.32 -2.36,1.13l0 0.17c0,0 0,0.1 0.15,0 0.42,-0.3 0.76,-0.42 1.01,-0.42 0.86,0 0.56,1.52 -2.02,3.32l-4.69 3.27 3 -9.39c1.11,-3.46 3.07,-5.58 4.92,-5.58 0.88,0 1.72,0.49 2.43,1.52 0.22,0.32 0.47,0.44 0.74,0.44 1.18,0 2.31,-2.65 -1.48,-2.65 -2.88,0 -7.08,1.4 -9.44,8.85l-3.17 10zm27.82 -10.27c0,0 -0.27,-0.02 -0.37,0.25 -0.2,0.61 -1.13,1.23 -2.02,1.35 -0.47,-0.98 -1.52,-1.62 -3.44,-1.62 -3.91,0 -6.61,3.22 -7.64,6.48 -1.03,3.23 -0.42,6.47 3.54,6.47 1.82,0 3.32,-0.84 4.52,-2.04 -0.15,1.13 0.42,1.82 1.35,1.82 1.03,0 2.14,-0.79 3.24,-1.97l0 -0.18c0,0 -0.02,-0.15 -0.15,0 -0.88,1.01 -1.84,1.58 -2.19,1.58 -0.42,0 -0.49,-0.64 -0.02,-2.17l3.17 -9.98zm-6.14 0.34c1.99,0 2.8,1.82 2.75,4.04l-1.77 5.54c-0.96,1.41 -2.26,2.39 -3.76,2.39 -4.89,0 -2.14,-11.97 2.78,-11.97zm7.67 9.93c-0.47,1.5 0.15,2.43 1.2,2.43 1.06,0 2.16,-0.79 3.24,-1.97l0 -0.17c0,0 -0.02,-0.15 -0.15,0 -0.86,1.01 -1.82,1.57 -2.16,1.57 -0.42,0 -0.49,-0.64 -0.05,-2.16l2.34 -7.28c0.71,-0.81 2.09,-2.04 3.93,-2.04 3.71,0 1.94,4.69 1.16,7.25l-0.74 2.36c-0.49,1.5 0.12,2.43 1.2,2.43 1.03,0 2.14,-0.79 3.24,-1.97l0 -0.17c0,0 -0.02,-0.15 -0.15,0 -0.89,1.01 -1.84,1.57 -2.19,1.57 -0.42,0 -0.49,-0.64 -0.05,-2.14l0.61 -1.89c1.13,-3.54 2.75,-8.09 -2.68,-8.09 -1.57,0 -3.22,1.06 -4.15,2.09l0.34 -1.03c0.27,-0.86 -0.12,-1.28 -0.98,-1.03l-2.85 0.84c0,0 -0.07,0.17 0,0.2 0.22,-0.05 0.54,-0.15 0.81,-0.15 0.52,0 0.93,0.34 0.39,2.04l-2.34 7.3zm11.48 4.87l0.34 0 5.06 -4.57 -1.97 0 -3.44 4.57zm27.75 -19.78l-0.39 0 -11.06 13.86c-2.28,2.85 -3.34,3 -3.81,3.15 -0.07,0.02 -0.12,0.2 -0.12,0.2l4.82 0c0,0 0.05,-0.17 -0.02,-0.2 -0.37,-0.15 -2.43,-0.69 -0.47,-3.15l2.51 -3.12 8.18 0 0.52 3.12c0.54,3.39 -0.79,3 -1.23,3.15 -0.1,0.02 -0.15,0.2 -0.15,0.2l5.31 0c0,0 0.02,-0.17 -0.02,-0.2 -0.37,-0.15 -1.28,0.12 -1.82,-3.15l-2.24 -13.86zm-8.23 10.35l6.51 -8.16 1.3 8.16 -7.82 0zm22.54 4.57c-0.47,1.5 0.15,2.43 1.2,2.43 0.74,0 1.7,-0.44 2.65,-1.45l0 -0.17c0,0 0,-0.15 -0.15,0 -1.6,1.55 -2.46,1.62 -1.57,-1.25l0.54 -1.72c0.64,-1.97 1.4,-4.28 1.13,-5.9 0.66,-0.69 1.87,-1.55 3.69,-1.55 3.71,0 1.82,4.69 1.03,7.25l-0.76 2.36c-0.47,1.5 0.15,2.43 1.2,2.43 0.74,0 1.7,-0.44 2.66,-1.45l0 -0.17c0,0 0,-0.15 -0.15,0 -1.6,1.55 -2.46,1.62 -1.57,-1.25l0.54 -1.72c1.13,-3.54 2.75,-8.09 -2.16,-8.09 -1.75,0 -3.61,0.88 -4.55,1.89 -0.3,-1.13 -1.23,-1.89 -3.24,-1.89 -1.67,0 -3.27,1.03 -4.18,2.09l0.34 -1.03c0.27,-0.86 -0.12,-1.28 -0.98,-1.03l-2.85 0.84c0,0 -0.07,0.17 0,0.2 0.22,-0.05 0.54,-0.15 0.81,-0.15 0.52,0 0.94,0.34 0.4,2.04l-2.34 7.3c-0.47,1.5 0.15,2.43 1.2,2.43 1.06,0 2.16,-0.79 3.24,-1.97l0 -0.17c0,0 -0.02,-0.15 -0.15,0 -0.86,1.01 -1.82,1.57 -2.16,1.57 -0.42,0 -0.49,-0.64 -0.05,-2.16l2.34 -7.3c0.69,-0.81 1.92,-2.02 3.61,-2.02 3.71,0 1.82,4.69 1.03,7.25l-0.76 2.36zm27.82 -10.27c0,0 -0.27,-0.02 -0.37,0.25 -0.2,0.61 -1.13,1.23 -2.02,1.35 -0.47,-0.98 -1.52,-1.62 -3.44,-1.62 -3.91,0 -6.61,3.22 -7.64,6.48 -1.03,3.23 -0.42,6.47 3.54,6.47 1.82,0 3.32,-0.84 4.52,-2.04 -0.15,1.13 0.42,1.82 1.35,1.82 1.03,0 2.14,-0.79 3.24,-1.97l0 -0.18c0,0 -0.02,-0.15 -0.15,0 -0.88,1.01 -1.84,1.58 -2.19,1.58 -0.42,0 -0.49,-0.64 -0.02,-2.17l3.17 -9.98zm-6.14 0.34c1.99,0 2.8,1.82 2.75,4.04l-1.77 5.54c-0.96,1.41 -2.26,2.39 -3.76,2.39 -4.89,0 -2.14,-11.97 2.78,-11.97zm7.67 9.93c-0.47,1.5 0.15,2.43 1.2,2.43 1.06,0 2.16,-0.79 3.24,-1.97l0 -0.17c0,0 -0.02,-0.15 -0.15,0 -0.86,1.01 -1.82,1.57 -2.16,1.57 -0.42,0 -0.49,-0.64 -0.05,-2.16l2.34 -7.28c0.71,-0.81 2.09,-2.04 3.93,-2.04 3.71,0 1.94,4.69 1.16,7.25l-0.74 2.36c-0.49,1.5 0.12,2.43 1.2,2.43 1.03,0 2.14,-0.79 3.24,-1.97l0 -0.17c0,0 -0.02,-0.15 -0.15,0 -0.89,1.01 -1.84,1.57 -2.19,1.57 -0.42,0 -0.49,-0.64 -0.05,-2.14l0.61 -1.89c1.13,-3.54 2.75,-8.09 -2.68,-8.09 -1.57,0 -3.22,1.06 -4.15,2.09l0.34 -1.03c0.27,-0.86 -0.12,-1.28 -0.98,-1.03l-2.85 0.84c0,0 -0.07,0.17 0,0.2 0.22,-0.05 0.54,-0.15 0.81,-0.15 0.52,0 0.93,0.34 0.39,2.04l-2.34 7.3zm28.8 -10.27c0,0 -0.27,-0.02 -0.37,0.25 -0.2,0.61 -1.13,1.23 -2.02,1.35 -0.47,-0.98 -1.52,-1.62 -3.44,-1.62 -3.91,0 -6.61,3.22 -7.64,6.48 -1.03,3.23 -0.42,6.47 3.54,6.47 1.82,0 3.32,-0.84 4.52,-2.04 -0.15,1.13 0.42,1.82 1.35,1.82 1.03,0 2.14,-0.79 3.24,-1.97l0 -0.18c0,0 -0.02,-0.15 -0.15,0 -0.88,1.01 -1.84,1.58 -2.19,1.58 -0.42,0 -0.49,-0.64 -0.02,-2.17l3.17 -9.98zm-6.14 0.34c1.99,0 2.8,1.82 2.75,4.04l-1.77 5.54c-0.96,1.41 -2.26,2.39 -3.76,2.39 -4.89,0 -2.14,-11.97 2.78,-11.97zm7.67 9.93c-0.49,1.5 0.12,2.43 1.2,2.43 1.03,0 2.14,-0.79 3.24,-1.97l-0.02 -0.17c0,0 0,-0.15 -0.12,0 -0.88,1.01 -1.84,1.57 -2.19,1.57 -0.44,0 -0.49,-0.71 0.05,-2.46l2.21 -6.96c0.71,-0.79 2.09,-2.06 3.96,-2.06 3.71,0 1.97,4.69 1.18,7.25l-0.76 2.36c-0.47,1.5 0.15,2.43 1.2,2.43 1.06,0 2.16,-0.79 3.24,-1.97l0 -0.17c0,0 -0.03,-0.15 -0.15,0 -0.86,1.01 -1.82,1.57 -2.16,1.57 -0.44,0 -0.52,-0.69 0,-2.31l0.54 -1.72c1.13,-3.54 2.75,-8.09 -2.68,-8.09 -1.57,0 -3.24,1.08 -4.18,2.14l1.42 -4.47c1.11,-3.46 3.07,-5.58 4.92,-5.58 0.88,0 1.75,0.49 2.43,1.52 0.22,0.32 0.47,0.44 0.74,0.44 1.18,0 2.31,-2.65 -1.48,-2.65 -2.88,0 -7.08,1.4 -9.44,8.85l-3.17 10zm31.11 5.77c3.91,-2.43 4.01,-4.94 2.9,-7.47 1.77,-1.77 3.27,-3.81 3.05,-5.43 -0.07,-0.44 -0.34,-0.62 -0.69,-0.62 -0.66,0 -1.57,0.71 -1.5,1.7 0.07,1.35 0.81,1.72 -1.03,4.01 -1.06,-2.21 -2.92,-4.42 -3.88,-6.61 2.31,-1.13 4.47,-1.94 5.06,-3.81 0.62,-1.92 -0.66,-2.85 -2.31,-2.85 -1.8,0 -4.03,1.13 -4.72,3.32 -0.34,1.03 -0.1,2.31 0.42,3.71 -2.9,1.57 -6.09,3.17 -7,6.24 -0.96,3.17 1.5,4.77 4.42,4.77 2.24,0 4.3,-0.93 6.09,-2.41 0.49,1.94 0.42,3.79 -0.86,5.31l0.05 0.15zm-1.33 -14.82c-0.47,-1.18 -0.64,-2.36 -0.22,-3.54 0.49,-1.45 1.87,-2.36 2.88,-2.36 0.88,0 1.5,0.71 0.96,2.36 -0.47,1.48 -1.89,2.56 -3.61,3.54zm2.07 9.02c-1.7,1.43 -3.79,2.41 -5.9,2.41 -2.04,0 -3.12,-1.94 -2.28,-4.55 0.93,-2.97 2.87,-4.57 4.87,-5.73 0.96,2.43 2.58,5.24 3.32,7.86zm22.26 -4.05c4.35,0 7.37,-2.7 8.23,-5.43 0.88,-2.7 -0.44,-5.41 -4.79,-5.41l-5.36 0 -4.47 14.01c-0.98,3 -2.31,2.85 -2.78,3 -0.1,0.02 -0.15,0.2 -0.15,0.2l5.95 0c0,0 0.05,-0.17 -0.02,-0.2 -0.37,-0.15 -1.82,0 -0.81,-3.15l0.96 -3.02 3.24 0zm-3.83 -10.84c0,0 -0.05,0.17 0.02,0.2 0.37,0.15 1.82,0 0.81,3.15l1.08 -3.34 -1.92 0zm6.46 0.4c6.51,0 3.32,10.05 -3.2,10.05l-2.56 0 2.29 -7.2c1.06,-3.24 1.57,-2.8 2.06,-2.85l1.4 0zm5.9 14.52c-0.47,1.5 0.15,2.43 1.2,2.43 1.06,0 2.16,-0.79 3.24,-1.97l0 -0.17c0,0 -0.02,-0.15 -0.15,0 -0.86,1.01 -1.82,1.57 -2.16,1.57 -0.42,0 -0.49,-0.64 -0.05,-2.16l1.97 -6.17c1.42,-1.65 2.46,-2.09 3.34,-2.09 0.52,0 1.01,0.15 1.48,0.3 1.28,0.39 2.46,-1.74 1.38,-2.19 -0.2,-0.07 -0.42,-0.12 -0.64,-0.12 -1.52,0 -3.81,1.6 -5.36,3.51l0.71 -2.14c0.27,-0.86 -0.12,-1.28 -0.98,-1.03l-2.85 0.84c0,0 -0.07,0.17 0,0.2 0.22,-0.05 0.54,-0.15 0.81,-0.15 0.52,0 0.93,0.34 0.39,2.04l-2.34 7.3zm9.98 -3.82c-1.06,3.33 -0.07,6.47 4.08,6.47 4.1,0 7.08,-3.12 8.16,-6.47 1.06,-3.33 0.07,-6.48 -4.06,-6.48 -4.1,0 -7.13,3.13 -8.18,6.48zm7 -5.96c5.26,0 3.56,11.9 -1.74,11.9 -5.33,0 -3.56,-11.9 1.74,-11.9zm16.02 -6.24c-2.65,0 -4.2,2.43 -5.01,5.01l-0.32 1.01 -1.87 0 -0.12 0.39 1.87 0 -4.13 13.03c-1.1,3.46 -3.1,5.58 -4.94,5.58 -0.88,0 -1.72,-0.49 -2.43,-1.52 -0.22,-0.32 -0.47,-0.44 -0.74,-0.44 -1.18,0 -2.29,2.65 1.5,2.65 2.88,0 7.05,-1.4 9.41,-8.85l3.32 -10.45 3.44 0 0.12 -0.39 -3.44 0 0.24 -0.79c0.22,-0.71 1.16,-4.82 2.97,-4.82 2.01,0 0.83,1.45 1.42,2.53 0.2,0.34 0.54,0.52 0.86,0.52 0.49,0 0.96,-0.37 0.91,-1.13 -0.07,-1.01 -1.06,-2.33 -3.07,-2.33zm-0.22 12.21c-1.06,3.32 -0.07,6.46 4.08,6.46 2.97,0 4.79,-1.5 6.05,-3.66l-0.27 -0.17c-0.42,0.93 -2.19,3.29 -4.6,3.29 -2.14,0 -3.15,-1.92 -3.22,-4.23 10.1,-1.6 10.84,-8.08 5.6,-8.08 -2.75,0 -6.24,1.99 -7.64,6.39zm2.04 1.38c0,-3.37 1.89,-7.32 4.94,-7.32 4.47,0 0.74,6.83 -4.94,7.32zm11.13 2.04c-0.2,-0.37 -0.56,-0.54 -0.91,-0.54 -0.64,0 -1.3,0.52 -1.11,1.25 0.37,1.5 2.26,2.31 4.05,2.24 2.7,0 5.7,-1.03 6.56,-3.69 1.5,-4.69 -8.09,-2.73 -6.83,-6.44 0.59,-1.75 2.88,-2.19 4.05,-2.19 2.58,0 1.67,1.4 2.24,2.48 0.22,0.39 0.59,0.56 0.96,0.56 0.62,0 1.25,-0.52 1.06,-1.33 -0.37,-1.52 -2.06,-2.21 -3.61,-2.21 -1.99,0 -5.21,0.66 -6.12,3.46 -1.57,4.99 7.74,3.34 6.78,6.39 -0.54,1.7 -2.56,2.53 -4.62,2.53 -1.94,0 -1.92,-1.45 -2.51,-2.53zm15.21 -13.17c-0.32,1.03 0.27,1.57 1.01,1.57 0.76,0 1.7,-0.54 2.02,-1.57 0.34,-1.03 -0.25,-1.55 -1.01,-1.55 -0.76,0 -1.67,0.52 -2.02,1.55zm1.23 4.38c0.27,-0.86 -0.12,-1.28 -0.98,-1.03l-2.85 0.84c0,0 -0.07,0.17 0,0.2 0.22,-0.05 0.52,-0.15 0.81,-0.15 0.49,0 0.91,0.32 0.44,1.89l-2.38 7.45c-0.47,1.5 0.15,2.43 1.2,2.43 1.06,0 2.16,-0.79 3.24,-1.97l0 -0.17c0,0 -0.02,-0.15 -0.15,0 -0.86,1.01 -1.82,1.57 -2.16,1.57 -0.42,0 -0.49,-0.64 -0.05,-2.16l1.84 -5.78 1.03 -3.12zm1.8 5.37c-1.06,3.33 -0.07,6.47 4.08,6.47 4.1,0 7.08,-3.12 8.16,-6.47 1.06,-3.33 0.07,-6.48 -4.06,-6.48 -4.1,0 -7.13,3.13 -8.18,6.48zm7 -5.96c5.26,0 3.56,11.9 -1.74,11.9 -5.33,0 -3.56,-11.9 1.74,-11.9zm7.28 9.78c-0.47,1.5 0.15,2.43 1.2,2.43 1.06,0 2.16,-0.79 3.24,-1.97l0 -0.17c0,0 -0.02,-0.15 -0.15,0 -0.86,1.01 -1.82,1.57 -2.16,1.57 -0.42,0 -0.49,-0.64 -0.05,-2.16l2.34 -7.28c0.71,-0.81 2.09,-2.04 3.93,-2.04 3.71,0 1.94,4.69 1.16,7.25l-0.74 2.36c-0.49,1.5 0.12,2.43 1.2,2.43 1.03,0 2.14,-0.79 3.24,-1.97l0 -0.17c0,0 -0.02,-0.15 -0.15,0 -0.89,1.01 -1.84,1.57 -2.19,1.57 -0.42,0 -0.49,-0.64 -0.05,-2.14l0.61 -1.89c1.13,-3.54 2.75,-8.09 -2.68,-8.09 -1.57,0 -3.22,1.06 -4.15,2.09l0.34 -1.03c0.27,-0.86 -0.12,-1.28 -0.98,-1.03l-2.85 0.84c0,0 -0.07,0.17 0,0.2 0.22,-0.05 0.54,-0.15 0.81,-0.15 0.52,0 0.93,0.34 0.39,2.04l-2.34 7.3zm28.8 -10.27c0,0 -0.27,-0.02 -0.37,0.25 -0.2,0.61 -1.13,1.23 -2.02,1.35 -0.47,-0.98 -1.52,-1.62 -3.44,-1.62 -3.91,0 -6.61,3.22 -7.64,6.48 -1.03,3.23 -0.42,6.47 3.54,6.47 1.82,0 3.32,-0.84 4.52,-2.04 -0.15,1.13 0.42,1.82 1.35,1.82 1.03,0 2.14,-0.79 3.24,-1.97l0 -0.18c0,0 -0.02,-0.15 -0.15,0 -0.88,1.01 -1.84,1.58 -2.19,1.58 -0.42,0 -0.49,-0.64 -0.02,-2.17l3.17 -9.98zm-6.14 0.34c1.99,0 2.8,1.82 2.75,4.04l-1.77 5.54c-0.96,1.41 -2.26,2.39 -3.76,2.39 -4.89,0 -2.14,-11.97 2.78,-11.97zm7.67 9.93c-0.49,1.5 0.12,2.43 1.2,2.43 1.03,0 2.14,-0.79 3.22,-1.97l0 -0.17c0,0 -0.02,-0.15 -0.15,0 -0.86,1.01 -1.82,1.57 -2.16,1.57 -0.44,0 -0.49,-0.71 0.05,-2.46l3.83 -11.99c1.11,-3.46 3.07,-5.58 4.92,-5.58 0.88,0 1.72,0.49 2.43,1.52 0.22,0.32 0.47,0.44 0.74,0.44 1.18,0 2.28,-2.65 -1.5,-2.65 -2.88,0 -7.05,1.4 -9.41,8.85l-3.17 10z"/>
   </g>
   <g>
    <g>
     <path class="fil1" d="M81.04 65.46l-36.77 -9.79c-3.15,3.53 -5.93,7.4 -8.33,11.51l44.87 0c0,-0.59 0.08,-1.17 0.22,-1.71z"/>
     <path class="fil1" d="M53.31 47.28l28.48 16.4c0.33,-0.55 0.74,-1.05 1.21,-1.48l-20.66 -20.63c-3.2,1.65 -6.22,3.57 -9.03,5.71z"/>
     <path class="fil1" d="M71.13 37.9l13.42 23.23c0.55,-0.27 1.14,-0.48 1.76,-0.6l-6.6 -24.67c-2.9,0.45 -5.77,1.13 -8.57,2.04z"/>
     <path class="fil1" d="M96.72 35.86l-6.58 24.59c-0.56,-0.16 -1.15,-0.26 -1.75,-0.28l0 -24.97c2.8,0.01 5.59,0.23 8.33,0.66z"/>
     <path class="fil1" d="M91.87 61.13l13.42 -23.23c1.59,0.51 3.16,1.1 4.7,1.75 1.4,0.59 2.76,1.23 4.09,1.92l-20.66 20.63c-0.46,-0.43 -0.98,-0.79 -1.55,-1.07z"/>
     <path class="fil1" d="M94.63 63.68l28.48 -16.4c3.29,2.5 6.3,5.32 9.04,8.38l-36.77 9.79c-0.17,-0.63 -0.42,-1.23 -0.75,-1.77z"/>
     <path class="fil1" d="M60 172.36l26.26 -98.11c0.57,0.15 1.16,0.24 1.78,0.25l0 93c-0.58,0.2 -1.16,0.43 -1.77,0.69l-3.77 0.5c-3.27,0.43 -5.76,2.25 -8.83,3.03l-0.08 0.02 -0.08 0.02c-2.43,0.75 -5.08,1.55 -7.62,1.74 -1.31,0.1 -2.66,0.03 -3.91,-0.41 -0.67,-0.23 -1.33,-0.48 -1.98,-0.74z"/>
     <path class="fil1" d="M84.52 73.52l-45.9 79.47c-5.18,-7.58 -8.91,-16.17 -11.13,-25.15l55.5 -55.44c0.26,0.24 0.55,0.47 0.85,0.67 0.22,0.16 0.44,0.31 0.68,0.45z"/>
     <path class="fil1" d="M81.79 70.93l-56.59 32.59c0.38,-6.93 1.63,-13.85 3.73,-20.49l52.1 -13.88c0.17,0.63 0.42,1.23 0.75,1.77z"/>
     <path class="fil1" d="M95.38 69.16l52.1 13.88c-1.72,-5.44 -4.01,-10.69 -6.84,-15.59l-45.04 0c-0,0.59 -0.08,1.17 -0.22,1.71z"/>
     <path class="fil1" d="M151.21 103.52l-56.59 -32.59c-0.33,0.55 -0.74,1.05 -1.21,1.48l55.5 55.43c1.6,-6.5 2.42,-13.21 2.42,-19.89 0,-1.47 -0.04,-2.95 -0.12,-4.43z"/>
     <path class="fil1" d="M137.79 153l-45.92 -79.52c-0.11,0.05 -0.22,0.11 -0.33,0.15 -0.44,0.24 -0.91,0.43 -1.39,0.57l26.32 98.35c0.25,0.02 0.49,0.03 0.74,0.04l1.65 -1.06c7.62,-4.89 13.95,-11.25 18.94,-18.55z"/>
    </g>
    <path class="fil1" d="M66.16 177.19c-1.8,0.14 -3.55,0 -5.18,-0.57 -3.03,-1.06 -5.19,-2.07 -7.12,-3.25l-0.02 -0.01c-19.07,-13.3 -31.81,-37.33 -31.81,-64.76 0,-41.85 29.63,-75.77 66.18,-75.77 36.55,0 66.17,33.92 66.17,75.77 0,28.42 -13.67,53.19 -33.88,66.15l0.01 0.02c-1.12,0.83 -2.24,1.55 -3.23,1.52 -2.95,-0.08 -5.57,-0.67 -8,-1.46 -7.83,-2.52 -13.72,-7.01 -22.31,-2.95 -2.83,1.34 -3.78,3.2 -4.85,4.81 -0.73,1.1 -1.52,2.07 -3.02,2.66 -1.1,0.44 -2.34,0.41 -3.26,1.33 1.91,4.36 6.32,5.72 10.82,1.35 7.91,-7.68 18.94,5.35 25.83,13.29 2.58,2.97 7.1,2.79 10.6,2.07 1.28,-0.34 2.52,-0.78 3.74,-1.32 2.56,-1.13 4.17,-3.25 6.47,-5.15 21.12,-17.51 32.27,-63.96 32.27,-82.32 0,-48.93 -34.64,-88.59 -77.37,-88.59 -42.73,0 -77.37,39.66 -77.37,88.59 0,32.88 15.03,69.55 38.27,84.84 0.28,0.16 0.88,-0.06 1.63,-0.49 -0.75,0.43 -1.36,0.66 -1.64,0.51 2.84,1.45 5.93,2.72 9.24,3.4 2.64,1.16 5.05,1.6 7.01,1.21 2.02,-0.41 4.37,-1.05 9.36,-5.9 2.82,-2.74 5.61,-1.71 7.23,1.34 3.65,-0.38 4.28,-0.96 6.27,2.3 5.63,0.07 2.89,-0.94 6.49,2.29 1.75,0.34 4.03,-0.81 5.7,1.65 1.64,2.4 -0.85,0.59 3.22,5.22 1.56,1.77 7.12,10.38 8.29,1.53 -1.89,-1.48 -8.52,-9.28 -8.91,-10.63 2.03,0.52 8.75,8.56 9.27,9.89 1.51,0.38 2.44,0.73 4.01,-0.51 0.86,-3.24 -1.41,-4.77 -2.97,-6.52 -4.62,-5.15 -14.71,-18.09 -22.12,-17.23 -2.92,0.34 -3.59,2.75 -5.83,3.99 -5.15,2.83 -12.12,-1.11 -11.15,-6.55 3.7,-1.89 4.11,-0.94 5.26,-1.97 0.66,-0.58 1.56,-1.82 3.46,-4.6 -2.82,0.37 -5.17,2.12 -8.46,2.96 -2.8,0.86 -5.61,1.67 -8.29,1.87z"/>
    <path class="fil1" d="M74.84 195.12c-1.05,1.17 -1.76,1.98 -2.89,3.09 -1.18,1.17 -6.37,5.7 -2.21,7.26 2.25,0.85 3.25,-1.05 4.23,-2.04 3.46,-3.54 7.42,-6.09 5.79,-9.44 -0.25,-0.31 -0.51,-0.55 -0.78,-0.72 -1,-0.16 -1.67,-0.1 -2.2,0.11 -0.27,0.17 -0.56,0.4 -0.85,0.68l-0.99 0.94 -0.01 0.01 -0.01 0 -0.1 0.11zm-24.61 -145.77c11.25,-6.61 24.35,-10.41 38.34,-10.41 13.07,0 25.36,3.31 36.09,9.13 -9.98,-7.97 -22.31,-12.87 -36.44,-12.87 -14.87,0 -27.74,5.42 -37.99,14.15zm91.87 135.41c22.03,-17.95 35.03,-39.35 35.03,-70.08 0,-27.32 -12.37,-51.74 -31.81,-67.99 14.05,17.03 22.03,39.84 22.03,62.51 0,20.74 -10.26,56.04 -25.25,75.55zm-112.59 -136.07c-18.11,16.21 -29.5,39.77 -29.5,65.99 0,30.49 15.42,57.38 38.88,73.31 -19.75,-19.36 -29.8,-52.64 -29.8,-78.79 0,-21.8 7.37,-43.72 20.43,-60.51zm57.11 152.3c-1.33,1.38 -6.17,6.05 -6.87,7.24 -1.21,2.02 -0.27,4.33 2,4.22 1.73,-0.09 2.85,-2.1 4,-3.17l6.87 -7.09c0.36,-0.6 0.51,-1.86 0.22,-2.84 -0.43,-0.44 -0.85,-0.9 -1.26,-1.28 -0.29,-0.01 -0.6,-0 -0.93,0.01 -0.96,0.25 -2.28,1.11 -4.02,2.91zm-11.12 8.94c1.52,-0.07 10.8,-10.09 10.8,-10.1 0.53,-0.78 0.62,-1.79 0.31,-2.65 -0.38,-0.61 -0.67,-1.01 -0.95,-1.26 -0.32,-0.22 -0.71,-0.36 -1.16,-0.39l-0.01 0c-0.26,0.02 -0.57,0.07 -0.94,0.13 -1.3,0.46 -2.27,1.96 -3.06,2.79 -1.35,1.4 -6.22,5.87 -7,7.11 -1.24,1.99 -0.31,4.46 2.01,4.36zm17.99 -6.93c-1.73,1.89 -5.23,4.86 -6.48,6.77 -1.19,1.81 -0.58,4.06 1.58,4.27 1.95,0.19 2.78,-1.43 3.81,-2.56l6.53 -6.63c0.56,-0.77 0.64,-2.3 0.12,-3.35l-0.11 -0.15c-0.45,-0.66 -1.1,-0.85 -1.81,-0.88 -0.91,0.14 -2.11,0.87 -3.64,2.53zm3.73 6.58c-1.14,0.4 -1.19,0.64 -2.18,1.62 -1.01,1 -1.28,0.83 -1.18,2.36 1.47,0.82 0.89,0.76 2.81,0.56l0.43 -0.38c0.04,-0.03 0.16,-0.12 0.2,-0.14 0.56,-0.36 0.06,-0.14 0.53,-0.18 0.39,-2.38 0.59,-2.26 -0.61,-3.83zm0.84 -1.27c0.56,0.72 0.69,1.17 1.42,2.02 0.54,0.63 0.79,1.05 1.34,1.68 2.07,2.35 4.56,0.67 4.55,-1.61 -1.19,-1.25 -2.22,-2.7 -3.06,-3.66 -0.45,-0.51 -0.96,-1.04 -1.42,-1.61 -1.16,1.06 -2.16,2.22 -2.82,3.18z"/>
    <polygon class="fil1" points="132.27,12.6 134.07,18.18 139.92,18.16 135.18,21.6 137,27.17 132.27,23.71 127.53,27.17 129.35,21.6 124.61,18.16 130.47,18.18 "/>
    <polygon class="fil1" points="151.16,32.78 152.4,36.6 156.41,36.59 153.16,38.94 154.4,42.76 151.16,40.39 147.92,42.76 149.17,38.94 145.92,36.59 149.93,36.6 "/>
    <g>
     <polygon class="fil1" points="105.02,0 107.18,6.69 114.21,6.67 108.52,10.79 110.7,17.47 105.02,13.33 99.35,17.47 101.53,10.79 95.84,6.67 102.86,6.69 "/>
     <polygon class="fil1" points="71.39,0 69.23,6.69 62.21,6.67 67.9,10.79 65.72,17.47 71.39,13.33 77.07,17.47 74.88,10.79 80.57,6.67 73.55,6.69 "/>
    </g>
    <polygon class="fil1" points="45.39,12.6 43.59,18.18 37.73,18.16 42.48,21.6 40.66,27.17 45.39,23.71 50.12,27.17 48.3,21.6 53.05,18.16 47.19,18.18 "/>
    <polygon class="fil1" points="27.53,32.78 26.3,36.6 22.29,36.59 25.54,38.94 24.29,42.76 27.53,40.39 30.77,42.76 29.53,38.94 32.78,36.59 28.77,36.6 "/>
   </g>
  </g>
 </g>
</svg>
