<?xml version="1.0" encoding="UTF-8"?>
<!DOCTYPE svg PUBLIC "-//W3C//DTD SVG 1.1//EN" "http://www.w3.org/Graphics/SVG/1.1/DTD/svg11.dtd">
<!-- Creator: CorelDRAW -->
<svg xmlns="http://www.w3.org/2000/svg" xml:space="preserve" width="138.093mm" height="41.6893mm" version="1.1" style="shape-rendering:geometricPrecision; text-rendering:geometricPrecision; image-rendering:optimizeQuality; fill-rule:evenodd; clip-rule:evenodd"
viewBox="0 0 70281.91 21217.58"
 xmlns:xlink="http://www.w3.org/1999/xlink"
 xmlns:xodm="http://www.corel.com/coreldraw/odm/2003">
 <defs>
  <style type="text/css">
   <![CDATA[
    .fil2 {fill:#332C2B;fill-rule:nonzero}
    .fil1 {fill:#009B4C;fill-rule:nonzero}
    .fil0 {fill:url(#id0);fill-rule:nonzero}
   ]]>
  </style>
  <linearGradient id="id0" gradientUnits="userSpaceOnUse" x1="36242.57" y1="5839.54" x2="36234.78" y2="-1071.23">
   <stop offset="0" style="stop-opacity:1; stop-color:#E62129"/>
   <stop offset="0.329412" style="stop-opacity:1; stop-color:#E62129"/>
   <stop offset="0.529412" style="stop-opacity:1; stop-color:#E62129"/>
   <stop offset="1" style="stop-opacity:1; stop-color:#F8B739"/>
  </linearGradient>
 </defs>
 <g id="Layer_x0020_1">
  <metadata id="CorelCorpID_0Corel-Layer"/>
  <path class="fil0" d="M13961.55 2539.79l226.43 0c209.48,0 360.28,-65.65 452.61,-196.96l1374.76 -1995.07c75.37,-109.07 162.2,-183.07 258.44,-222 96.5,-39.24 213.91,-58.68 353.56,-58.68l1232.31 0 -1810.68 2471.34c-64.53,89.57 -131.56,163.58 -201.39,222.26 -69.83,58.68 -141.03,107.64 -213.66,148 106.27,39.19 203.93,92.32 292.13,160.78 87.89,68.45 167.44,160.78 240.07,275.14l1844.32 2833.5 -1265.75 0c-81.23,0 -149.63,-5.55 -206.94,-16.69 -57.31,-11.1 -107.39,-28.09 -149.38,-50.33 -42.04,-22.24 -78.17,-50.33 -109.07,-82.35 -30.59,-32.27 -60.06,-68.71 -87.89,-110.44l-1383.11 -2125c-50.33,-78.43 -113.24,-134.36 -190.29,-166.37 -76.75,-32.27 -181.34,-47.54 -312.95,-47.54l-343.54 0 0 2598.73 -1416.75 0 0 -6111.01 1416.75 0 0 2472.71zm7972.07 -1230.68c-42.04,67.08 -85.15,117.16 -131.31,150.8 -46.16,32.27 -106.27,48.96 -178.89,48.96 -64.23,0 -132.68,-19.75 -206.68,-60.11 -74.26,-40.61 -157.98,-86.78 -251.47,-136.86 -93.75,-50.33 -201.39,-95.12 -321.55,-135.74 -120.16,-40.36 -257.07,-61.48 -410.62,-61.48 -265.67,0 -462.58,57.31 -592.51,170.5 -129.88,113.24 -195.54,265.42 -195.54,458.46 0,122.96 39.19,224.75 117.36,307.4 78.17,80.92 181.64,150.75 308.78,209.43 127.13,58.73 272.34,111.87 435.91,160.52 163.58,48.96 329.64,103.52 500.19,163.58 170.5,60.11 337.99,131.31 501.51,212.54 163.58,80.97 308.83,184.44 435.91,310.15 127.13,125.76 229.23,279.31 307.4,459.58 78.17,180.27 117.41,398.05 117.41,652.32 0,282.36 -48.96,546.35 -146.63,792.28 -97.92,245.87 -238.95,461.21 -424.77,644.22 -185.82,183.07 -415.05,326.9 -687.38,431.74 -272.64,104.59 -582.79,157.72 -929.13,157.72 -189.99,0 -382.78,-19.44 -579.99,-57.26 -196.96,-38.99 -388.33,-93.49 -572.77,-163.32 -184.44,-70.08 -357.74,-153.8 -519.63,-250.35 -162.2,-96.24 -303.23,-203.93 -423.39,-321.3l419.22 -673.49c30.59,-50.08 74,-92.07 129.88,-122.96 55.93,-30.59 116.04,-45.91 180.27,-45.91 83.72,0 168.87,26.47 254.27,79.6 85.15,53.13 181.64,111.82 289.03,176.1 107.64,64.23 230.6,122.91 370.26,176.04 139.91,53.13 304.6,79.6 494.59,79.6 257.32,0 457.03,-57.31 599.49,-170.55 142.4,-113.24 213.66,-291.83 213.66,-537.7 0,-144.13 -38.99,-260.12 -117.16,-349.39 -78.43,-89.32 -180.22,-163.58 -307.35,-222.26 -127.13,-58.73 -272.64,-110.19 -434.54,-154.97 -162.15,-44.79 -328.52,-93.75 -498.77,-148.26 -170.5,-54.25 -336.87,-121.28 -498.77,-202.51 -162.2,-79.6 -305.98,-184.44 -433.11,-314.38 -127.13,-129.88 -230.6,-292.08 -308.78,-486.25 -78.48,-194.16 -117.41,-434.49 -117.41,-719.34 0,-229.23 45.91,-452.91 138.28,-670.69 92.07,-218.13 227.8,-413.67 406.7,-583.91 178.59,-170.55 398.05,-305.98 657.86,-408.07 259.82,-102.09 557.5,-153.6 892.69,-153.6 187.19,0 370.26,15.32 547.73,44.53 177.47,29.47 345.22,72.63 504.31,131.31 159.4,57.31 308.83,127.13 447.31,206.94 138.28,80.97 261.24,171.67 370.26,273.76l-352.14 652.57zm2556.74 2823.53l0 2041.28 -1416.75 0 0 -6115.49 2154.47 0c430.36,0 800.62,51.76 1109.4,153.85 308.78,102.09 563,243.12 762.76,421.97 199.71,178.89 346.59,389.75 441.46,634.25 95.12,243.17 142.45,507.16 142.45,789.48 0,304.6 -48.71,585.29 -146.63,839.56 -97.92,255.64 -247.3,473.73 -448.43,655.42 -201.14,181.64 -455.66,324.05 -764.44,426.14 -308.78,101.84 -674.56,153.55 -1096.57,153.55l-737.72 0zm0 -1072.91l737.72 0c368.88,0 634.25,-88.2 796.45,-263.99 161.9,-176.1 243.12,-422.02 243.12,-737.77 0,-139.91 -21.17,-267.04 -62.91,-381.35 -41.99,-114.61 -104.84,-213.91 -190.24,-296.26 -85.15,-82.65 -192.79,-145.51 -322.67,-189.99 -129.93,-44.79 -284.86,-67.08 -463.75,-67.08l-737.72 0 0 1936.44zm5348.25 1072.91l0 2041.28 -1416.75 0 0 -6115.49 2154.47 0c430.36,0 800.62,51.76 1109.4,153.85 308.78,102.09 563.05,243.12 762.76,421.97 199.76,178.89 346.59,389.75 441.46,634.25 95.17,243.17 142.45,507.16 142.45,789.48 0,304.6 -48.71,585.29 -146.63,839.56 -97.92,255.64 -247.3,473.73 -448.43,655.42 -201.08,181.64 -455.61,324.05 -764.44,426.14 -308.78,101.84 -674.56,153.55 -1096.57,153.55l-737.72 0zm0 -1072.91l737.72 0c368.88,0 634.25,-88.2 796.45,-263.99 161.9,-176.1 243.12,-422.02 243.12,-737.77 0,-139.91 -21.12,-267.04 -62.85,-381.35 -42.04,-114.61 -104.89,-213.91 -190.29,-296.26 -85.1,-82.65 -192.79,-145.51 -322.67,-189.99 -129.93,-44.79 -284.86,-67.08 -463.75,-67.08l-737.72 0 0 1936.44zm7335.02 -1750.62c-41.99,67.08 -85.15,117.16 -131.31,150.8 -46.16,32.27 -106.27,48.96 -178.84,48.96 -64.28,0 -132.73,-19.75 -206.68,-60.11 -74.31,-40.61 -158.03,-86.78 -251.47,-136.86 -93.75,-50.33 -201.44,-95.12 -321.6,-135.74 -120.16,-40.36 -257.02,-61.48 -410.57,-61.48 -265.67,0 -462.63,57.31 -592.57,170.5 -129.88,113.24 -195.54,265.42 -195.54,458.46 0,122.96 39.24,224.75 117.41,307.4 78.12,80.92 181.64,150.75 308.78,209.43 127.08,58.73 272.34,111.87 435.86,160.52 163.58,48.96 329.64,103.52 500.19,163.58 170.5,60.11 337.99,131.31 501.57,212.54 163.58,80.97 308.78,184.44 435.91,310.15 127.13,125.76 229.18,279.31 307.35,459.58 78.17,180.27 117.41,398.05 117.41,652.32 0,282.36 -48.96,546.35 -146.63,792.28 -97.92,245.87 -238.95,461.21 -424.77,644.22 -185.82,183.07 -415.05,326.9 -687.38,431.74 -272.59,104.59 -582.79,157.72 -929.13,157.72 -189.99,0 -382.73,-19.44 -579.99,-57.26 -196.91,-38.99 -388.33,-93.49 -572.77,-163.32 -184.44,-70.08 -357.74,-153.8 -519.63,-250.35 -162.15,-96.24 -303.23,-203.93 -423.39,-321.3l419.22 -673.49c30.59,-50.08 74,-92.07 129.93,-122.96 55.88,-30.59 115.99,-45.91 180.27,-45.91 83.72,0 168.82,26.47 254.22,79.6 85.15,53.13 181.64,111.82 289.03,176.1 107.64,64.23 230.6,122.91 370.26,176.04 139.91,53.13 304.6,79.6 494.59,79.6 257.32,0 457.08,-57.31 599.49,-170.55 142.45,-113.24 213.66,-291.83 213.66,-537.7 0,-144.13 -38.93,-260.12 -117.11,-349.39 -78.48,-89.32 -180.27,-163.58 -307.4,-222.26 -127.13,-58.73 -272.59,-110.19 -434.54,-154.97 -162.15,-44.79 -328.52,-93.75 -498.77,-148.26 -170.5,-54.25 -336.87,-121.28 -498.77,-202.51 -162.15,-79.6 -305.98,-184.44 -433.11,-314.38 -127.13,-129.88 -230.6,-292.08 -308.78,-486.25 -78.43,-194.16 -117.41,-434.49 -117.41,-719.34 0,-229.23 45.91,-452.91 138.28,-670.69 92.07,-218.13 227.8,-413.67 406.7,-583.91 178.59,-170.55 398.05,-305.98 657.86,-408.07 259.82,-102.09 557.5,-153.6 892.69,-153.6 187.24,0 370.26,15.32 547.73,44.53 177.47,29.47 345.22,72.63 504.36,131.31 159.4,57.31 308.78,127.13 447.31,206.94 138.23,80.97 261.19,171.67 370.26,273.76l-352.19 652.57zm2757.87 4868.98l0 -6111.01 2246.59 0c421.97,0 781.13,38.93 1077.39,117.11 295.95,79.85 537.7,190.24 724.89,332.7 187.24,143.83 324.4,317.12 409.5,522.43 85.15,205.56 127.13,433.11 127.13,685.96 0,136.86 -19.49,269.84 -58.68,398.35 -39.24,127.13 -100.72,247.3 -184.44,358.86 -83.72,113.24 -191.41,215.33 -322.67,306.03 -131.31,90.95 -289.34,170.5 -473.78,237.52 402.52,97.92 699.9,255.64 892.94,475.15 192.79,217.83 289.03,498.77 289.03,840.93 0,260.12 -50.33,501.82 -150.75,723.82 -100.72,223.63 -247.3,417.84 -441.46,583.91 -194.16,164.95 -434.54,294.83 -719.65,388.58 -284.86,93.49 -610.63,139.65 -976.72,139.65l-2439.32 0zm1416.75 -2590.38l0 1517.47 997.53 0c187.24,0 340.79,-23.92 459.58,-71.25 118.79,-47.54 211.11,-109.02 278.19,-183.02 67.03,-75.68 113.19,-160.78 138.23,-255.64 25.04,-95.12 37.87,-191.67 37.87,-287.91 0,-111.82 -14.2,-212.54 -43.41,-301.86 -29.21,-89.27 -79.55,-164.95 -150.8,-225 -71.46,-61.48 -166.32,-108.81 -283.74,-142.45 -117.36,-33.39 -265.36,-50.33 -444.26,-50.33l-989.19 0zm0 -947.2l737.72 0c156.35,0 297.68,-11.15 423.39,-33.69 125.76,-22.24 233.15,-61.48 321.3,-117.11 87.89,-55.88 154.97,-132.94 201.14,-230.6 46.16,-97.92 68.45,-220.88 68.45,-368.83 0,-145.25 -18.12,-266.79 -54.56,-363.34 -36.14,-96.24 -92.07,-173.3 -167.44,-231.98 -75.68,-58.73 -170.55,-100.41 -286.54,-125.76 -115.99,-25.04 -254.27,-37.56 -413.62,-37.56l-829.84 0 0 1508.87zm7205.14 741.89c55.88,106.27 110.39,217.83 162.15,332.44 51.76,114.61 100.72,231.98 148,352.14 47.59,-122.96 97.92,-243.12 151.06,-359.11 53.13,-115.99 107.64,-228.92 163.27,-337.99l1567.81 -3093.37c27.84,-53.08 57.31,-93.7 86.52,-122.91 29.52,-29.21 61.48,-51.76 97.92,-65.65 36.19,-13.95 78.17,-20.87 124.34,-20.87 45.91,0 99.04,0 160.52,0l1081.56 0 0 6111.01 -1249 0 0 -3516.71c0,-170.24 8.35,-354.68 25.04,-553.33l-1617.89 3142.33c-50.39,97.92 -117.41,171.92 -202.51,222.26 -85.4,50.08 -183.07,75.37 -292.08,75.37l-192.79 0c-109.07,0 -205.31,-25.29 -290.71,-75.37 -85.15,-50.33 -153.55,-124.34 -203.88,-222.26l-1626.23 -3146.5c11.1,97.92 19.44,195.84 24.99,292.08 5.6,96.55 8.35,184.44 8.35,265.42l0 3516.71 -1249 0 0 -6111.01 1081.56 0c61.48,0 115.73,0 161.9,0 46.16,0 86.78,6.92 122.96,20.87 36.44,13.89 69.83,36.44 99.3,65.65 29.21,29.21 57.31,69.83 85.15,122.91l1571.73 3105.89zm9183.77 -3315.32l0 1123.29 -1718.61 0 0 4987.72 -1416.75 0 0 -4987.72 -1718.56 0 0 -1123.29 4853.92 0z"/>
  <path class="fil1" d="M6178.34 14722.93l-1098.25 0c-122.96,0 -223.63,-29.52 -303.23,-86.52 -79.55,-57.31 -135.43,-130.19 -166.32,-219.51l-360.23 -1064.56 -2322.27 0 -360.49 1064.56c-27.84,78.17 -82.35,148 -163.32,210.91 -81.23,62.85 -180.27,95.12 -297.63,95.12l-1106.6 0 2363.95 -6111.06 1450.44 0 2363.95 6111.06zm-3923.41 -2336.16l1668.22 0 -561.67 -1647.1c-36.14,-104.84 -78.12,-227.8 -127.08,-370.26 -48.96,-141.03 -97.67,-294.83 -145.25,-459.83 -44.79,167.75 -90.95,322.98 -138.23,466.8 -47.59,142.4 -92.37,266.79 -134.36,371.63l-561.62 1638.75zm7821.27 -2528.64c-42.04,67.03 -85.15,117.11 -131.31,150.8 -46.16,32.27 -106.27,48.96 -178.89,48.96 -64.23,0 -132.68,-19.8 -206.68,-60.11 -74.26,-40.61 -157.98,-86.78 -251.47,-136.86 -93.75,-50.39 -201.39,-95.17 -321.55,-135.79 -120.16,-40.31 -257.07,-61.43 -410.62,-61.43 -265.67,0 -462.58,57.26 -592.51,170.5 -129.88,113.24 -195.54,265.36 -195.54,458.46 0,122.96 39.19,224.75 117.36,307.35 78.17,80.97 181.64,150.8 308.78,209.48 127.13,58.68 272.34,111.82 435.91,160.52 163.58,48.96 329.64,103.47 500.19,163.58 170.5,60.06 337.99,131.31 501.51,212.54 163.58,80.92 308.78,184.39 435.91,310.15 127.13,125.76 229.23,279.31 307.4,459.53 78.17,180.27 117.41,398.1 117.41,652.37 0,282.36 -48.96,546.35 -146.63,792.22 -97.92,245.92 -238.95,461.26 -424.77,644.27 -185.82,183.07 -415.05,326.84 -687.38,431.74 -272.64,104.59 -582.79,157.72 -929.13,157.72 -189.99,0 -382.78,-19.49 -579.99,-57.31 -196.96,-38.93 -388.33,-93.44 -572.77,-163.27 -184.44,-70.13 -357.74,-153.85 -519.63,-250.35 -162.2,-96.29 -303.23,-203.93 -423.39,-321.3l419.22 -673.49c30.59,-50.08 74,-92.07 129.88,-122.96 55.93,-30.59 116.04,-45.91 180.27,-45.91 83.72,0 168.87,26.41 254.27,79.55 85.1,53.13 181.64,111.87 289.03,176.1 107.64,64.28 230.6,122.96 370.26,176.1 139.91,53.13 304.6,79.55 494.59,79.55 257.32,0 457.03,-57.31 599.49,-170.5 142.4,-113.24 213.66,-291.83 213.66,-537.75 0,-144.08 -38.99,-260.07 -117.16,-349.39 -78.43,-89.27 -180.22,-163.58 -307.35,-222.26 -127.13,-58.68 -272.64,-110.14 -434.54,-154.92 -162.15,-44.79 -328.52,-93.75 -498.77,-148.31 -170.5,-54.2 -336.87,-121.28 -498.77,-202.51 -162.2,-79.55 -305.98,-184.39 -433.11,-314.32 -127.13,-129.93 -230.65,-292.08 -308.78,-486.25 -78.48,-194.16 -117.41,-434.54 -117.41,-719.39 0,-229.23 45.91,-452.86 138.28,-670.69 92.07,-218.08 227.8,-413.62 406.7,-583.86 178.59,-170.55 398.05,-306.03 657.86,-408.12 259.82,-102.09 557.5,-153.55 892.69,-153.55 187.19,0 370.26,15.32 547.73,44.53 177.47,29.47 345.22,72.58 504.31,131.31 159.4,57.26 308.78,127.08 447.31,206.94 138.28,80.97 261.24,171.62 370.26,273.71l-352.14 652.62zm6823.74 4864.81l-1098.25 0c-122.96,0 -223.68,-29.52 -303.23,-86.52 -79.55,-57.31 -135.48,-130.19 -166.37,-219.51l-360.23 -1064.56 -2322.22 0 -360.54 1064.56c-27.84,78.17 -82.35,148 -163.27,210.91 -81.23,62.85 -180.27,95.12 -297.68,95.12l-1106.6 0 2364 -6111.06 1450.39 0 2364 6111.06zm-3923.46 -2336.16l1668.22 0 -561.62 -1647.1c-36.19,-104.84 -78.17,-227.8 -127.13,-370.26 -48.96,-141.03 -97.62,-294.83 -145.2,-459.83 -44.79,167.75 -90.95,322.98 -138.28,466.8 -47.54,142.4 -92.32,266.79 -134.36,371.63l-561.62 1638.75zm6781.75 -3770.73c61.43,0 113.19,2.8 155.18,8.35 41.73,5.6 79.6,15.32 112.99,30.64 33.64,15.27 65.6,37.81 96.5,65.65 30.59,28.09 65.65,65.6 104.89,113.19l2900.28 3667.51c-11.15,-117.41 -19.49,-231.98 -25.04,-342.16 -5.55,-110.44 -8.35,-213.91 -8.35,-311.58l0 -3231.6 1249.05 0 0 6111.06 -737.77 0c-109.02,0 -201.08,-16.69 -276.51,-50.33 -75.63,-33.39 -148.26,-94.87 -218.08,-184.44l-2879.41 -3638.04c8.35,106.01 15.27,209.48 20.87,311.58 5.55,101.79 8.35,198.34 8.35,287.61l0 3273.64 -1249.05 0 0 -6111.06 746.11 0zm8131.42 4987.77c189.99,0 360.54,-32.27 509.91,-95.12 149.63,-62.91 275.39,-152.17 378.6,-269.59 103.47,-117.36 183.02,-261.19 237.58,-430.31 54.51,-169.12 80.92,-360.54 80.92,-575.57l0 -3617.18 1416.75 0 0 3619.98c0,374.43 -60.06,717.97 -181.64,1030.92 -121.54,313.21 -295.95,584.17 -522.43,810.6 -226.43,226.18 -501.51,402.27 -825.61,527.98 -324.35,125.76 -688.76,188.62 -1094.08,188.62 -408.07,0 -773.9,-62.85 -1098.25,-188.62 -324.1,-125.71 -599.18,-301.8 -825.61,-527.98 -226.48,-226.43 -399.47,-497.39 -519.63,-810.6 -120.21,-312.95 -180.27,-656.49 -180.27,-1030.92l0 -3619.98 1416.75 0 0 3613c0,215.03 27.84,406.44 82.35,575.57 54.51,169.12 132.68,312.95 236.15,431.74 103.21,118.79 230.35,209.43 380.03,272.34 149.38,62.85 318.5,95.12 508.49,95.12zm6949.45 -3745.69c-41.99,67.03 -85.1,117.11 -131.31,150.8 -46.16,32.27 -106.22,48.96 -178.84,48.96 -64.28,0 -132.68,-19.8 -206.68,-60.11 -74.26,-40.61 -158.03,-86.78 -251.47,-136.86 -93.75,-50.39 -201.39,-95.17 -321.6,-135.79 -120.16,-40.31 -257.02,-61.43 -410.57,-61.43 -265.67,0 -462.63,57.26 -592.51,170.5 -129.93,113.24 -195.59,265.36 -195.59,458.46 0,122.96 39.24,224.75 117.41,307.35 78.17,80.97 181.64,150.8 308.78,209.48 127.13,58.68 272.34,111.82 435.91,160.52 163.58,48.96 329.64,103.47 500.14,163.58 170.55,60.06 337.99,131.31 501.57,212.54 163.58,80.92 308.78,184.39 435.91,310.15 127.13,125.76 229.23,279.31 307.4,459.53 78.17,180.27 117.36,398.1 117.36,652.37 0,282.36 -48.96,546.35 -146.58,792.22 -97.92,245.92 -238.95,461.26 -424.77,644.27 -185.87,183.07 -415.05,326.84 -687.38,431.74 -272.64,104.59 -582.79,157.72 -929.13,157.72 -189.99,0 -382.78,-19.49 -579.99,-57.31 -196.96,-38.93 -388.38,-93.44 -572.77,-163.27 -184.44,-70.13 -357.74,-153.85 -519.68,-250.35 -162.15,-96.29 -303.18,-203.93 -423.34,-321.3l419.17 -673.49c30.64,-50.08 74,-92.07 129.93,-122.96 55.93,-30.59 115.99,-45.91 180.27,-45.91 83.72,0 168.87,26.41 254.27,79.55 85.1,53.13 181.64,111.87 289.03,176.1 107.64,64.28 230.6,122.96 370.26,176.1 139.91,53.13 304.6,79.55 494.59,79.55 257.32,0 457.03,-57.31 599.44,-170.5 142.45,-113.24 213.66,-291.83 213.66,-537.75 0,-144.08 -38.93,-260.07 -117.11,-349.39 -78.43,-89.27 -180.27,-163.58 -307.4,-222.26 -127.08,-58.68 -272.59,-110.14 -434.49,-154.92 -162.2,-44.79 -328.52,-93.75 -498.77,-148.31 -170.55,-54.2 -336.87,-121.28 -498.77,-202.51 -162.2,-79.55 -306.03,-184.39 -433.16,-314.32 -127.13,-129.93 -230.6,-292.08 -308.78,-486.25 -78.43,-194.16 -117.36,-434.54 -117.36,-719.39 0,-229.23 45.91,-452.86 138.23,-670.69 92.07,-218.08 227.85,-413.62 406.7,-583.86 178.59,-170.55 398.1,-306.03 657.91,-408.12 259.82,-102.09 557.45,-153.55 892.64,-153.55 187.24,0 370.26,15.32 547.78,44.53 177.47,29.47 345.22,72.58 504.31,131.31 159.4,57.26 308.78,127.08 447.31,206.94 138.28,80.97 261.19,171.62 370.26,273.71l-352.19 652.62zm6823.74 4864.81l-1098.25 0c-122.96,0 -223.63,-29.52 -303.18,-86.52 -79.6,-57.31 -135.48,-130.19 -166.37,-219.51l-360.23 -1064.56 -2322.27 0 -360.49 1064.56c-27.84,78.17 -82.35,148 -163.32,210.91 -81.23,62.85 -180.27,95.12 -297.63,95.12l-1106.6 0 2363.95 -6111.06 1450.44 0 2363.95 6111.06zm-3923.41 -2336.16l1668.22 0 -561.62 -1647.1c-36.19,-104.84 -78.17,-227.8 -127.13,-370.26 -48.96,-141.03 -97.67,-294.83 -145.2,-459.83 -44.79,167.75 -91,322.98 -138.28,466.8 -47.59,142.4 -92.37,266.79 -134.36,371.63l-561.62 1638.75zm5163.81 -3770.73c61.48,0 113.24,2.8 155.23,8.35 41.73,5.6 79.55,15.32 112.94,30.64 33.64,15.27 65.65,37.81 96.55,65.65 30.59,28.09 65.65,65.6 104.84,113.19l2900.33 3667.51c-11.15,-117.41 -19.49,-231.98 -25.04,-342.16 -5.6,-110.44 -8.35,-213.91 -8.35,-311.58l0 -3231.6 1249 0 0 6111.06 -737.72 0c-109.07,0 -201.14,-16.69 -276.51,-50.33 -75.68,-33.39 -148.26,-94.87 -218.08,-184.44l-2879.46 -3638.04c8.35,106.01 15.32,209.48 20.87,311.58 5.6,101.79 8.35,198.34 8.35,287.61l0 3273.64 -1249 0 0 -6111.06 746.06 0zm10026.12 0l0 1123.29 -1718.61 0 0 4987.77 -1416.75 0 0 -4987.77 -1718.56 0 0 -1123.29 4853.92 0zm5599.72 6106.89l-1098.25 0c-122.91,0 -223.63,-29.52 -303.18,-86.52 -79.55,-57.31 -135.48,-130.19 -166.37,-219.51l-360.23 -1064.56 -2322.22 0 -360.54 1064.56c-27.84,78.17 -82.35,148 -163.27,210.91 -81.23,62.85 -180.27,95.12 -297.68,95.12l-1106.6 0 2364 -6111.06 1450.39 0 2363.95 6111.06zm-3923.41 -2336.16l1668.22 0 -561.62 -1647.1c-36.19,-104.84 -78.17,-227.8 -127.13,-370.26 -48.96,-141.03 -97.67,-294.83 -145.2,-459.83 -44.79,167.75 -90.95,322.98 -138.28,466.8 -47.54,142.4 -92.32,266.79 -134.36,371.63l-561.62 1638.75zm5834.5 77.05l0 2259.11 -1416.75 0 0 -6115.49 1986.77 0c441.46,0 818.69,46.16 1130.22,137.16 311.58,90.64 565.85,217.78 763.06,379.98 196.96,161.9 339.36,353.26 428.68,575.57 89.57,220.83 134.36,462.33 134.36,722.4 0,198.34 -26.72,386.95 -79.85,563.05 -52.83,176.1 -131.31,339.36 -235.9,489.05 -104.89,149.38 -233.4,283.43 -385.83,400.85 -152.17,118.79 -328.27,215.33 -526.61,290.71 94.87,47.54 184.44,105.96 266.79,176.1 82.35,69.83 153.85,154.92 215.28,255.64l1299.39 2125 -1282.7 0c-237.52,0 -408.07,-89.57 -511.29,-268.16l-1014.48 -1773.12c-44.53,-78.17 -96.29,-134.11 -156.35,-167.75 -60.11,-33.39 -145.51,-50.08 -254.27,-50.08l-360.54 0zm0 -980.84l570.02 0c192.79,0 357.74,-25.35 493.22,-74 135.43,-48.96 245.87,-115.99 332.39,-202.81 86.83,-86.52 149.68,-188.56 188.62,-304.6 39.24,-115.68 58.68,-240.07 58.68,-374.43 0,-268.16 -86.52,-477.59 -261.19,-628.65 -174.72,-150.8 -445.63,-226.18 -811.72,-226.18l-570.02 0 0 1810.68zm9841.73 3239.95l-1098.25 0c-122.96,0 -223.68,-29.52 -303.23,-86.52 -79.55,-57.31 -135.48,-130.19 -166.37,-219.51l-360.23 -1064.56 -2322.22 0 -360.54 1064.56c-27.79,78.17 -82.35,148 -163.27,210.91 -81.23,62.85 -180.27,95.12 -297.68,95.12l-1106.6 0 2364 -6111.06 1450.39 0 2364 6111.06zm-3923.46 -2336.16l1668.22 0 -561.62 -1647.1c-36.19,-104.84 -78.17,-227.8 -127.13,-370.26 -48.96,-141.03 -97.62,-294.83 -145.2,-459.83 -44.79,167.75 -90.95,322.98 -138.28,466.8 -47.54,142.4 -92.32,266.79 -134.31,371.63l-561.67 1638.75z"/>
  <path class="fil2" d="M981.96 19524.83c-208.36,479.02 -449.86,541.06 -519.12,563.05 -11.1,3.61 -18.32,29.21 -18.32,29.21l720.21 0c0,0 11.1,-25.6 0,-29.21 -54.81,-21.99 -347.2,-58.43 -142.45,-537.45l734.97 -1700.23 255.9 2266.89 65.65 0 1660.18 -2212.08 -358.3 1729.45c-95.12,449.81 -285.42,431.43 -354.68,453.42 -11.15,3.61 -18.37,29.21 -18.37,29.21l884.9 0c0,0 7.23,-25.6 -3.61,-29.21 -58.68,-21.99 -270.66,-3.61 -175.54,-468.18l325.47 -1590.35c76.8,-365.78 241.19,-446.19 321.6,-446.19 14.71,0 21.94,-25.6 21.94,-25.6l-442.27 0 -1623.49 2157.27 -245.06 -2157.27 -489.86 0c0,0 -3.61,25.6 7.23,25.6 65.91,0 211.98,43.97 109.58,270.66l11.15 -14.71 -727.69 1685.73zm5294.56 252.34c-69.57,222.82 21.99,361.91 182.76,361.91 153.55,0 318.24,-117.11 479.02,-292.64l0 -25.6c0,0 -3.61,-21.99 -21.99,0 -127.95,149.94 -270.4,234.22 -321.55,234.22 -62.35,0 -73.19,-95.12 -7.53,-321.86l347.46 -1082.37c105.96,-120.47 310.71,-303.48 584.98,-303.48 552.21,0 292.39,698.48 171.92,1078.76l-109.88 351.07c-72.88,222.82 18.37,361.91 179.15,361.91 153.85,0 318.24,-117.11 482.63,-292.64l0 -25.6c0,0 -3.61,-21.99 -21.68,0 -131.87,149.94 -274.27,234.22 -325.47,234.22 -62.29,0 -73.14,-95.12 -7.23,-318.24l91.25 -281.5c168.31,-526.61 409.45,-1202.84 -398.66,-1202.84 -230.3,0 -478.71,157.16 -617.81,310.71l51.2 -153.55c40.31,-127.95 -18.37,-190.29 -146.32,-153.55l-423.95 124.34c0,0 -11.15,25.6 0,29.21 32.83,-7.53 80.36,-21.99 120.42,-21.99 76.8,0 139.09,51.2 58.73,303.48l-142.71 453.47c-376.67,420.29 -928.57,946.89 -1330.84,946.89 -318.24,0 -468.18,-285.11 -479.02,-628.95 1502.71,-237.58 1612.34,-1202.84 829.84,-1202.84 -405.58,0 -928.57,296.26 -1133.32,950.51 -157.16,493.78 -11.15,961.7 603.35,961.7 559.43,0 1074.89,-482.63 1480.78,-943.33l-175.54 548.59zm-1605.11 -362.22c0,-500.7 281.55,-1089.6 734.97,-1089.6 665.4,0 109.58,1016.47 -734.97,1089.6zm4515.42 -1005.32c40.31,-127.95 -18.07,-190.29 -149.94,-153.55l-423.95 124.34c0,0 -7.53,25.6 3.61,29.21 29.21,-7.53 76.8,-21.99 116.85,-21.99 76.75,0 139.09,51.2 65.91,292.39l-87.64 270.66c-168.26,526.61 -413.37,1202.84 398.35,1202.84 223.12,0 460.7,-146.07 603.41,-296 -29.21,175.54 58.43,281.55 197.47,281.55 157.21,0 321.6,-117.11 482.68,-292.64l0 -25.6c0,0 -3.66,-21.99 -21.99,0 -128,149.94 -270.66,234.22 -321.86,234.22 -65.65,0 -73.19,-98.74 -3.61,-332.95l424.21 -1312.47c40.05,-127.95 -18.37,-190.29 -149.94,-153.55l-424.21 124.34c0,0 -7.23,25.6 3.61,29.21 33.08,-7.53 76.75,-21.99 120.72,-21.99 76.75,0 135.18,51.2 58.43,303.48l-347.2 1086.04c-113.49,124.34 -307.1,281.5 -559.38,281.5 -552.21,0 -289.03,-698.48 -171.92,-1078.76l186.38 -570.27zm2819.35 1367.54c-69.57,222.82 21.99,361.91 179.15,361.91 109.58,0 252.28,-65.96 394.74,-215.89l0 -25.6c0,0 0,-21.94 -21.99,0 -237.58,230.35 -365.52,241.49 -233.96,-186.38l80.41 -255.9c95.12,-292.64 208.62,-636.18 168.31,-877.68 98.74,-102.35 277.88,-230.3 548.54,-230.3 551.9,0 270.4,698.48 153.55,1078.76l-113.49 351.07c-69.52,222.82 21.99,361.91 179.15,361.91 109.88,0 252.34,-65.96 395.04,-215.89l0 -25.6c0,0 0,-21.94 -21.99,0 -237.58,230.35 -365.52,241.49 -233.96,-186.38l80.41 -255.9c168,-526.61 409.45,-1202.84 -321.86,-1202.84 -259.56,0 -537.45,131.56 -676.29,281.5 -43.92,-168.31 -183.02,-281.5 -482.63,-281.5 -248.67,0 -486.5,153.55 -621.73,310.71l51.2 -153.55c40.31,-127.95 -18.37,-190.29 -146.32,-153.55l-423.95 124.34c0,0 -11.15,25.6 0,29.21 32.83,-7.53 80.41,-21.99 120.47,-21.99 76.75,0 139.09,51.2 58.68,303.48l-347.46 1086.04c-69.52,222.82 21.99,361.91 179.15,361.91 157.16,0 321.86,-117.11 482.63,-292.64l0 -25.6c0,0 -3.61,-21.99 -21.94,0 -128,149.94 -270.4,234.22 -321.6,234.22 -62.29,0 -73.14,-95.12 -7.48,-321.86l347.41 -1085.99c102.4,-120.72 285.16,-299.87 537.45,-299.87 552.21,0 270.66,698.48 153.55,1078.76l-113.19 351.07zm2036.55 339.92l361.91 -242c58.68,175.54 215.84,296.82 533.83,296.82 584.98,0 987.25,-480.14 1140.8,-963.33 149.94,-480.44 58.43,-963.64 -526.61,-963.64 -307.1,0 -551.9,157.16 -734.97,373.62l241.49 -756.09c168.31,-488.79 453.42,-787.54 720.21,-787.54 131.82,0 255.9,72.63 362.17,226.18 32.83,47.03 69.27,65.09 109.63,65.09 175.54,0 339.92,-393.62 -223.12,-393.62 -427.82,0 -1049.29,207.8 -1403.98,1312.72l-413.06 1296.84 3.61 0 -171.92 534.95zm943.28 0c-361.91,0 -460.65,-406.95 -380.23,-831.77l124.34 -392.5c142.71,-311.27 380.23,-559.99 672.88,-559.99 723.82,0 317.99,1784.26 -416.98,1784.26zm2065.76 -1707.46c40.36,-127.95 -18.07,-190.29 -149.94,-153.55l-423.95 124.34c0,0 -7.48,25.6 3.61,29.21 29.21,-7.53 76.8,-21.99 116.85,-21.99 76.8,0 139.09,51.2 65.91,292.39l-87.59 270.66c-168.31,526.61 -413.42,1202.84 398.35,1202.84 223.07,0 460.65,-146.07 603.35,-296 -29.21,175.54 58.43,281.55 197.52,281.55 157.16,0 321.55,-117.11 482.63,-292.64l0 -25.6c0,0 -3.61,-21.99 -21.99,0 -127.95,149.94 -270.66,234.22 -321.86,234.22 -65.65,0 -73.14,-98.74 -3.61,-332.95l424.21 -1312.47c40.05,-127.95 -18.32,-190.29 -149.94,-153.55l-424.21 124.34c0,0 -7.23,25.6 3.61,29.21 33.08,-7.53 76.8,-21.99 120.72,-21.99 76.8,0 135.23,51.2 58.43,303.48l-347.15 1086.04c-113.49,124.34 -307.15,281.5 -559.43,281.5 -552.21,0 -289.03,-698.48 -171.92,-1078.76l186.38 -570.27zm1539.46 1367.54c-73.19,222.82 18.37,361.91 179.15,361.91 153.55,0 318.24,-117.11 482.63,-292.64l-3.61 -25.6c0,0 0,-21.99 -18.37,0 -131.56,149.94 -274.02,234.22 -325.17,234.22 -65.96,0 -73.19,-106.27 7.23,-365.78l329.08 -1034.84c105.96,-116.85 310.71,-307.1 588.6,-307.1 552.21,0 292.64,698.48 175.54,1078.76l-113.19 351.07c-69.57,222.82 21.68,361.91 179.15,361.91 157.16,0 321.55,-117.11 482.63,-292.64l0 -25.6c0,0 -3.92,-21.99 -21.99,0 -127.95,149.94 -270.66,234.22 -321.86,234.22 -65.91,0 -76.75,-102.35 0,-343.84l80.41 -255.9c168.31,-526.61 409.45,-1202.84 -398.35,-1202.84 -234.22,0 -482.63,160.78 -621.73,317.94l211.98 -665.4c164.64,-515.46 457.03,-830.09 731.3,-830.09 131.61,0 259.56,73.19 361.91,226.74 33.13,47.54 69.57,65.91 109.88,65.91 175.54,0 343.54,-394.99 -219.46,-394.99 -427.87,0 -1052.91,208.36 -1403.98,1316.34l-471.79 1488.26zm2270.51 0c-73.19,222.82 18.32,361.91 179.15,361.91 153.55,0 318.19,-117.11 482.63,-292.64l-3.61 -25.6c0,0 0,-21.99 -18.37,0 -131.56,149.94 -274.02,234.22 -325.22,234.22 -65.91,0 -73.14,-106.27 7.28,-365.78l102.35 -317.99 457.03 -311.02c361.91,65.96 -259.51,1093.27 511.85,1093.27 76.8,0 285.16,-80.41 431.48,-307.1l-3.61 -62.04c0,0 -10.84,-7.23 -18.37,14.45 -73.19,149.94 -223.12,267.04 -299.87,267.04 -416.72,0 142.71,-917.68 -555.51,-1052.91l712.93 -486.5c255.95,-175.54 153.6,-336.36 -36.69,-336.36 -105.96,0 -237.58,47.59 -351.07,168.31l0 25.6c0,0 0,14.45 21.99,0 62.29,-43.92 113.49,-62.29 149.94,-62.29 127.95,0 84.03,226.68 -299.87,493.78l-698.22 486.25 445.89 -1396.75c164.69,-515.46 457.08,-830.09 731.35,-830.09 131.56,0 255.95,73.19 361.91,226.74 33.08,47.54 69.52,65.91 109.88,65.91 175.54,0 343.54,-394.99 -219.51,-394.99 -427.82,0 -1052.91,208.36 -1403.93,1316.34l-471.79 1488.26zm4139.3 -1528.62c0,0 -40.36,-3.61 -54.81,36.75 -29.52,91.25 -168.31,182.76 -299.87,201.14 -69.57,-146.32 -226.74,-241.49 -511.85,-241.49 -581.42,0 -983.64,479.58 -1137.19,963.64 -153.6,480.14 -62.35,963.33 526.56,963.33 270.4,0 493.52,-124.34 672.67,-303.48 -21.99,168.26 62.29,270.66 201.08,270.66 153.55,0 318.24,-117.11 482.63,-292.64l0 -26.16c0,0 -3.61,-21.99 -21.94,0 -131.61,150.5 -274.32,234.78 -325.47,234.78 -62.04,0 -73.19,-95.12 -3.61,-322.42l471.79 -1484.09zm-914.12 51.2c296,0 416.72,271.22 409.5,600.86l-263.18 824.54c-142.71,209.18 -336.62,355.5 -559.69,355.5 -727.44,0 -317.99,-1780.9 413.37,-1780.9zm1140.8 1477.42c-69.52,222.82 21.99,361.91 179.15,361.91 157.16,0 321.86,-117.11 482.63,-292.64l0 -25.6c0,0 -3.61,-21.99 -21.94,0 -128,149.94 -270.4,234.22 -321.6,234.22 -62.29,0 -73.14,-95.12 -7.48,-321.86l347.41 -1082.37c106.01,-120.47 310.76,-303.48 585.03,-303.48 552.15,0 288.72,698.48 171.92,1078.76l-109.88 351.07c-72.88,222.82 18.32,361.91 179.15,361.91 153.8,0 318.24,-117.11 482.63,-292.64l0 -25.6c0,0 -3.61,-21.99 -21.73,0 -131.82,149.94 -274.27,234.22 -325.42,234.22 -62.35,0 -73.19,-95.12 -7.28,-318.24l91.25 -281.5c168.31,-526.61 409.5,-1202.84 -398.61,-1202.84 -233.96,0 -478.77,157.16 -617.86,310.71l51.2 -153.55c40.31,-127.95 -18.37,-190.29 -146.32,-153.55l-423.95 124.34c0,0 -11.15,25.6 0,29.21 32.83,-7.53 80.41,-21.99 120.47,-21.99 76.75,0 139.09,51.2 58.68,303.48l-347.46 1086.04zm1707.46 723.82l51.2 0 753.29 -680.15 -292.64 0 -511.85 680.15zm4128.21 -2943.44l-58.43 0 -1645.42 2062.15c-339.98,424.21 -497.14,446.19 -566.66,468.18 -11.15,3.61 -18.37,29.21 -18.37,29.21l716.6 0c0,0 7.48,-25.6 -3.61,-29.21 -54.81,-21.99 -361.91,-102.35 -69.57,-468.18l373.06 -464.26 1217.6 0 76.75 464.26c80.41,504.62 -116.8,446.19 -182.76,468.18 -14.71,3.61 -21.94,29.21 -21.94,29.21l789.73 0c0,0 3.61,-25.6 -3.61,-29.21 -54.81,-21.99 -189.99,18.37 -270.66,-468.18l-332.7 -2062.15zm-1224.83 1539.46l968.88 -1213.99 193.91 1213.99 -1162.79 0zm3352.88 680.15c-69.57,222.82 21.99,361.91 179.15,361.91 109.58,0 252.28,-65.96 394.74,-215.89l0 -25.6c0,0 0,-21.94 -21.99,0 -237.58,230.35 -365.52,241.49 -233.96,-186.38l80.41 -255.9c95.12,-292.64 208.62,-636.18 168.31,-877.68 98.74,-102.35 277.88,-230.3 548.54,-230.3 551.9,0 270.4,698.48 153.55,1078.76l-113.49 351.07c-69.52,222.82 21.99,361.91 179.15,361.91 109.88,0 252.34,-65.96 395.04,-215.89l0 -25.6c0,0 0,-21.94 -21.99,0 -237.58,230.35 -365.52,241.49 -233.96,-186.38l80.41 -255.9c168,-526.61 409.45,-1202.84 -321.86,-1202.84 -259.56,0 -537.45,131.56 -676.29,281.5 -43.92,-168.31 -183.02,-281.5 -482.63,-281.5 -248.67,0 -486.5,153.55 -621.73,310.71l51.2 -153.55c40.36,-127.95 -18.37,-190.29 -146.32,-153.55l-423.95 124.34c0,0 -11.1,25.6 0,29.21 32.83,-7.53 80.41,-21.99 120.47,-21.99 76.75,0 139.09,51.2 58.68,303.48l-347.46 1086.04c-69.52,222.82 21.99,361.91 179.15,361.91 157.16,0 321.86,-117.11 482.63,-292.64l0 -25.6c0,0 -3.61,-21.99 -21.94,0 -128,149.94 -270.4,234.22 -321.6,234.22 -62.29,0 -73.14,-95.12 -7.48,-321.86l347.41 -1085.99c102.4,-120.72 285.16,-299.87 537.45,-299.87 552.21,0 270.71,698.48 153.55,1078.76l-113.19 351.07zm4139 -1528.62c0,0 -40.31,-3.61 -54.76,36.75 -29.52,91.25 -168.31,182.76 -299.92,201.14 -69.52,-146.32 -226.68,-241.49 -511.85,-241.49 -581.37,0 -983.64,479.58 -1137.19,963.64 -153.55,480.14 -62.29,963.33 526.61,963.33 270.4,0 493.47,-124.34 672.62,-303.48 -21.99,168.26 62.35,270.66 201.14,270.66 153.55,0 318.24,-117.11 482.63,-292.64l0 -26.16c0,0 -3.61,-21.99 -21.99,0 -131.56,150.5 -274.27,234.78 -325.47,234.78 -61.99,0 -73.14,-95.12 -3.61,-322.42l471.79 -1484.09zm-914.07 51.2c295.95,0 416.67,271.22 409.45,600.86l-263.12 824.54c-142.71,209.18 -336.62,355.5 -559.69,355.5 -727.44,0 -317.99,-1780.9 413.37,-1780.9zm1140.8 1477.42c-69.57,222.82 21.99,361.91 179.15,361.91 157.16,0 321.86,-117.11 482.63,-292.64l0 -25.6c0,0 -3.61,-21.99 -21.99,0 -127.95,149.94 -270.35,234.22 -321.55,234.22 -62.35,0 -73.19,-95.12 -7.53,-321.86l347.46 -1082.37c105.96,-120.47 310.71,-303.48 585.03,-303.48 552.15,0 288.72,698.48 171.87,1078.76l-109.88 351.07c-72.88,222.82 18.37,361.91 179.15,361.91 153.85,0 318.24,-117.11 482.68,-292.64l0 -25.6c0,0 -3.66,-21.99 -21.73,0 -131.87,149.94 -274.27,234.22 -325.47,234.22 -62.29,0 -73.14,-95.12 -7.23,-318.24l91.25 -281.5c168.31,-526.61 409.5,-1202.84 -398.66,-1202.84 -233.91,0 -478.71,157.16 -617.81,310.71l51.2 -153.55c40.31,-127.95 -18.37,-190.29 -146.32,-153.55l-423.95 124.34c0,0 -11.15,25.6 0,29.21 32.83,-7.53 80.36,-21.99 120.42,-21.99 76.8,0 139.09,51.2 58.73,303.48l-347.46 1086.04zm4285.32 -1528.62c0,0 -40.31,-3.61 -54.76,36.75 -29.52,91.25 -168.31,182.76 -299.87,201.14 -69.57,-146.32 -226.74,-241.49 -511.9,-241.49 -581.37,0 -983.64,479.58 -1137.19,963.64 -153.55,480.14 -62.29,963.33 526.61,963.33 270.4,0 493.47,-124.34 672.62,-303.48 -21.94,168.26 62.35,270.66 201.14,270.66 153.55,0 318.24,-117.11 482.63,-292.64l0 -26.16c0,0 -3.61,-21.99 -21.99,0 -131.56,150.5 -274.27,234.78 -325.42,234.78 -62.04,0 -73.19,-95.12 -3.66,-322.42l471.79 -1484.09zm-914.07 51.2c295.95,0 416.72,271.22 409.45,600.86l-263.12 824.54c-142.71,209.18 -336.62,355.5 -559.69,355.5 -727.44,0 -317.99,-1780.9 413.37,-1780.9zm1140.55 1477.42c-73.19,222.82 18.32,361.91 179.15,361.91 153.55,0 318.19,-117.11 482.63,-292.64l-3.61 -25.6c0,0 0,-21.99 -18.37,0 -131.56,149.94 -274.02,234.22 -325.22,234.22 -65.91,0 -73.14,-106.27 7.28,-365.78l329.08 -1034.84c105.96,-116.85 310.71,-307.1 588.6,-307.1 552.21,0 292.64,698.48 175.54,1078.76l-113.24 351.07c-69.52,222.82 21.73,361.91 179.15,361.91 157.21,0 321.6,-117.11 482.68,-292.64l0 -25.6c0,0 -3.92,-21.99 -21.99,0 -127.95,149.94 -270.66,234.22 -321.86,234.22 -65.96,0 -76.8,-102.35 0,-343.84l80.36 -255.9c168.31,-526.61 409.5,-1202.84 -398.35,-1202.84 -234.22,0 -482.63,160.78 -621.73,317.94l211.98 -665.4c164.69,-515.46 457.08,-830.09 731.35,-830.09 131.56,0 259.56,73.19 361.91,226.74 33.08,47.54 69.52,65.91 109.88,65.91 175.54,0 343.54,-394.99 -219.51,-394.99 -427.82,0 -1052.91,208.36 -1403.93,1316.34l-471.79 1488.26zm4628.86 859c581.42,-361.91 596.18,-734.66 431.48,-1111.33 263.43,-263.43 486.25,-566.91 453.42,-808.1 -10.84,-65.91 -51.2,-91.51 -102.35,-91.51 -98.79,0 -233.96,105.96 -223.12,252.28 11.15,201.14 120.72,255.95 -153.55,596.18 -157.16,-329.08 -435.1,-658.17 -577.5,-983.64 343.54,-168.31 665.4,-288.78 753.04,-566.66 91.51,-285.42 -98.79,-424.26 -343.54,-424.26 -267.09,0 -599.79,168.31 -702.14,493.52 -51.2,153.55 -14.76,343.79 62.04,552.15 -431.48,233.96 -906.58,471.79 -1042.07,928.88 -142.45,471.49 223.12,709.32 658.17,709.32 332.7,0 640.1,-139.09 906.84,-358.55 73.19,289.03 62.04,563.3 -127.95,790.04l7.23 21.68zm-197.47 -2204.55c-69.27,-175.54 -94.87,-351.07 -32.83,-526.61 73.14,-215.84 277.88,-351.07 427.82,-351.07 131.56,0 223.12,106.01 142.71,351.07 -69.52,219.51 -281.5,380.28 -537.7,526.61zm307.35 1341.63c-252.28,212.28 -563.3,358.6 -877.63,358.6 -303.48,0 -464.31,-289.03 -339.92,-676.54 138.79,-442.32 427.51,-680.15 723.82,-852.08 142.66,362.22 383.85,778.89 493.73,1170.01zm3312.57 -603.1c647.02,0 1096.88,-402.22 1224.83,-808.1 131.56,-402.22 -65.96,-804.49 -712.98,-804.49l-797.01 0 -665.65 2084.13c-146.07,446.19 -343.54,424.21 -413.11,446.19 -14.76,3.61 -21.99,29.21 -21.99,29.21l884.9 0c0,0 7.23,-25.6 -3.61,-29.21 -54.81,-21.99 -270.66,0 -120.72,-468.18l142.71 -449.55 482.63 0zm-570.53 -1612.59c0,0 -7.28,25.6 3.61,29.21 55.07,21.99 270.66,0 120.72,468.18l161.03 -497.39 -285.37 0zm961.65 58.73c968.88,0 493.78,1495.18 -475.41,1495.18l-380.28 0 340.23 -1071.28c157.16,-482.63 233.91,-416.67 307.1,-423.9l208.36 0zm877.63 2160.88c-69.52,222.82 21.99,361.91 179.15,361.91 157.21,0 321.86,-117.11 482.68,-292.64l0 -25.6c0,0 -3.66,-21.99 -21.99,0 -128,149.94 -270.4,234.22 -321.6,234.22 -62.29,0 -73.14,-95.12 -7.48,-321.86l292.64 -917.68c211.98,-245.11 365.52,-311.02 497.09,-311.02 76.8,0 149.94,21.99 219.51,43.92 189.99,58.73 365.52,-259.51 204.7,-325.47 -29.21,-10.84 -61.99,-18.07 -95.12,-18.07 -226.74,0 -566.66,237.58 -796.96,522.69l105.96 -317.94c40.36,-127.95 -18.37,-190.29 -146.32,-153.55l-423.95 124.34c0,0 -11.1,25.6 0,29.21 32.83,-7.53 80.41,-21.99 120.47,-21.99 76.75,0 139.09,51.2 58.68,303.48l-347.46 1086.04zm1484.64 -568.59c-157.16,494.85 -11.1,963.33 607.02,963.33 610.58,0 1052.91,-464.87 1213.94,-963.33 157.21,-494.9 10.89,-963.64 -603.35,-963.64 -610.58,0 -1060.44,465.13 -1217.6,963.64zm1042.07 -886.84c782.5,0 530.22,1769.76 -259.51,1769.76 -793.65,0 -530.22,-1769.76 259.51,-1769.76zm2384 -928.57c-394.74,0 -625.09,361.91 -745.81,745.81l-47.54 149.94 -277.94 0 -18.37 58.43 277.94 0 -614.25 1938.06c-164.39,515.46 -460.65,829.78 -734.92,829.78 -131.61,0 -255.95,-73.14 -361.91,-226.68 -32.83,-47.33 -69.57,-65.65 -109.63,-65.65 -175.54,0 -340.18,394.74 222.82,394.74 427.87,0 1049.6,-208.36 1400.67,-1316.08l493.47 -1554.17 511.85 0 18.37 -58.43 -511.85 0 36.44 -117.11c32.83,-106.01 171.87,-716.6 442.58,-716.6 299.57,0 124.03,215.84 211.98,376.67 29.21,51.15 80.36,76.75 127.95,76.75 73.14,0 142.71,-54.81 135.18,-168.31 -10.84,-149.94 -157.16,-347.15 -457.03,-347.15zm-32.83 1817.04c-157.16,493.78 -11.15,961.7 606.97,961.7 442.32,0 712.98,-223.12 899.36,-544.67l-40.05 -25.6c-62.29,138.79 -325.47,489.86 -683.77,489.86 -318.24,0 -468.18,-285.11 -479.02,-628.95 1502.71,-237.58 1612.34,-1202.84 833.7,-1202.84 -409.45,0 -928.83,296.26 -1137.19,950.51zm303.48 204.75c0,-500.7 281.55,-1089.6 734.97,-1089.6 665.4,0 109.58,1016.47 -734.97,1089.6zm1656.26 303.48c-29.16,-54.76 -83.98,-80.36 -135.18,-80.36 -95.12,0 -193.91,76.75 -164.39,186.38 54.81,223.12 336.31,343.84 603.1,333 402.22,0 848.41,-153.6 976.41,-548.59 222.82,-698.53 -1203.15,-405.88 -1016.47,-958.04 87.59,-259.56 427.82,-325.47 603.05,-325.47 384.2,0 248.72,208.62 333,369.39 32.83,58.43 87.64,84.03 142.4,84.03 91.56,0 186.68,-76.75 157.21,-197.22 -54.81,-226.74 -307.15,-329.08 -537.45,-329.08 -296,0 -775.02,98.48 -910.5,515.46 -233.96,742.2 1151.95,497.09 1009.24,950.51 -80.41,252.34 -380.28,376.67 -687.38,376.67 -288.72,0 -285.11,-215.59 -373.06,-376.67zm2263.59 -1959.75c-47.59,153.55 40.05,233.96 149.94,233.96 113.19,0 252.28,-80.41 299.87,-233.96 51.2,-153.55 -36.75,-230.35 -149.94,-230.35 -113.49,0 -248.72,76.8 -299.87,230.35zm182.76 650.94c40.31,-127.95 -18.37,-190.29 -146.32,-153.55l-423.95 124.34c0,0 -11.15,25.6 0,29.21 32.83,-7.53 76.75,-21.99 120.42,-21.99 73.19,0 135.48,47.59 65.96,281.55l-354.68 1107.97c-69.52,222.82 21.99,361.91 179.15,361.91 157.16,0 321.86,-117.11 482.63,-292.64l0 -25.6c0,0 -3.61,-21.99 -21.99,0 -127.95,149.94 -270.35,234.22 -321.55,234.22 -62.35,0 -73.19,-95.12 -7.53,-321.86l274.32 -859.3 153.55 -464.26zm267.04 798.94c-157.16,494.85 -11.15,963.33 606.97,963.33 610.63,0 1052.91,-464.87 1213.99,-963.33 157.16,-494.9 10.84,-963.64 -603.35,-963.64 -610.63,0 -1060.44,465.13 -1217.6,963.64zm1042.07 -886.84c782.5,0 530.17,1769.76 -259.56,1769.76 -793.65,0 -530.22,-1769.76 259.56,-1769.76zm1082.37 1455.43c-69.52,222.82 21.99,361.91 179.15,361.91 157.16,0 321.86,-117.11 482.63,-292.64l0 -25.6c0,0 -3.61,-21.99 -21.99,0 -127.95,149.94 -270.35,234.22 -321.55,234.22 -62.29,0 -73.19,-95.12 -7.53,-321.86l347.46 -1082.37c106.01,-120.47 310.71,-303.48 585.03,-303.48 552.15,0 288.72,698.48 171.92,1078.76l-109.88 351.07c-72.93,222.82 18.32,361.91 179.1,361.91 153.85,0 318.24,-117.11 482.68,-292.64l0 -25.6c0,0 -3.61,-21.99 -21.73,0 -131.82,149.94 -274.27,234.22 -325.47,234.22 -62.29,0 -73.14,-95.12 -7.23,-318.24l91.25 -281.5c168.31,-526.61 409.5,-1202.84 -398.61,-1202.84 -233.96,0 -478.77,157.16 -617.86,310.71l51.2 -153.55c40.31,-127.95 -18.37,-190.29 -146.32,-153.55l-423.95 124.34c0,0 -11.15,25.6 0,29.21 32.83,-7.53 80.36,-21.99 120.47,-21.99 76.75,0 139.04,51.2 58.68,303.48l-347.46 1086.04zm4285.37 -1528.62c0,0 -40.36,-3.61 -54.81,36.75 -29.52,91.25 -168.31,182.76 -299.87,201.14 -69.57,-146.32 -226.74,-241.49 -511.85,-241.49 -581.42,0 -983.64,479.58 -1137.24,963.64 -153.55,480.14 -62.29,963.33 526.61,963.33 270.4,0 493.47,-124.34 672.62,-303.48 -21.94,168.26 62.35,270.66 201.14,270.66 153.55,0 318.24,-117.11 482.63,-292.64l0 -26.16c0,0 -3.61,-21.99 -21.94,0 -131.61,150.5 -274.32,234.78 -325.47,234.78 -62.04,0 -73.19,-95.12 -3.61,-322.42l471.79 -1484.09zm-914.12 51.2c296,0 416.72,271.22 409.5,600.86l-263.18 824.54c-142.71,209.18 -336.62,355.5 -559.69,355.5 -727.44,0 -317.99,-1780.9 413.37,-1780.9zm1140.55 1477.42c-73.19,222.82 18.32,361.91 179.15,361.91 153.55,0 318.19,-117.11 479.02,-292.64l0 -25.6c0,0 -3.61,-21.99 -21.99,0 -127.95,149.94 -270.4,234.22 -321.6,234.22 -65.91,0 -73.14,-106.27 7.28,-365.78l570.22 -1784.26c164.69,-515.46 457.08,-830.09 731.35,-830.09 131.56,0 255.95,73.19 361.91,226.74 33.08,47.54 69.52,65.91 109.88,65.91 175.54,0 339.92,-394.99 -223.12,-394.99 -427.82,0 -1049.29,208.36 -1400.31,1316.34l-471.79 1488.26z"/>
 </g>
</svg>
